<?xml version="1.0" encoding="utf-8" standalone="no"?>
<!DOCTYPE svg PUBLIC "-//W3C//DTD SVG 1.1//EN"
  "http://www.w3.org/Graphics/SVG/1.1/DTD/svg11.dtd">
<!-- Created with matplotlib (http://matplotlib.org/) -->
<svg height="919pt" version="1.1" viewBox="0 0 1728 919" width="1728pt" xmlns="http://www.w3.org/2000/svg" xmlns:xlink="http://www.w3.org/1999/xlink">
 <defs>
  <style type="text/css">
*{stroke-linecap:butt;stroke-linejoin:round;stroke-miterlimit:100000;}
  </style>
 </defs>
 <g id="figure_1">
  <g id="patch_1">
   <path d="M 0 919.8 
L 1728 919.8 
L 1728 0 
L 0 0 
z
" style="fill:#ffffff;"/>
  </g>
  <g id="axes_1">
   <g id="patch_2">
    <path d="M 216 827.82 
L 1287.36 827.82 
L 1287.36 91.98 
L 216 91.98 
z
" style="fill:#ffffff;"/>
   </g>
   <g id="line2d_1">
    <path clip-path="url(#p4b3a5f4508)" d="M 232.069597 749.240585 
L 237.426129 327.636951 
L 242.782661 156.146971 
L 269.565322 133.679959 
L 323.130643 126.845033 
L 376.695965 119.101534 
L 430.261287 117.900069 
L 483.826609 116.932978 
L 751.653217 116.559254 
L 1287.306435 116.459861 
" style="fill:none;stroke:#0000ff;stroke-linecap:square;"/>
   </g>
   <g id="line2d_2">
    <path clip-path="url(#p4b3a5f4508)" d="M 232.069597 631.969034 
L 237.426129 503.140483 
L 242.782661 469.986478 
L 269.565322 135.911307 
L 323.130643 125.725478 
L 376.695965 122.52658 
L 430.261287 120.04672 
L 483.826609 118.141131 
L 751.653217 118.059708 
L 1287.306435 116.798647 
" style="fill:none;stroke:#008000;stroke-linecap:square;"/>
   </g>
   <g id="line2d_3">
    <path clip-path="url(#p4b3a5f4508)" d="M 232.069597 1013.592645 
M 232.844293 920.8 
L 237.426129 371.990618 
L 242.782661 354.561624 
L 269.565322 158.674124 
L 323.130643 146.119039 
L 376.695965 124.965246 
L 430.261287 122.40045 
L 483.826609 122.043587 
L 751.653217 120.683068 
L 1287.306435 117.765873 
" style="fill:none;stroke:#ff0000;stroke-linecap:square;"/>
   </g>
   <g id="line2d_4">
    <path clip-path="url(#p4b3a5f4508)" d="M 232.069597 587.187231 
L 237.426129 326.152634 
L 242.782661 226.113546 
L 269.565322 165.197698 
L 323.130643 119.902428 
L 376.695965 119.620292 
L 430.261287 118.425172 
L 483.826609 118.211976 
L 751.653217 117.646152 
L 1287.306435 117.481653 
" style="fill:none;stroke:#00bfbf;stroke-linecap:square;"/>
   </g>
   <g id="line2d_5">
    <path clip-path="url(#p4b3a5f4508)" d="M 232.069597 569.053714 
L 237.426129 490.690995 
L 242.782661 429.025805 
L 269.565322 155.723639 
L 323.130643 121.406411 
L 376.695965 119.680406 
L 430.261287 119.628201 
L 483.826609 118.617365 
L 751.653217 115.722986 
L 1287.306435 115.488679 
" style="fill:none;stroke:#bf00bf;stroke-linecap:square;"/>
   </g>
   <g id="line2d_6">
    <path clip-path="url(#p4b3a5f4508)" d="M 232.069597 532.276294 
L 237.426129 406.466616 
L 242.782661 386.110936 
L 269.565322 261.601026 
L 323.130643 138.678146 
L 376.695965 129.696945 
L 430.261287 121.728893 
L 483.826609 121.134176 
L 751.653217 120.768821 
L 1287.306435 119.986694 
" style="fill:none;stroke:#bfbf00;stroke-linecap:square;"/>
   </g>
   <g id="line2d_7">
    <path clip-path="url(#p4b3a5f4508)" d="M 232.069597 936.776171 
M 232.628398 920.8 
L 237.426129 783.632484 
L 242.782661 673.197697 
L 269.565322 548.027837 
L 323.130643 205.901896 
L 376.695965 143.166476 
L 430.261287 127.459948 
L 483.826609 125.950784 
L 751.653217 122.650471 
L 1287.306435 116.405245 
" style="fill:none;stroke:#000000;stroke-linecap:square;"/>
   </g>
   <g id="line2d_8">
    <path clip-path="url(#p4b3a5f4508)" d="M 232.069597 860.131131 
L 237.426129 822.81374 
L 242.782661 808.481422 
L 269.565322 738.253816 
L 323.130643 451.241494 
L 376.695965 136.807273 
L 430.261287 128.462047 
L 483.826609 126.779528 
L 751.653217 118.274871 
L 1287.306435 117.272141 
" style="fill:none;stroke:#0000ff;stroke-linecap:square;"/>
   </g>
   <g id="line2d_9">
    <path clip-path="url(#p4b3a5f4508)" d="M 232.069597 676.437678 
L 237.426129 642.424318 
L 242.782661 555.247551 
L 269.565322 481.25297 
L 323.130643 461.787795 
L 376.695965 225.508015 
L 430.261287 197.738502 
L 483.826609 131.275196 
L 751.653217 125.075058 
L 1287.306435 120.52784 
" style="fill:none;stroke:#008000;stroke-linecap:square;"/>
   </g>
   <g id="line2d_10">
    <path clip-path="url(#p4b3a5f4508)" d="M 232.069597 687.793131 
L 237.426129 549.196472 
L 242.782661 520.527163 
L 269.565322 325.152053 
L 323.130643 217.093579 
L 376.695965 134.006923 
L 430.261287 130.355182 
L 483.826609 124.4628 
L 751.653217 122.18518 
L 1287.306435 118.826002 
" style="fill:none;stroke:#ff0000;stroke-linecap:square;"/>
   </g>
   <g id="line2d_11">
    <path clip-path="url(#p4b3a5f4508)" d="M 232.069597 920.303635 
L 237.426129 891.208845 
L 242.782661 881.374203 
L 269.565322 766.127113 
L 323.130643 741.613917 
L 376.695965 592.569034 
L 430.261287 469.536322 
L 483.826609 364.961429 
L 751.653217 135.562851 
L 1287.306435 128.959532 
" style="fill:none;stroke:#00bfbf;stroke-linecap:square;"/>
   </g>
   <g id="line2d_12">
    <path clip-path="url(#p4b3a5f4508)" d="M 216 161.14896 
L 1287.36 161.14896 
" style="fill:none;stroke:#000000;stroke-dasharray:6.000000,6.000000;stroke-dashoffset:0.0;"/>
   </g>
   <g id="patch_3">
    <path d="M 216 827.82 
L 1287.36 827.82 
" style="fill:none;stroke:#000000;stroke-linecap:square;stroke-linejoin:miter;"/>
   </g>
   <g id="patch_4">
    <path d="M 216 827.82 
L 216 91.98 
" style="fill:none;stroke:#000000;stroke-linecap:square;stroke-linejoin:miter;"/>
   </g>
   <g id="matplotlib.axis_1">
    <g id="xtick_1">
     <g id="line2d_13">
      <defs>
       <path d="M 0 0 
L 0 -4 
" id="m4256a44d59" style="stroke:#000000;stroke-width:0.5;"/>
      </defs>
      <g>
       <use style="stroke:#000000;stroke-width:0.5;" x="216.0" xlink:href="#m4256a44d59" y="827.82"/>
      </g>
     </g>
     <g id="text_1">
      <!-- 0.00 -->
      <defs>
       <path d="M 31.78125 66.40625 
Q 24.171875 66.40625 20.328125 58.90625 
Q 16.5 51.421875 16.5 36.375 
Q 16.5 21.390625 20.328125 13.890625 
Q 24.171875 6.390625 31.78125 6.390625 
Q 39.453125 6.390625 43.28125 13.890625 
Q 47.125 21.390625 47.125 36.375 
Q 47.125 51.421875 43.28125 58.90625 
Q 39.453125 66.40625 31.78125 66.40625 
M 31.78125 74.21875 
Q 44.046875 74.21875 50.515625 64.515625 
Q 56.984375 54.828125 56.984375 36.375 
Q 56.984375 17.96875 50.515625 8.265625 
Q 44.046875 -1.421875 31.78125 -1.421875 
Q 19.53125 -1.421875 13.0625 8.265625 
Q 6.59375 17.96875 6.59375 36.375 
Q 6.59375 54.828125 13.0625 64.515625 
Q 19.53125 74.21875 31.78125 74.21875 
" id="BitstreamVeraSans-Roman-30"/>
       <path d="M 10.6875 12.40625 
L 21 12.40625 
L 21 0 
L 10.6875 0 
z
" id="BitstreamVeraSans-Roman-2e"/>
      </defs>
      <g transform="translate(193.734375 847.016875)scale(0.2 -0.2)">
       <use xlink:href="#BitstreamVeraSans-Roman-30"/>
       <use x="63.623046875" xlink:href="#BitstreamVeraSans-Roman-2e"/>
       <use x="95.41015625" xlink:href="#BitstreamVeraSans-Roman-30"/>
       <use x="159.033203125" xlink:href="#BitstreamVeraSans-Roman-30"/>
      </g>
     </g>
    </g>
    <g id="xtick_2">
     <g id="line2d_14">
      <g>
       <use style="stroke:#000000;stroke-width:0.5;" x="483.82660867" xlink:href="#m4256a44d59" y="827.82"/>
      </g>
     </g>
     <g id="text_2">
      <!-- 0.05 -->
      <defs>
       <path d="M 10.796875 72.90625 
L 49.515625 72.90625 
L 49.515625 64.59375 
L 19.828125 64.59375 
L 19.828125 46.734375 
Q 21.96875 47.46875 24.109375 47.828125 
Q 26.265625 48.1875 28.421875 48.1875 
Q 40.625 48.1875 47.75 41.5 
Q 54.890625 34.8125 54.890625 23.390625 
Q 54.890625 11.625 47.5625 5.09375 
Q 40.234375 -1.421875 26.90625 -1.421875 
Q 22.3125 -1.421875 17.546875 -0.640625 
Q 12.796875 0.140625 7.71875 1.703125 
L 7.71875 11.625 
Q 12.109375 9.234375 16.796875 8.0625 
Q 21.484375 6.890625 26.703125 6.890625 
Q 35.15625 6.890625 40.078125 11.328125 
Q 45.015625 15.765625 45.015625 23.390625 
Q 45.015625 31 40.078125 35.4375 
Q 35.15625 39.890625 26.703125 39.890625 
Q 22.75 39.890625 18.8125 39.015625 
Q 14.890625 38.140625 10.796875 36.28125 
z
" id="BitstreamVeraSans-Roman-35"/>
      </defs>
      <g transform="translate(461.56098367 847.016875)scale(0.2 -0.2)">
       <use xlink:href="#BitstreamVeraSans-Roman-30"/>
       <use x="63.623046875" xlink:href="#BitstreamVeraSans-Roman-2e"/>
       <use x="95.41015625" xlink:href="#BitstreamVeraSans-Roman-30"/>
       <use x="159.033203125" xlink:href="#BitstreamVeraSans-Roman-35"/>
      </g>
     </g>
    </g>
    <g id="xtick_3">
     <g id="line2d_15">
      <g>
       <use style="stroke:#000000;stroke-width:0.5;" x="751.653217339" xlink:href="#m4256a44d59" y="827.82"/>
      </g>
     </g>
     <g id="text_3">
      <!-- 0.10 -->
      <defs>
       <path d="M 12.40625 8.296875 
L 28.515625 8.296875 
L 28.515625 63.921875 
L 10.984375 60.40625 
L 10.984375 69.390625 
L 28.421875 72.90625 
L 38.28125 72.90625 
L 38.28125 8.296875 
L 54.390625 8.296875 
L 54.390625 0 
L 12.40625 0 
z
" id="BitstreamVeraSans-Roman-31"/>
      </defs>
      <g transform="translate(729.387592339 847.016875)scale(0.2 -0.2)">
       <use xlink:href="#BitstreamVeraSans-Roman-30"/>
       <use x="63.623046875" xlink:href="#BitstreamVeraSans-Roman-2e"/>
       <use x="95.41015625" xlink:href="#BitstreamVeraSans-Roman-31"/>
       <use x="159.033203125" xlink:href="#BitstreamVeraSans-Roman-30"/>
      </g>
     </g>
    </g>
    <g id="xtick_4">
     <g id="line2d_16">
      <g>
       <use style="stroke:#000000;stroke-width:0.5;" x="1019.47982601" xlink:href="#m4256a44d59" y="827.82"/>
      </g>
     </g>
     <g id="text_4">
      <!-- 0.15 -->
      <g transform="translate(997.214201009 847.016875)scale(0.2 -0.2)">
       <use xlink:href="#BitstreamVeraSans-Roman-30"/>
       <use x="63.623046875" xlink:href="#BitstreamVeraSans-Roman-2e"/>
       <use x="95.41015625" xlink:href="#BitstreamVeraSans-Roman-31"/>
       <use x="159.033203125" xlink:href="#BitstreamVeraSans-Roman-35"/>
      </g>
     </g>
    </g>
    <g id="xtick_5">
     <g id="line2d_17">
      <g>
       <use style="stroke:#000000;stroke-width:0.5;" x="1287.30643468" xlink:href="#m4256a44d59" y="827.82"/>
      </g>
     </g>
     <g id="text_5">
      <!-- 0.20 -->
      <defs>
       <path d="M 19.1875 8.296875 
L 53.609375 8.296875 
L 53.609375 0 
L 7.328125 0 
L 7.328125 8.296875 
Q 12.9375 14.109375 22.625 23.890625 
Q 32.328125 33.6875 34.8125 36.53125 
Q 39.546875 41.84375 41.421875 45.53125 
Q 43.3125 49.21875 43.3125 52.78125 
Q 43.3125 58.59375 39.234375 62.25 
Q 35.15625 65.921875 28.609375 65.921875 
Q 23.96875 65.921875 18.8125 64.3125 
Q 13.671875 62.703125 7.8125 59.421875 
L 7.8125 69.390625 
Q 13.765625 71.78125 18.9375 73 
Q 24.125 74.21875 28.421875 74.21875 
Q 39.75 74.21875 46.484375 68.546875 
Q 53.21875 62.890625 53.21875 53.421875 
Q 53.21875 48.921875 51.53125 44.890625 
Q 49.859375 40.875 45.40625 35.40625 
Q 44.1875 33.984375 37.640625 27.21875 
Q 31.109375 20.453125 19.1875 8.296875 
" id="BitstreamVeraSans-Roman-32"/>
      </defs>
      <g transform="translate(1265.04080968 847.016875)scale(0.2 -0.2)">
       <use xlink:href="#BitstreamVeraSans-Roman-30"/>
       <use x="63.623046875" xlink:href="#BitstreamVeraSans-Roman-2e"/>
       <use x="95.41015625" xlink:href="#BitstreamVeraSans-Roman-32"/>
       <use x="159.033203125" xlink:href="#BitstreamVeraSans-Roman-30"/>
      </g>
     </g>
    </g>
    <g id="text_6">
     <!-- Fraction of Complete Triplet Comparisons -->
     <defs>
      <path id="BitstreamVeraSans-Roman-20"/>
      <path d="M 54.890625 33.015625 
L 54.890625 0 
L 45.90625 0 
L 45.90625 32.71875 
Q 45.90625 40.484375 42.875 44.328125 
Q 39.84375 48.1875 33.796875 48.1875 
Q 26.515625 48.1875 22.3125 43.546875 
Q 18.109375 38.921875 18.109375 30.90625 
L 18.109375 0 
L 9.078125 0 
L 9.078125 54.6875 
L 18.109375 54.6875 
L 18.109375 46.1875 
Q 21.34375 51.125 25.703125 53.5625 
Q 30.078125 56 35.796875 56 
Q 45.21875 56 50.046875 50.171875 
Q 54.890625 44.34375 54.890625 33.015625 
" id="BitstreamVeraSans-Roman-6e"/>
      <path d="M 41.109375 46.296875 
Q 39.59375 47.171875 37.8125 47.578125 
Q 36.03125 48 33.890625 48 
Q 26.265625 48 22.1875 43.046875 
Q 18.109375 38.09375 18.109375 28.8125 
L 18.109375 0 
L 9.078125 0 
L 9.078125 54.6875 
L 18.109375 54.6875 
L 18.109375 46.1875 
Q 20.953125 51.171875 25.484375 53.578125 
Q 30.03125 56 36.53125 56 
Q 37.453125 56 38.578125 55.875 
Q 39.703125 55.765625 41.0625 55.515625 
z
" id="BitstreamVeraSans-Roman-72"/>
      <path d="M 30.609375 48.390625 
Q 23.390625 48.390625 19.1875 42.75 
Q 14.984375 37.109375 14.984375 27.296875 
Q 14.984375 17.484375 19.15625 11.84375 
Q 23.34375 6.203125 30.609375 6.203125 
Q 37.796875 6.203125 41.984375 11.859375 
Q 46.1875 17.53125 46.1875 27.296875 
Q 46.1875 37.015625 41.984375 42.703125 
Q 37.796875 48.390625 30.609375 48.390625 
M 30.609375 56 
Q 42.328125 56 49.015625 48.375 
Q 55.71875 40.765625 55.71875 27.296875 
Q 55.71875 13.875 49.015625 6.21875 
Q 42.328125 -1.421875 30.609375 -1.421875 
Q 18.84375 -1.421875 12.171875 6.21875 
Q 5.515625 13.875 5.515625 27.296875 
Q 5.515625 40.765625 12.171875 48.375 
Q 18.84375 56 30.609375 56 
" id="BitstreamVeraSans-Roman-6f"/>
      <path d="M 9.421875 75.984375 
L 18.40625 75.984375 
L 18.40625 0 
L 9.421875 0 
z
" id="BitstreamVeraSans-Roman-6c"/>
      <path d="M 9.8125 72.90625 
L 51.703125 72.90625 
L 51.703125 64.59375 
L 19.671875 64.59375 
L 19.671875 43.109375 
L 48.578125 43.109375 
L 48.578125 34.8125 
L 19.671875 34.8125 
L 19.671875 0 
L 9.8125 0 
z
" id="BitstreamVeraSans-Roman-46"/>
      <path d="M -0.296875 72.90625 
L 61.375 72.90625 
L 61.375 64.59375 
L 35.5 64.59375 
L 35.5 0 
L 25.59375 0 
L 25.59375 64.59375 
L -0.296875 64.59375 
z
" id="BitstreamVeraSans-Roman-54"/>
      <path d="M 9.421875 54.6875 
L 18.40625 54.6875 
L 18.40625 0 
L 9.421875 0 
z
M 9.421875 75.984375 
L 18.40625 75.984375 
L 18.40625 64.59375 
L 9.421875 64.59375 
z
" id="BitstreamVeraSans-Roman-69"/>
      <path d="M 18.109375 8.203125 
L 18.109375 -20.796875 
L 9.078125 -20.796875 
L 9.078125 54.6875 
L 18.109375 54.6875 
L 18.109375 46.390625 
Q 20.953125 51.265625 25.265625 53.625 
Q 29.59375 56 35.59375 56 
Q 45.5625 56 51.78125 48.09375 
Q 58.015625 40.1875 58.015625 27.296875 
Q 58.015625 14.40625 51.78125 6.484375 
Q 45.5625 -1.421875 35.59375 -1.421875 
Q 29.59375 -1.421875 25.265625 0.953125 
Q 20.953125 3.328125 18.109375 8.203125 
M 48.6875 27.296875 
Q 48.6875 37.203125 44.609375 42.84375 
Q 40.53125 48.484375 33.40625 48.484375 
Q 26.265625 48.484375 22.1875 42.84375 
Q 18.109375 37.203125 18.109375 27.296875 
Q 18.109375 17.390625 22.1875 11.75 
Q 26.265625 6.109375 33.40625 6.109375 
Q 40.53125 6.109375 44.609375 11.75 
Q 48.6875 17.390625 48.6875 27.296875 
" id="BitstreamVeraSans-Roman-70"/>
      <path d="M 52 44.1875 
Q 55.375 50.25 60.0625 53.125 
Q 64.75 56 71.09375 56 
Q 79.640625 56 84.28125 50.015625 
Q 88.921875 44.046875 88.921875 33.015625 
L 88.921875 0 
L 79.890625 0 
L 79.890625 32.71875 
Q 79.890625 40.578125 77.09375 44.375 
Q 74.3125 48.1875 68.609375 48.1875 
Q 61.625 48.1875 57.5625 43.546875 
Q 53.515625 38.921875 53.515625 30.90625 
L 53.515625 0 
L 44.484375 0 
L 44.484375 32.71875 
Q 44.484375 40.625 41.703125 44.40625 
Q 38.921875 48.1875 33.109375 48.1875 
Q 26.21875 48.1875 22.15625 43.53125 
Q 18.109375 38.875 18.109375 30.90625 
L 18.109375 0 
L 9.078125 0 
L 9.078125 54.6875 
L 18.109375 54.6875 
L 18.109375 46.1875 
Q 21.1875 51.21875 25.484375 53.609375 
Q 29.78125 56 35.6875 56 
Q 41.65625 56 45.828125 52.96875 
Q 50 49.953125 52 44.1875 
" id="BitstreamVeraSans-Roman-6d"/>
      <path d="M 56.203125 29.59375 
L 56.203125 25.203125 
L 14.890625 25.203125 
Q 15.484375 15.921875 20.484375 11.0625 
Q 25.484375 6.203125 34.421875 6.203125 
Q 39.59375 6.203125 44.453125 7.46875 
Q 49.3125 8.734375 54.109375 11.28125 
L 54.109375 2.78125 
Q 49.265625 0.734375 44.1875 -0.34375 
Q 39.109375 -1.421875 33.890625 -1.421875 
Q 20.796875 -1.421875 13.15625 6.1875 
Q 5.515625 13.8125 5.515625 26.8125 
Q 5.515625 40.234375 12.765625 48.109375 
Q 20.015625 56 32.328125 56 
Q 43.359375 56 49.78125 48.890625 
Q 56.203125 41.796875 56.203125 29.59375 
M 47.21875 32.234375 
Q 47.125 39.59375 43.09375 43.984375 
Q 39.0625 48.390625 32.421875 48.390625 
Q 24.90625 48.390625 20.390625 44.140625 
Q 15.875 39.890625 15.1875 32.171875 
z
" id="BitstreamVeraSans-Roman-65"/>
      <path d="M 64.40625 67.28125 
L 64.40625 56.890625 
Q 59.421875 61.53125 53.78125 63.8125 
Q 48.140625 66.109375 41.796875 66.109375 
Q 29.296875 66.109375 22.65625 58.46875 
Q 16.015625 50.828125 16.015625 36.375 
Q 16.015625 21.96875 22.65625 14.328125 
Q 29.296875 6.6875 41.796875 6.6875 
Q 48.140625 6.6875 53.78125 8.984375 
Q 59.421875 11.28125 64.40625 15.921875 
L 64.40625 5.609375 
Q 59.234375 2.09375 53.4375 0.328125 
Q 47.65625 -1.421875 41.21875 -1.421875 
Q 24.65625 -1.421875 15.125 8.703125 
Q 5.609375 18.84375 5.609375 36.375 
Q 5.609375 53.953125 15.125 64.078125 
Q 24.65625 74.21875 41.21875 74.21875 
Q 47.75 74.21875 53.53125 72.484375 
Q 59.328125 70.75 64.40625 67.28125 
" id="BitstreamVeraSans-Roman-43"/>
      <path d="M 18.3125 70.21875 
L 18.3125 54.6875 
L 36.8125 54.6875 
L 36.8125 47.703125 
L 18.3125 47.703125 
L 18.3125 18.015625 
Q 18.3125 11.328125 20.140625 9.421875 
Q 21.96875 7.515625 27.59375 7.515625 
L 36.8125 7.515625 
L 36.8125 0 
L 27.59375 0 
Q 17.1875 0 13.234375 3.875 
Q 9.28125 7.765625 9.28125 18.015625 
L 9.28125 47.703125 
L 2.6875 47.703125 
L 2.6875 54.6875 
L 9.28125 54.6875 
L 9.28125 70.21875 
z
" id="BitstreamVeraSans-Roman-74"/>
      <path d="M 37.109375 75.984375 
L 37.109375 68.5 
L 28.515625 68.5 
Q 23.6875 68.5 21.796875 66.546875 
Q 19.921875 64.59375 19.921875 59.515625 
L 19.921875 54.6875 
L 34.71875 54.6875 
L 34.71875 47.703125 
L 19.921875 47.703125 
L 19.921875 0 
L 10.890625 0 
L 10.890625 47.703125 
L 2.296875 47.703125 
L 2.296875 54.6875 
L 10.890625 54.6875 
L 10.890625 58.5 
Q 10.890625 67.625 15.140625 71.796875 
Q 19.390625 75.984375 28.609375 75.984375 
z
" id="BitstreamVeraSans-Roman-66"/>
      <path d="M 34.28125 27.484375 
Q 23.390625 27.484375 19.1875 25 
Q 14.984375 22.515625 14.984375 16.5 
Q 14.984375 11.71875 18.140625 8.90625 
Q 21.296875 6.109375 26.703125 6.109375 
Q 34.1875 6.109375 38.703125 11.40625 
Q 43.21875 16.703125 43.21875 25.484375 
L 43.21875 27.484375 
z
M 52.203125 31.203125 
L 52.203125 0 
L 43.21875 0 
L 43.21875 8.296875 
Q 40.140625 3.328125 35.546875 0.953125 
Q 30.953125 -1.421875 24.3125 -1.421875 
Q 15.921875 -1.421875 10.953125 3.296875 
Q 6 8.015625 6 15.921875 
Q 6 25.140625 12.171875 29.828125 
Q 18.359375 34.515625 30.609375 34.515625 
L 43.21875 34.515625 
L 43.21875 35.40625 
Q 43.21875 41.609375 39.140625 45 
Q 35.0625 48.390625 27.6875 48.390625 
Q 23 48.390625 18.546875 47.265625 
Q 14.109375 46.140625 10.015625 43.890625 
L 10.015625 52.203125 
Q 14.9375 54.109375 19.578125 55.046875 
Q 24.21875 56 28.609375 56 
Q 40.484375 56 46.34375 49.84375 
Q 52.203125 43.703125 52.203125 31.203125 
" id="BitstreamVeraSans-Roman-61"/>
      <path d="M 44.28125 53.078125 
L 44.28125 44.578125 
Q 40.484375 46.53125 36.375 47.5 
Q 32.28125 48.484375 27.875 48.484375 
Q 21.1875 48.484375 17.84375 46.4375 
Q 14.5 44.390625 14.5 40.28125 
Q 14.5 37.15625 16.890625 35.375 
Q 19.28125 33.59375 26.515625 31.984375 
L 29.59375 31.296875 
Q 39.15625 29.25 43.1875 25.515625 
Q 47.21875 21.78125 47.21875 15.09375 
Q 47.21875 7.46875 41.1875 3.015625 
Q 35.15625 -1.421875 24.609375 -1.421875 
Q 20.21875 -1.421875 15.453125 -0.5625 
Q 10.6875 0.296875 5.421875 2 
L 5.421875 11.28125 
Q 10.40625 8.6875 15.234375 7.390625 
Q 20.0625 6.109375 24.8125 6.109375 
Q 31.15625 6.109375 34.5625 8.28125 
Q 37.984375 10.453125 37.984375 14.40625 
Q 37.984375 18.0625 35.515625 20.015625 
Q 33.0625 21.96875 24.703125 23.78125 
L 21.578125 24.515625 
Q 13.234375 26.265625 9.515625 29.90625 
Q 5.8125 33.546875 5.8125 39.890625 
Q 5.8125 47.609375 11.28125 51.796875 
Q 16.75 56 26.8125 56 
Q 31.78125 56 36.171875 55.265625 
Q 40.578125 54.546875 44.28125 53.078125 
" id="BitstreamVeraSans-Roman-73"/>
      <path d="M 48.78125 52.59375 
L 48.78125 44.1875 
Q 44.96875 46.296875 41.140625 47.34375 
Q 37.3125 48.390625 33.40625 48.390625 
Q 24.65625 48.390625 19.8125 42.84375 
Q 14.984375 37.3125 14.984375 27.296875 
Q 14.984375 17.28125 19.8125 11.734375 
Q 24.65625 6.203125 33.40625 6.203125 
Q 37.3125 6.203125 41.140625 7.25 
Q 44.96875 8.296875 48.78125 10.40625 
L 48.78125 2.09375 
Q 45.015625 0.34375 40.984375 -0.53125 
Q 36.96875 -1.421875 32.421875 -1.421875 
Q 20.0625 -1.421875 12.78125 6.34375 
Q 5.515625 14.109375 5.515625 27.296875 
Q 5.515625 40.671875 12.859375 48.328125 
Q 20.21875 56 33.015625 56 
Q 37.15625 56 41.109375 55.140625 
Q 45.0625 54.296875 48.78125 52.59375 
" id="BitstreamVeraSans-Roman-63"/>
     </defs>
     <g transform="translate(501.555 874.4125)scale(0.24 -0.24)">
      <use xlink:href="#BitstreamVeraSans-Roman-46"/>
      <use x="57.41015625" xlink:href="#BitstreamVeraSans-Roman-72"/>
      <use x="98.5234375" xlink:href="#BitstreamVeraSans-Roman-61"/>
      <use x="159.802734375" xlink:href="#BitstreamVeraSans-Roman-63"/>
      <use x="214.783203125" xlink:href="#BitstreamVeraSans-Roman-74"/>
      <use x="253.9921875" xlink:href="#BitstreamVeraSans-Roman-69"/>
      <use x="281.775390625" xlink:href="#BitstreamVeraSans-Roman-6f"/>
      <use x="342.95703125" xlink:href="#BitstreamVeraSans-Roman-6e"/>
      <use x="406.3359375" xlink:href="#BitstreamVeraSans-Roman-20"/>
      <use x="438.123046875" xlink:href="#BitstreamVeraSans-Roman-6f"/>
      <use x="499.3046875" xlink:href="#BitstreamVeraSans-Roman-66"/>
      <use x="534.509765625" xlink:href="#BitstreamVeraSans-Roman-20"/>
      <use x="566.296875" xlink:href="#BitstreamVeraSans-Roman-43"/>
      <use x="636.12109375" xlink:href="#BitstreamVeraSans-Roman-6f"/>
      <use x="697.302734375" xlink:href="#BitstreamVeraSans-Roman-6d"/>
      <use x="794.71484375" xlink:href="#BitstreamVeraSans-Roman-70"/>
      <use x="858.19140625" xlink:href="#BitstreamVeraSans-Roman-6c"/>
      <use x="885.974609375" xlink:href="#BitstreamVeraSans-Roman-65"/>
      <use x="947.498046875" xlink:href="#BitstreamVeraSans-Roman-74"/>
      <use x="986.70703125" xlink:href="#BitstreamVeraSans-Roman-65"/>
      <use x="1048.23046875" xlink:href="#BitstreamVeraSans-Roman-20"/>
      <use x="1080.01757812" xlink:href="#BitstreamVeraSans-Roman-54"/>
      <use x="1140.8828125" xlink:href="#BitstreamVeraSans-Roman-72"/>
      <use x="1181.99609375" xlink:href="#BitstreamVeraSans-Roman-69"/>
      <use x="1209.77929688" xlink:href="#BitstreamVeraSans-Roman-70"/>
      <use x="1273.25585938" xlink:href="#BitstreamVeraSans-Roman-6c"/>
      <use x="1301.0390625" xlink:href="#BitstreamVeraSans-Roman-65"/>
      <use x="1362.5625" xlink:href="#BitstreamVeraSans-Roman-74"/>
      <use x="1401.77148438" xlink:href="#BitstreamVeraSans-Roman-20"/>
      <use x="1433.55859375" xlink:href="#BitstreamVeraSans-Roman-43"/>
      <use x="1503.3828125" xlink:href="#BitstreamVeraSans-Roman-6f"/>
      <use x="1564.56445312" xlink:href="#BitstreamVeraSans-Roman-6d"/>
      <use x="1661.9765625" xlink:href="#BitstreamVeraSans-Roman-70"/>
      <use x="1725.453125" xlink:href="#BitstreamVeraSans-Roman-61"/>
      <use x="1786.73242188" xlink:href="#BitstreamVeraSans-Roman-72"/>
      <use x="1827.84570312" xlink:href="#BitstreamVeraSans-Roman-69"/>
      <use x="1855.62890625" xlink:href="#BitstreamVeraSans-Roman-73"/>
      <use x="1907.72851562" xlink:href="#BitstreamVeraSans-Roman-6f"/>
      <use x="1968.91015625" xlink:href="#BitstreamVeraSans-Roman-6e"/>
      <use x="2032.2890625" xlink:href="#BitstreamVeraSans-Roman-73"/>
     </g>
    </g>
   </g>
   <g id="matplotlib.axis_2">
    <g id="ytick_1">
     <g id="line2d_18">
      <defs>
       <path d="M 0 0 
L 4 0 
" id="m94ccb82272" style="stroke:#000000;stroke-width:0.5;"/>
      </defs>
      <g>
       <use style="stroke:#000000;stroke-width:0.5;" x="216.0" xlink:href="#m94ccb82272" y="827.82"/>
      </g>
     </g>
     <g id="text_7">
      <!-- 0.0 -->
      <g transform="translate(180.19375 833.33875)scale(0.2 -0.2)">
       <use xlink:href="#BitstreamVeraSans-Roman-30"/>
       <use x="63.623046875" xlink:href="#BitstreamVeraSans-Roman-2e"/>
       <use x="95.41015625" xlink:href="#BitstreamVeraSans-Roman-30"/>
      </g>
     </g>
    </g>
    <g id="ytick_2">
     <g id="line2d_19">
      <g>
       <use style="stroke:#000000;stroke-width:0.5;" x="216.0" xlink:href="#m94ccb82272" y="680.652"/>
      </g>
     </g>
     <g id="text_8">
      <!-- 0.2 -->
      <g transform="translate(180.19375 686.17075)scale(0.2 -0.2)">
       <use xlink:href="#BitstreamVeraSans-Roman-30"/>
       <use x="63.623046875" xlink:href="#BitstreamVeraSans-Roman-2e"/>
       <use x="95.41015625" xlink:href="#BitstreamVeraSans-Roman-32"/>
      </g>
     </g>
    </g>
    <g id="ytick_3">
     <g id="line2d_20">
      <g>
       <use style="stroke:#000000;stroke-width:0.5;" x="216.0" xlink:href="#m94ccb82272" y="533.484"/>
      </g>
     </g>
     <g id="text_9">
      <!-- 0.4 -->
      <defs>
       <path d="M 37.796875 64.3125 
L 12.890625 25.390625 
L 37.796875 25.390625 
z
M 35.203125 72.90625 
L 47.609375 72.90625 
L 47.609375 25.390625 
L 58.015625 25.390625 
L 58.015625 17.1875 
L 47.609375 17.1875 
L 47.609375 0 
L 37.796875 0 
L 37.796875 17.1875 
L 4.890625 17.1875 
L 4.890625 26.703125 
z
" id="BitstreamVeraSans-Roman-34"/>
      </defs>
      <g transform="translate(180.19375 539.00275)scale(0.2 -0.2)">
       <use xlink:href="#BitstreamVeraSans-Roman-30"/>
       <use x="63.623046875" xlink:href="#BitstreamVeraSans-Roman-2e"/>
       <use x="95.41015625" xlink:href="#BitstreamVeraSans-Roman-34"/>
      </g>
     </g>
    </g>
    <g id="ytick_4">
     <g id="line2d_21">
      <g>
       <use style="stroke:#000000;stroke-width:0.5;" x="216.0" xlink:href="#m94ccb82272" y="386.316"/>
      </g>
     </g>
     <g id="text_10">
      <!-- 0.6 -->
      <defs>
       <path d="M 33.015625 40.375 
Q 26.375 40.375 22.484375 35.828125 
Q 18.609375 31.296875 18.609375 23.390625 
Q 18.609375 15.53125 22.484375 10.953125 
Q 26.375 6.390625 33.015625 6.390625 
Q 39.65625 6.390625 43.53125 10.953125 
Q 47.40625 15.53125 47.40625 23.390625 
Q 47.40625 31.296875 43.53125 35.828125 
Q 39.65625 40.375 33.015625 40.375 
M 52.59375 71.296875 
L 52.59375 62.3125 
Q 48.875 64.0625 45.09375 64.984375 
Q 41.3125 65.921875 37.59375 65.921875 
Q 27.828125 65.921875 22.671875 59.328125 
Q 17.53125 52.734375 16.796875 39.40625 
Q 19.671875 43.65625 24.015625 45.921875 
Q 28.375 48.1875 33.59375 48.1875 
Q 44.578125 48.1875 50.953125 41.515625 
Q 57.328125 34.859375 57.328125 23.390625 
Q 57.328125 12.15625 50.6875 5.359375 
Q 44.046875 -1.421875 33.015625 -1.421875 
Q 20.359375 -1.421875 13.671875 8.265625 
Q 6.984375 17.96875 6.984375 36.375 
Q 6.984375 53.65625 15.1875 63.9375 
Q 23.390625 74.21875 37.203125 74.21875 
Q 40.921875 74.21875 44.703125 73.484375 
Q 48.484375 72.75 52.59375 71.296875 
" id="BitstreamVeraSans-Roman-36"/>
      </defs>
      <g transform="translate(180.19375 391.83475)scale(0.2 -0.2)">
       <use xlink:href="#BitstreamVeraSans-Roman-30"/>
       <use x="63.623046875" xlink:href="#BitstreamVeraSans-Roman-2e"/>
       <use x="95.41015625" xlink:href="#BitstreamVeraSans-Roman-36"/>
      </g>
     </g>
    </g>
    <g id="ytick_5">
     <g id="line2d_22">
      <g>
       <use style="stroke:#000000;stroke-width:0.5;" x="216.0" xlink:href="#m94ccb82272" y="239.148"/>
      </g>
     </g>
     <g id="text_11">
      <!-- 0.8 -->
      <defs>
       <path d="M 31.78125 34.625 
Q 24.75 34.625 20.71875 30.859375 
Q 16.703125 27.09375 16.703125 20.515625 
Q 16.703125 13.921875 20.71875 10.15625 
Q 24.75 6.390625 31.78125 6.390625 
Q 38.8125 6.390625 42.859375 10.171875 
Q 46.921875 13.96875 46.921875 20.515625 
Q 46.921875 27.09375 42.890625 30.859375 
Q 38.875 34.625 31.78125 34.625 
M 21.921875 38.8125 
Q 15.578125 40.375 12.03125 44.71875 
Q 8.5 49.078125 8.5 55.328125 
Q 8.5 64.0625 14.71875 69.140625 
Q 20.953125 74.21875 31.78125 74.21875 
Q 42.671875 74.21875 48.875 69.140625 
Q 55.078125 64.0625 55.078125 55.328125 
Q 55.078125 49.078125 51.53125 44.71875 
Q 48 40.375 41.703125 38.8125 
Q 48.828125 37.15625 52.796875 32.3125 
Q 56.78125 27.484375 56.78125 20.515625 
Q 56.78125 9.90625 50.3125 4.234375 
Q 43.84375 -1.421875 31.78125 -1.421875 
Q 19.734375 -1.421875 13.25 4.234375 
Q 6.78125 9.90625 6.78125 20.515625 
Q 6.78125 27.484375 10.78125 32.3125 
Q 14.796875 37.15625 21.921875 38.8125 
M 18.3125 54.390625 
Q 18.3125 48.734375 21.84375 45.5625 
Q 25.390625 42.390625 31.78125 42.390625 
Q 38.140625 42.390625 41.71875 45.5625 
Q 45.3125 48.734375 45.3125 54.390625 
Q 45.3125 60.0625 41.71875 63.234375 
Q 38.140625 66.40625 31.78125 66.40625 
Q 25.390625 66.40625 21.84375 63.234375 
Q 18.3125 60.0625 18.3125 54.390625 
" id="BitstreamVeraSans-Roman-38"/>
      </defs>
      <g transform="translate(180.19375 244.66675)scale(0.2 -0.2)">
       <use xlink:href="#BitstreamVeraSans-Roman-30"/>
       <use x="63.623046875" xlink:href="#BitstreamVeraSans-Roman-2e"/>
       <use x="95.41015625" xlink:href="#BitstreamVeraSans-Roman-38"/>
      </g>
     </g>
    </g>
    <g id="ytick_6">
     <g id="line2d_23">
      <g>
       <use style="stroke:#000000;stroke-width:0.5;" x="216.0" xlink:href="#m94ccb82272" y="91.98"/>
      </g>
     </g>
     <g id="text_12">
      <!-- 1.0 -->
      <g transform="translate(180.19375 97.49875)scale(0.2 -0.2)">
       <use xlink:href="#BitstreamVeraSans-Roman-31"/>
       <use x="63.623046875" xlink:href="#BitstreamVeraSans-Roman-2e"/>
       <use x="95.41015625" xlink:href="#BitstreamVeraSans-Roman-30"/>
      </g>
     </g>
    </g>
    <g id="text_13">
     <!-- Pearson Correlation -->
     <defs>
      <path d="M 19.671875 64.796875 
L 19.671875 37.40625 
L 32.078125 37.40625 
Q 38.96875 37.40625 42.71875 40.96875 
Q 46.484375 44.53125 46.484375 51.125 
Q 46.484375 57.671875 42.71875 61.234375 
Q 38.96875 64.796875 32.078125 64.796875 
z
M 9.8125 72.90625 
L 32.078125 72.90625 
Q 44.34375 72.90625 50.609375 67.359375 
Q 56.890625 61.8125 56.890625 51.125 
Q 56.890625 40.328125 50.609375 34.8125 
Q 44.34375 29.296875 32.078125 29.296875 
L 19.671875 29.296875 
L 19.671875 0 
L 9.8125 0 
z
" id="BitstreamVeraSans-Roman-50"/>
     </defs>
     <g transform="translate(170.2025 578.4525)rotate(-90.0)scale(0.24 -0.24)">
      <use xlink:href="#BitstreamVeraSans-Roman-50"/>
      <use x="60.255859375" xlink:href="#BitstreamVeraSans-Roman-65"/>
      <use x="121.779296875" xlink:href="#BitstreamVeraSans-Roman-61"/>
      <use x="183.05859375" xlink:href="#BitstreamVeraSans-Roman-72"/>
      <use x="224.171875" xlink:href="#BitstreamVeraSans-Roman-73"/>
      <use x="276.271484375" xlink:href="#BitstreamVeraSans-Roman-6f"/>
      <use x="337.453125" xlink:href="#BitstreamVeraSans-Roman-6e"/>
      <use x="400.83203125" xlink:href="#BitstreamVeraSans-Roman-20"/>
      <use x="432.619140625" xlink:href="#BitstreamVeraSans-Roman-43"/>
      <use x="502.443359375" xlink:href="#BitstreamVeraSans-Roman-6f"/>
      <use x="563.625" xlink:href="#BitstreamVeraSans-Roman-72"/>
      <use x="604.72265625" xlink:href="#BitstreamVeraSans-Roman-72"/>
      <use x="645.8046875" xlink:href="#BitstreamVeraSans-Roman-65"/>
      <use x="707.328125" xlink:href="#BitstreamVeraSans-Roman-6c"/>
      <use x="735.111328125" xlink:href="#BitstreamVeraSans-Roman-61"/>
      <use x="796.390625" xlink:href="#BitstreamVeraSans-Roman-74"/>
      <use x="835.599609375" xlink:href="#BitstreamVeraSans-Roman-69"/>
      <use x="863.3828125" xlink:href="#BitstreamVeraSans-Roman-6f"/>
      <use x="924.564453125" xlink:href="#BitstreamVeraSans-Roman-6e"/>
     </g>
    </g>
   </g>
   <g id="legend_1">
    <g id="line2d_24">
     <path d="M 1316.16 123.41625 
L 1349.76 123.41625 
" style="fill:none;stroke:#0000ff;stroke-linecap:square;"/>
    </g>
    <g id="line2d_25"/>
    <g id="text_14">
     <!-- 100% Correct -->
     <defs>
      <path d="M 72.703125 32.078125 
Q 68.453125 32.078125 66.03125 28.46875 
Q 63.625 24.859375 63.625 18.40625 
Q 63.625 12.0625 66.03125 8.421875 
Q 68.453125 4.78125 72.703125 4.78125 
Q 76.859375 4.78125 79.265625 8.421875 
Q 81.6875 12.0625 81.6875 18.40625 
Q 81.6875 24.8125 79.265625 28.4375 
Q 76.859375 32.078125 72.703125 32.078125 
M 72.703125 38.28125 
Q 80.421875 38.28125 84.953125 32.90625 
Q 89.5 27.546875 89.5 18.40625 
Q 89.5 9.28125 84.9375 3.921875 
Q 80.375 -1.421875 72.703125 -1.421875 
Q 64.890625 -1.421875 60.34375 3.921875 
Q 55.8125 9.28125 55.8125 18.40625 
Q 55.8125 27.59375 60.375 32.9375 
Q 64.9375 38.28125 72.703125 38.28125 
M 22.3125 68.015625 
Q 18.109375 68.015625 15.6875 64.375 
Q 13.28125 60.75 13.28125 54.390625 
Q 13.28125 47.953125 15.671875 44.328125 
Q 18.0625 40.71875 22.3125 40.71875 
Q 26.5625 40.71875 28.96875 44.328125 
Q 31.390625 47.953125 31.390625 54.390625 
Q 31.390625 60.6875 28.953125 64.34375 
Q 26.515625 68.015625 22.3125 68.015625 
M 66.40625 74.21875 
L 74.21875 74.21875 
L 28.609375 -1.421875 
L 20.796875 -1.421875 
z
M 22.3125 74.21875 
Q 30.03125 74.21875 34.609375 68.875 
Q 39.203125 63.53125 39.203125 54.390625 
Q 39.203125 45.171875 34.640625 39.84375 
Q 30.078125 34.515625 22.3125 34.515625 
Q 14.546875 34.515625 10.03125 39.859375 
Q 5.515625 45.21875 5.515625 54.390625 
Q 5.515625 63.484375 10.046875 68.84375 
Q 14.59375 74.21875 22.3125 74.21875 
" id="BitstreamVeraSans-Roman-25"/>
     </defs>
     <g transform="translate(1376.16 131.81625)scale(0.24 -0.24)">
      <use xlink:href="#BitstreamVeraSans-Roman-31"/>
      <use x="63.623046875" xlink:href="#BitstreamVeraSans-Roman-30"/>
      <use x="127.24609375" xlink:href="#BitstreamVeraSans-Roman-30"/>
      <use x="190.869140625" xlink:href="#BitstreamVeraSans-Roman-25"/>
      <use x="285.888671875" xlink:href="#BitstreamVeraSans-Roman-20"/>
      <use x="317.67578125" xlink:href="#BitstreamVeraSans-Roman-43"/>
      <use x="387.5" xlink:href="#BitstreamVeraSans-Roman-6f"/>
      <use x="448.681640625" xlink:href="#BitstreamVeraSans-Roman-72"/>
      <use x="489.779296875" xlink:href="#BitstreamVeraSans-Roman-72"/>
      <use x="530.861328125" xlink:href="#BitstreamVeraSans-Roman-65"/>
      <use x="592.384765625" xlink:href="#BitstreamVeraSans-Roman-63"/>
      <use x="647.365234375" xlink:href="#BitstreamVeraSans-Roman-74"/>
     </g>
    </g>
    <g id="line2d_26">
     <path d="M 1316.16 158.64375 
L 1349.76 158.64375 
" style="fill:none;stroke:#008000;stroke-linecap:square;"/>
    </g>
    <g id="line2d_27"/>
    <g id="text_15">
     <!-- 99% Correct -->
     <defs>
      <path d="M 10.984375 1.515625 
L 10.984375 10.5 
Q 14.703125 8.734375 18.5 7.8125 
Q 22.3125 6.890625 25.984375 6.890625 
Q 35.75 6.890625 40.890625 13.453125 
Q 46.046875 20.015625 46.78125 33.40625 
Q 43.953125 29.203125 39.59375 26.953125 
Q 35.25 24.703125 29.984375 24.703125 
Q 19.046875 24.703125 12.671875 31.3125 
Q 6.296875 37.9375 6.296875 49.421875 
Q 6.296875 60.640625 12.9375 67.421875 
Q 19.578125 74.21875 30.609375 74.21875 
Q 43.265625 74.21875 49.921875 64.515625 
Q 56.59375 54.828125 56.59375 36.375 
Q 56.59375 19.140625 48.40625 8.859375 
Q 40.234375 -1.421875 26.421875 -1.421875 
Q 22.703125 -1.421875 18.890625 -0.6875 
Q 15.09375 0.046875 10.984375 1.515625 
M 30.609375 32.421875 
Q 37.25 32.421875 41.125 36.953125 
Q 45.015625 41.5 45.015625 49.421875 
Q 45.015625 57.28125 41.125 61.84375 
Q 37.25 66.40625 30.609375 66.40625 
Q 23.96875 66.40625 20.09375 61.84375 
Q 16.21875 57.28125 16.21875 49.421875 
Q 16.21875 41.5 20.09375 36.953125 
Q 23.96875 32.421875 30.609375 32.421875 
" id="BitstreamVeraSans-Roman-39"/>
     </defs>
     <g transform="translate(1376.16 167.04375)scale(0.24 -0.24)">
      <use xlink:href="#BitstreamVeraSans-Roman-39"/>
      <use x="63.623046875" xlink:href="#BitstreamVeraSans-Roman-39"/>
      <use x="127.24609375" xlink:href="#BitstreamVeraSans-Roman-25"/>
      <use x="222.265625" xlink:href="#BitstreamVeraSans-Roman-20"/>
      <use x="254.052734375" xlink:href="#BitstreamVeraSans-Roman-43"/>
      <use x="323.876953125" xlink:href="#BitstreamVeraSans-Roman-6f"/>
      <use x="385.05859375" xlink:href="#BitstreamVeraSans-Roman-72"/>
      <use x="426.15625" xlink:href="#BitstreamVeraSans-Roman-72"/>
      <use x="467.23828125" xlink:href="#BitstreamVeraSans-Roman-65"/>
      <use x="528.76171875" xlink:href="#BitstreamVeraSans-Roman-63"/>
      <use x="583.7421875" xlink:href="#BitstreamVeraSans-Roman-74"/>
     </g>
    </g>
    <g id="line2d_28">
     <path d="M 1316.16 193.87125 
L 1349.76 193.87125 
" style="fill:none;stroke:#ff0000;stroke-linecap:square;"/>
    </g>
    <g id="line2d_29"/>
    <g id="text_16">
     <!-- 98% Correct -->
     <g transform="translate(1376.16 202.27125)scale(0.24 -0.24)">
      <use xlink:href="#BitstreamVeraSans-Roman-39"/>
      <use x="63.623046875" xlink:href="#BitstreamVeraSans-Roman-38"/>
      <use x="127.24609375" xlink:href="#BitstreamVeraSans-Roman-25"/>
      <use x="222.265625" xlink:href="#BitstreamVeraSans-Roman-20"/>
      <use x="254.052734375" xlink:href="#BitstreamVeraSans-Roman-43"/>
      <use x="323.876953125" xlink:href="#BitstreamVeraSans-Roman-6f"/>
      <use x="385.05859375" xlink:href="#BitstreamVeraSans-Roman-72"/>
      <use x="426.15625" xlink:href="#BitstreamVeraSans-Roman-72"/>
      <use x="467.23828125" xlink:href="#BitstreamVeraSans-Roman-65"/>
      <use x="528.76171875" xlink:href="#BitstreamVeraSans-Roman-63"/>
      <use x="583.7421875" xlink:href="#BitstreamVeraSans-Roman-74"/>
     </g>
    </g>
    <g id="line2d_30">
     <path d="M 1316.16 229.09875 
L 1349.76 229.09875 
" style="fill:none;stroke:#00bfbf;stroke-linecap:square;"/>
    </g>
    <g id="line2d_31"/>
    <g id="text_17">
     <!-- 97% Correct -->
     <defs>
      <path d="M 8.203125 72.90625 
L 55.078125 72.90625 
L 55.078125 68.703125 
L 28.609375 0 
L 18.3125 0 
L 43.21875 64.59375 
L 8.203125 64.59375 
z
" id="BitstreamVeraSans-Roman-37"/>
     </defs>
     <g transform="translate(1376.16 237.49875)scale(0.24 -0.24)">
      <use xlink:href="#BitstreamVeraSans-Roman-39"/>
      <use x="63.623046875" xlink:href="#BitstreamVeraSans-Roman-37"/>
      <use x="127.24609375" xlink:href="#BitstreamVeraSans-Roman-25"/>
      <use x="222.265625" xlink:href="#BitstreamVeraSans-Roman-20"/>
      <use x="254.052734375" xlink:href="#BitstreamVeraSans-Roman-43"/>
      <use x="323.876953125" xlink:href="#BitstreamVeraSans-Roman-6f"/>
      <use x="385.05859375" xlink:href="#BitstreamVeraSans-Roman-72"/>
      <use x="426.15625" xlink:href="#BitstreamVeraSans-Roman-72"/>
      <use x="467.23828125" xlink:href="#BitstreamVeraSans-Roman-65"/>
      <use x="528.76171875" xlink:href="#BitstreamVeraSans-Roman-63"/>
      <use x="583.7421875" xlink:href="#BitstreamVeraSans-Roman-74"/>
     </g>
    </g>
    <g id="line2d_32">
     <path d="M 1316.16 264.32625 
L 1349.76 264.32625 
" style="fill:none;stroke:#bf00bf;stroke-linecap:square;"/>
    </g>
    <g id="line2d_33"/>
    <g id="text_18">
     <!-- 96% Correct -->
     <g transform="translate(1376.16 272.72625)scale(0.24 -0.24)">
      <use xlink:href="#BitstreamVeraSans-Roman-39"/>
      <use x="63.623046875" xlink:href="#BitstreamVeraSans-Roman-36"/>
      <use x="127.24609375" xlink:href="#BitstreamVeraSans-Roman-25"/>
      <use x="222.265625" xlink:href="#BitstreamVeraSans-Roman-20"/>
      <use x="254.052734375" xlink:href="#BitstreamVeraSans-Roman-43"/>
      <use x="323.876953125" xlink:href="#BitstreamVeraSans-Roman-6f"/>
      <use x="385.05859375" xlink:href="#BitstreamVeraSans-Roman-72"/>
      <use x="426.15625" xlink:href="#BitstreamVeraSans-Roman-72"/>
      <use x="467.23828125" xlink:href="#BitstreamVeraSans-Roman-65"/>
      <use x="528.76171875" xlink:href="#BitstreamVeraSans-Roman-63"/>
      <use x="583.7421875" xlink:href="#BitstreamVeraSans-Roman-74"/>
     </g>
    </g>
    <g id="line2d_34">
     <path d="M 1316.16 299.55375 
L 1349.76 299.55375 
" style="fill:none;stroke:#bfbf00;stroke-linecap:square;"/>
    </g>
    <g id="line2d_35"/>
    <g id="text_19">
     <!-- 95% Correct -->
     <g transform="translate(1376.16 307.95375)scale(0.24 -0.24)">
      <use xlink:href="#BitstreamVeraSans-Roman-39"/>
      <use x="63.623046875" xlink:href="#BitstreamVeraSans-Roman-35"/>
      <use x="127.24609375" xlink:href="#BitstreamVeraSans-Roman-25"/>
      <use x="222.265625" xlink:href="#BitstreamVeraSans-Roman-20"/>
      <use x="254.052734375" xlink:href="#BitstreamVeraSans-Roman-43"/>
      <use x="323.876953125" xlink:href="#BitstreamVeraSans-Roman-6f"/>
      <use x="385.05859375" xlink:href="#BitstreamVeraSans-Roman-72"/>
      <use x="426.15625" xlink:href="#BitstreamVeraSans-Roman-72"/>
      <use x="467.23828125" xlink:href="#BitstreamVeraSans-Roman-65"/>
      <use x="528.76171875" xlink:href="#BitstreamVeraSans-Roman-63"/>
      <use x="583.7421875" xlink:href="#BitstreamVeraSans-Roman-74"/>
     </g>
    </g>
    <g id="line2d_36">
     <path d="M 1316.16 334.78125 
L 1349.76 334.78125 
" style="fill:none;stroke:#000000;stroke-linecap:square;"/>
    </g>
    <g id="line2d_37"/>
    <g id="text_20">
     <!-- 94% Correct -->
     <g transform="translate(1376.16 343.18125)scale(0.24 -0.24)">
      <use xlink:href="#BitstreamVeraSans-Roman-39"/>
      <use x="63.623046875" xlink:href="#BitstreamVeraSans-Roman-34"/>
      <use x="127.24609375" xlink:href="#BitstreamVeraSans-Roman-25"/>
      <use x="222.265625" xlink:href="#BitstreamVeraSans-Roman-20"/>
      <use x="254.052734375" xlink:href="#BitstreamVeraSans-Roman-43"/>
      <use x="323.876953125" xlink:href="#BitstreamVeraSans-Roman-6f"/>
      <use x="385.05859375" xlink:href="#BitstreamVeraSans-Roman-72"/>
      <use x="426.15625" xlink:href="#BitstreamVeraSans-Roman-72"/>
      <use x="467.23828125" xlink:href="#BitstreamVeraSans-Roman-65"/>
      <use x="528.76171875" xlink:href="#BitstreamVeraSans-Roman-63"/>
      <use x="583.7421875" xlink:href="#BitstreamVeraSans-Roman-74"/>
     </g>
    </g>
    <g id="line2d_38">
     <path d="M 1316.16 370.00875 
L 1349.76 370.00875 
" style="fill:none;stroke:#0000ff;stroke-linecap:square;"/>
    </g>
    <g id="line2d_39"/>
    <g id="text_21">
     <!-- 93% Correct -->
     <defs>
      <path d="M 40.578125 39.3125 
Q 47.65625 37.796875 51.625 33 
Q 55.609375 28.21875 55.609375 21.1875 
Q 55.609375 10.40625 48.1875 4.484375 
Q 40.765625 -1.421875 27.09375 -1.421875 
Q 22.515625 -1.421875 17.65625 -0.515625 
Q 12.796875 0.390625 7.625 2.203125 
L 7.625 11.71875 
Q 11.71875 9.328125 16.59375 8.109375 
Q 21.484375 6.890625 26.8125 6.890625 
Q 36.078125 6.890625 40.9375 10.546875 
Q 45.796875 14.203125 45.796875 21.1875 
Q 45.796875 27.640625 41.28125 31.265625 
Q 36.765625 34.90625 28.71875 34.90625 
L 20.21875 34.90625 
L 20.21875 43.015625 
L 29.109375 43.015625 
Q 36.375 43.015625 40.234375 45.921875 
Q 44.09375 48.828125 44.09375 54.296875 
Q 44.09375 59.90625 40.109375 62.90625 
Q 36.140625 65.921875 28.71875 65.921875 
Q 24.65625 65.921875 20.015625 65.03125 
Q 15.375 64.15625 9.8125 62.3125 
L 9.8125 71.09375 
Q 15.4375 72.65625 20.34375 73.4375 
Q 25.25 74.21875 29.59375 74.21875 
Q 40.828125 74.21875 47.359375 69.109375 
Q 53.90625 64.015625 53.90625 55.328125 
Q 53.90625 49.265625 50.4375 45.09375 
Q 46.96875 40.921875 40.578125 39.3125 
" id="BitstreamVeraSans-Roman-33"/>
     </defs>
     <g transform="translate(1376.16 378.40875)scale(0.24 -0.24)">
      <use xlink:href="#BitstreamVeraSans-Roman-39"/>
      <use x="63.623046875" xlink:href="#BitstreamVeraSans-Roman-33"/>
      <use x="127.24609375" xlink:href="#BitstreamVeraSans-Roman-25"/>
      <use x="222.265625" xlink:href="#BitstreamVeraSans-Roman-20"/>
      <use x="254.052734375" xlink:href="#BitstreamVeraSans-Roman-43"/>
      <use x="323.876953125" xlink:href="#BitstreamVeraSans-Roman-6f"/>
      <use x="385.05859375" xlink:href="#BitstreamVeraSans-Roman-72"/>
      <use x="426.15625" xlink:href="#BitstreamVeraSans-Roman-72"/>
      <use x="467.23828125" xlink:href="#BitstreamVeraSans-Roman-65"/>
      <use x="528.76171875" xlink:href="#BitstreamVeraSans-Roman-63"/>
      <use x="583.7421875" xlink:href="#BitstreamVeraSans-Roman-74"/>
     </g>
    </g>
    <g id="line2d_40">
     <path d="M 1316.16 405.23625 
L 1349.76 405.23625 
" style="fill:none;stroke:#008000;stroke-linecap:square;"/>
    </g>
    <g id="line2d_41"/>
    <g id="text_22">
     <!-- 92% Correct -->
     <g transform="translate(1376.16 413.63625)scale(0.24 -0.24)">
      <use xlink:href="#BitstreamVeraSans-Roman-39"/>
      <use x="63.623046875" xlink:href="#BitstreamVeraSans-Roman-32"/>
      <use x="127.24609375" xlink:href="#BitstreamVeraSans-Roman-25"/>
      <use x="222.265625" xlink:href="#BitstreamVeraSans-Roman-20"/>
      <use x="254.052734375" xlink:href="#BitstreamVeraSans-Roman-43"/>
      <use x="323.876953125" xlink:href="#BitstreamVeraSans-Roman-6f"/>
      <use x="385.05859375" xlink:href="#BitstreamVeraSans-Roman-72"/>
      <use x="426.15625" xlink:href="#BitstreamVeraSans-Roman-72"/>
      <use x="467.23828125" xlink:href="#BitstreamVeraSans-Roman-65"/>
      <use x="528.76171875" xlink:href="#BitstreamVeraSans-Roman-63"/>
      <use x="583.7421875" xlink:href="#BitstreamVeraSans-Roman-74"/>
     </g>
    </g>
    <g id="line2d_42">
     <path d="M 1316.16 440.46375 
L 1349.76 440.46375 
" style="fill:none;stroke:#ff0000;stroke-linecap:square;"/>
    </g>
    <g id="line2d_43"/>
    <g id="text_23">
     <!-- 91% Correct -->
     <g transform="translate(1376.16 448.86375)scale(0.24 -0.24)">
      <use xlink:href="#BitstreamVeraSans-Roman-39"/>
      <use x="63.623046875" xlink:href="#BitstreamVeraSans-Roman-31"/>
      <use x="127.24609375" xlink:href="#BitstreamVeraSans-Roman-25"/>
      <use x="222.265625" xlink:href="#BitstreamVeraSans-Roman-20"/>
      <use x="254.052734375" xlink:href="#BitstreamVeraSans-Roman-43"/>
      <use x="323.876953125" xlink:href="#BitstreamVeraSans-Roman-6f"/>
      <use x="385.05859375" xlink:href="#BitstreamVeraSans-Roman-72"/>
      <use x="426.15625" xlink:href="#BitstreamVeraSans-Roman-72"/>
      <use x="467.23828125" xlink:href="#BitstreamVeraSans-Roman-65"/>
      <use x="528.76171875" xlink:href="#BitstreamVeraSans-Roman-63"/>
      <use x="583.7421875" xlink:href="#BitstreamVeraSans-Roman-74"/>
     </g>
    </g>
    <g id="line2d_44">
     <path d="M 1316.16 475.69125 
L 1349.76 475.69125 
" style="fill:none;stroke:#00bfbf;stroke-linecap:square;"/>
    </g>
    <g id="line2d_45"/>
    <g id="text_24">
     <!-- 90% Correct -->
     <g transform="translate(1376.16 484.09125)scale(0.24 -0.24)">
      <use xlink:href="#BitstreamVeraSans-Roman-39"/>
      <use x="63.623046875" xlink:href="#BitstreamVeraSans-Roman-30"/>
      <use x="127.24609375" xlink:href="#BitstreamVeraSans-Roman-25"/>
      <use x="222.265625" xlink:href="#BitstreamVeraSans-Roman-20"/>
      <use x="254.052734375" xlink:href="#BitstreamVeraSans-Roman-43"/>
      <use x="323.876953125" xlink:href="#BitstreamVeraSans-Roman-6f"/>
      <use x="385.05859375" xlink:href="#BitstreamVeraSans-Roman-72"/>
      <use x="426.15625" xlink:href="#BitstreamVeraSans-Roman-72"/>
      <use x="467.23828125" xlink:href="#BitstreamVeraSans-Roman-65"/>
      <use x="528.76171875" xlink:href="#BitstreamVeraSans-Roman-63"/>
      <use x="583.7421875" xlink:href="#BitstreamVeraSans-Roman-74"/>
     </g>
    </g>
    <g id="line2d_46">
     <path d="M 1316.16 526.85175 
L 1349.76 526.85175 
" style="fill:none;stroke:#000000;stroke-dasharray:6.000000,6.000000;stroke-dashoffset:0.0;"/>
    </g>
    <g id="line2d_47"/>
    <g id="text_25">
     <!-- Fused Annotation -->
     <defs>
      <path d="M 45.40625 46.390625 
L 45.40625 75.984375 
L 54.390625 75.984375 
L 54.390625 0 
L 45.40625 0 
L 45.40625 8.203125 
Q 42.578125 3.328125 38.25 0.953125 
Q 33.9375 -1.421875 27.875 -1.421875 
Q 17.96875 -1.421875 11.734375 6.484375 
Q 5.515625 14.40625 5.515625 27.296875 
Q 5.515625 40.1875 11.734375 48.09375 
Q 17.96875 56 27.875 56 
Q 33.9375 56 38.25 53.625 
Q 42.578125 51.265625 45.40625 46.390625 
M 14.796875 27.296875 
Q 14.796875 17.390625 18.875 11.75 
Q 22.953125 6.109375 30.078125 6.109375 
Q 37.203125 6.109375 41.296875 11.75 
Q 45.40625 17.390625 45.40625 27.296875 
Q 45.40625 37.203125 41.296875 42.84375 
Q 37.203125 48.484375 30.078125 48.484375 
Q 22.953125 48.484375 18.875 42.84375 
Q 14.796875 37.203125 14.796875 27.296875 
" id="BitstreamVeraSans-Roman-64"/>
      <path d="M 8.5 21.578125 
L 8.5 54.6875 
L 17.484375 54.6875 
L 17.484375 21.921875 
Q 17.484375 14.15625 20.5 10.265625 
Q 23.53125 6.390625 29.59375 6.390625 
Q 36.859375 6.390625 41.078125 11.03125 
Q 45.3125 15.671875 45.3125 23.6875 
L 45.3125 54.6875 
L 54.296875 54.6875 
L 54.296875 0 
L 45.3125 0 
L 45.3125 8.40625 
Q 42.046875 3.421875 37.71875 1 
Q 33.40625 -1.421875 27.6875 -1.421875 
Q 18.265625 -1.421875 13.375 4.4375 
Q 8.5 10.296875 8.5 21.578125 
" id="BitstreamVeraSans-Roman-75"/>
      <path d="M 34.1875 63.1875 
L 20.796875 26.90625 
L 47.609375 26.90625 
z
M 28.609375 72.90625 
L 39.796875 72.90625 
L 67.578125 0 
L 57.328125 0 
L 50.6875 18.703125 
L 17.828125 18.703125 
L 11.1875 0 
L 0.78125 0 
z
" id="BitstreamVeraSans-Roman-41"/>
     </defs>
     <g transform="translate(1376.16 519.31875)scale(0.24 -0.24)">
      <use xlink:href="#BitstreamVeraSans-Roman-46"/>
      <use x="57.44140625" xlink:href="#BitstreamVeraSans-Roman-75"/>
      <use x="120.8203125" xlink:href="#BitstreamVeraSans-Roman-73"/>
      <use x="172.919921875" xlink:href="#BitstreamVeraSans-Roman-65"/>
      <use x="234.443359375" xlink:href="#BitstreamVeraSans-Roman-64"/>
      <use x="297.919921875" xlink:href="#BitstreamVeraSans-Roman-20"/>
      <use x="329.70703125" xlink:href="#BitstreamVeraSans-Roman-41"/>
      <use x="398.115234375" xlink:href="#BitstreamVeraSans-Roman-6e"/>
      <use x="461.494140625" xlink:href="#BitstreamVeraSans-Roman-6e"/>
      <use x="524.873046875" xlink:href="#BitstreamVeraSans-Roman-6f"/>
      <use x="586.0546875" xlink:href="#BitstreamVeraSans-Roman-74"/>
      <use x="625.263671875" xlink:href="#BitstreamVeraSans-Roman-61"/>
      <use x="686.54296875" xlink:href="#BitstreamVeraSans-Roman-74"/>
      <use x="725.751953125" xlink:href="#BitstreamVeraSans-Roman-69"/>
      <use x="753.53515625" xlink:href="#BitstreamVeraSans-Roman-6f"/>
      <use x="814.716796875" xlink:href="#BitstreamVeraSans-Roman-6e"/>
     </g>
     <!-- Correlation -->
     <g transform="translate(1376.16 546.1935)scale(0.24 -0.24)">
      <use xlink:href="#BitstreamVeraSans-Roman-43"/>
      <use x="69.82421875" xlink:href="#BitstreamVeraSans-Roman-6f"/>
      <use x="131.005859375" xlink:href="#BitstreamVeraSans-Roman-72"/>
      <use x="172.103515625" xlink:href="#BitstreamVeraSans-Roman-72"/>
      <use x="213.185546875" xlink:href="#BitstreamVeraSans-Roman-65"/>
      <use x="274.708984375" xlink:href="#BitstreamVeraSans-Roman-6c"/>
      <use x="302.4921875" xlink:href="#BitstreamVeraSans-Roman-61"/>
      <use x="363.771484375" xlink:href="#BitstreamVeraSans-Roman-74"/>
      <use x="402.98046875" xlink:href="#BitstreamVeraSans-Roman-69"/>
      <use x="430.763671875" xlink:href="#BitstreamVeraSans-Roman-6f"/>
      <use x="491.9453125" xlink:href="#BitstreamVeraSans-Roman-6e"/>
     </g>
    </g>
   </g>
  </g>
 </g>
 <defs>
  <clipPath id="p4b3a5f4508">
   <rect height="735.84" width="1071.36" x="216.0" y="91.98"/>
  </clipPath>
 </defs>
</svg>
