<?xml version="1.0" encoding="utf-8" standalone="no"?>
<!DOCTYPE svg PUBLIC "-//W3C//DTD SVG 1.1//EN"
  "http://www.w3.org/Graphics/SVG/1.1/DTD/svg11.dtd">
<!-- Created with matplotlib (http://matplotlib.org/) -->
<svg height="919pt" version="1.1" viewBox="0 0 1728 919" width="1728pt" xmlns="http://www.w3.org/2000/svg" xmlns:xlink="http://www.w3.org/1999/xlink">
 <defs>
  <style type="text/css">
*{stroke-linecap:butt;stroke-linejoin:round;stroke-miterlimit:100000;}
  </style>
 </defs>
 <g id="figure_1">
  <g id="patch_1">
   <path d="M 0 919.8 
L 1728 919.8 
L 1728 0 
L 0 0 
z
" style="fill:#ffffff;"/>
  </g>
  <g id="axes_1">
   <g id="patch_2">
    <path d="M 216 827.82 
L 1287.36 827.82 
L 1287.36 91.98 
L 216 91.98 
z
" style="fill:#ffffff;"/>
   </g>
   <g id="line2d_1">
    <path clip-path="url(#pfdff49c95e)" d="M 216 527.818032 
L 221.952 527.773882 
L 222.07104 527.244077 
L 222.19008 527.244077 
L 222.66624 525.110141 
L 222.90432 525.110141 
L 223.1424 524.050531 
L 223.26144 524.050531 
L 223.7376 521.38679 
L 224.3328 518.884934 
L 224.57088 518.745125 
L 249.45024 518.752483 
L 249.9264 521.38679 
L 250.28352 521.38679 
L 250.40256 521.923954 
L 250.64064 521.923954 
L 250.75968 522.453758 
L 250.87872 522.453758 
L 250.99776 522.983563 
L 251.35488 522.983563 
L 251.47392 523.417709 
L 251.59296 523.417709 
L 252.54528 528.84085 
L 253.14048 534.81587 
L 253.25952 536.221325 
L 253.4976 543.550291 
L 254.21184 548.52457 
L 254.33088 548.52457 
L 254.56896 549.392861 
L 254.688 549.584179 
L 255.04512 551.710757 
L 255.2832 554.374498 
L 255.40224 554.374498 
L 255.64032 555.176563 
L 255.8784 555.176563 
L 256.35456 559.900656 
L 256.4736 561.821198 
L 256.59264 561.821198 
L 256.71168 563.947776 
L 256.83072 563.947776 
L 257.18784 566.611517 
L 257.30688 567.141322 
L 257.42592 568.20829 
L 257.664 568.20829 
L 257.78304 568.738094 
L 257.90208 568.738094 
L 258.2592 571.122216 
L 258.37824 571.93164 
L 258.49728 571.93164 
L 258.73536 573.528413 
L 259.09248 575.117827 
L 259.21152 575.117827 
L 259.33056 576.184795 
L 259.4496 576.184795 
L 259.56864 576.7146 
L 259.68768 577.781568 
L 259.80672 577.781568 
L 259.92576 578.311373 
L 260.0448 578.311373 
L 260.16384 579.378341 
L 260.28288 579.378341 
L 260.52096 580.43795 
L 260.75904 582.571886 
L 260.99712 584.698464 
L 261.11616 584.698464 
L 261.47328 587.354846 
L 261.71136 588.421814 
L 261.8304 588.421814 
L 261.94944 589.488782 
L 262.30656 589.488782 
L 262.4256 590.548392 
L 262.54464 590.548392 
L 262.66368 591.078197 
L 263.0208 593.741938 
L 263.13984 594.271742 
L 263.25888 594.271742 
L 263.37792 594.801547 
L 263.616 597.104726 
L 263.85408 597.995093 
L 264.2112 601.990704 
L 264.33024 602.520509 
L 264.68736 605.441794 
L 265.16352 607.973083 
L 265.4016 609.702307 
L 265.87776 614.904696 
L 266.47296 619.275586 
L 266.94912 621.733291 
L 267.30624 627.11964 
L 267.42528 627.384542 
L 267.7824 630.445637 
L 267.90144 630.9828 
L 268.02048 630.9828 
L 268.25856 633.109378 
L 268.61568 635.478782 
L 268.85376 637.09763 
L 268.9728 637.09763 
L 269.44896 638.959306 
L 269.568 638.959306 
L 269.80608 641.085883 
L 269.92512 641.085883 
L 270.1632 642.152851 
L 270.40128 644.279429 
L 270.52032 644.279429 
L 270.7584 645.346397 
L 270.87744 646.94317 
L 270.99648 646.94317 
L 271.11552 647.31109 
L 271.3536 649.967472 
L 271.47264 650.66652 
L 271.82976 654.662131 
L 271.9488 655.191936 
L 272.42496 659.709994 
L 272.544 660.239798 
L 272.78208 660.239798 
L 272.90112 660.769603 
L 273.02016 660.769603 
L 273.25824 661.65997 
L 273.49632 661.65997 
L 273.7344 663.1758 
L 273.85344 663.1758 
L 274.09152 663.433344 
L 274.21056 663.433344 
L 274.44864 664.500312 
L 274.68672 665.957275 
L 274.80576 666.48708 
L 274.9248 666.48708 
L 275.04384 667.156694 
L 275.28192 667.156694 
L 275.63904 667.686499 
L 275.75808 667.686499 
L 275.99616 669.283272 
L 276.23424 669.283272 
L 276.47232 669.548174 
L 276.7104 669.548174 
L 276.82944 669.813077 
L 277.06752 670.880045 
L 277.18656 670.880045 
L 277.3056 671.947013 
L 277.42464 671.947013 
L 277.78176 673.271525 
L 277.9008 673.271525 
L 278.25792 675.670363 
L 278.37696 676.200168 
L 278.496 677.267136 
L 278.61504 677.267136 
L 279.0912 679.658616 
L 279.44832 683.646869 
L 279.80544 683.646869 
L 280.16256 685.515902 
L 280.51968 687.774931 
L 280.63872 687.774931 
L 280.8768 688.069267 
L 280.99584 689.504155 
L 281.11488 689.504155 
L 281.472 693.227506 
L 281.71008 700.137043 
L 281.82912 700.674206 
L 281.94816 700.674206 
L 282.18624 701.608723 
L 282.90048 708.93769 
L 283.13856 710.262202 
L 283.49568 710.262202 
L 283.61472 710.666914 
L 283.8528 713.44103 
L 283.97184 713.44103 
L 284.32896 716.097413 
L 284.56704 716.097413 
L 284.80512 717.959088 
L 286.35264 734.191718 
L 287.06688 738.444874 
L 287.424 739.511842 
L 287.54304 739.776744 
L 287.90016 741.49861 
L 288.0192 742.028414 
L 288.13824 742.028414 
L 288.25728 742.962931 
L 288.37632 742.962931 
L 288.6144 743.764997 
L 288.73344 743.764997 
L 289.2096 745.604597 
L 295.63776 745.604597 
L 295.87584 741.800304 
L 296.23296 731.218925 
L 296.59008 728.06953 
L 296.70912 726.031253 
L 297.30432 701.373254 
L 297.78048 683.646869 
L 298.37568 667.649707 
L 299.9232 599.606582 
L 300.16128 579.238531 
L 300.75648 516.714206 
L 300.99456 505.168877 
L 301.7088 459.097934 
L 302.54208 436.434062 
L 302.8992 425.874758 
L 303.13728 419.730494 
L 303.61344 404.704642 
L 304.32768 389.686147 
L 304.80384 376.742722 
L 305.04192 372.165797 
L 305.39904 364.983998 
L 305.99424 354.586579 
L 306.23232 350.635118 
L 306.70848 347.029502 
L 306.82752 346.492339 
L 306.94656 346.492339 
L 307.0656 344.755757 
L 307.18464 344.755757 
L 307.54176 340.671845 
L 307.77984 338.913187 
L 307.89888 337.853578 
L 308.01792 337.853578 
L 308.13696 337.316414 
L 308.37504 335.719642 
L 308.49408 335.454739 
L 308.61312 334.660032 
L 308.73216 334.660032 
L 308.8512 333.857966 
L 309.08928 333.857966 
L 309.32736 331.621013 
L 309.68448 328.802746 
L 310.87488 313.180862 
L 310.99392 313.180862 
L 311.11296 312.430306 
L 311.232 312.430306 
L 311.58912 309.921091 
L 311.70816 309.119026 
L 311.94624 309.119026 
L 312.30336 307.294142 
L 312.4224 306.035856 
L 312.54144 306.035856 
L 312.77952 304.336066 
L 312.89856 304.336066 
L 313.0176 303.798902 
L 313.25568 303.798902 
L 313.49376 303.585509 
L 315.63648 303.534 
L 315.87456 303.269098 
L 316.11264 303.269098 
L 316.5888 301.289688 
L 316.70784 301.289688 
L 316.94592 300.075552 
L 317.184 299.398579 
L 323.7312 299.398579 
L 323.85024 298.905566 
L 332.54016 298.905566 
L 332.6592 299.781216 
L 332.89728 299.781216 
L 333.2544 302.01817 
L 333.37344 302.01817 
L 333.49248 303.269098 
L 333.61152 303.269098 
L 333.73056 303.798902 
L 333.8496 303.798902 
L 334.20672 306.992448 
L 334.32576 306.992448 
L 334.68288 308.949782 
L 335.39712 320.068325 
L 335.51616 320.988125 
L 335.75424 324.586382 
L 335.99232 327.897662 
L 336.2304 330.561403 
L 336.46848 333.84325 
L 336.58752 335.189837 
L 337.18272 348.861744 
L 337.65888 360.083304 
L 339.2064 394.218922 
L 340.15872 412.327944 
L 340.992 436.161802 
L 341.94432 485.139312 
L 342.1824 503.998891 
L 342.65856 520.05492 
L 343.61088 558.752746 
L 343.968 585.110534 
L 344.44416 610.489656 
L 345.1584 638.216107 
L 345.51552 655.721741 
L 345.63456 656.906443 
L 345.87264 661.306766 
L 345.99168 662.793163 
L 352.53888 662.793163 
L 352.65792 662.366376 
L 352.77696 662.366376 
L 353.4912 654.919675 
L 353.96736 651.314059 
L 354.20544 651.314059 
L 354.32448 651.196325 
L 354.44352 650.66652 
L 354.56256 650.66652 
L 354.91968 649.724645 
L 362.65728 649.724645 
L 362.89536 649.599552 
L 363.0144 648.539942 
L 363.13344 648.539942 
L 363.25248 646.94317 
L 363.37152 646.94317 
L 363.49056 646.472232 
L 364.32384 646.406006 
L 364.44288 645.876202 
L 364.68096 644.279429 
L 365.03808 642.483979 
L 365.51424 637.230082 
L 365.63328 637.230082 
L 365.9904 634.70615 
L 366.34752 631.262419 
L 366.46656 631.262419 
L 366.82368 628.319059 
L 367.06176 627.25945 
L 367.29984 625.662677 
L 367.41888 625.662677 
L 367.53792 624.595709 
L 367.65696 624.595709 
L 367.776 624.330806 
L 368.3712 618.215976 
L 368.84736 611.549266 
L 368.9664 611.019461 
L 369.79968 600.739776 
L 370.03776 598.171694 
L 370.99008 587.34013 
L 371.58528 582.034723 
L 371.70432 581.504918 
L 371.9424 579.378341 
L 372.29952 574.889717 
L 372.41856 572.99125 
L 372.5376 572.99125 
L 372.65664 571.394477 
L 372.89472 571.394477 
L 373.1328 570.334867 
L 373.25184 570.334867 
L 373.37088 569.422426 
L 373.728 554.036011 
L 374.08512 547.722504 
L 374.44224 547.722504 
L 374.68032 546.927797 
L 374.79936 546.927797 
L 375.03744 545.088197 
L 375.15648 545.088197 
L 375.39456 543.734251 
L 375.63264 543.734251 
L 375.75168 543.204446 
L 375.87072 543.204446 
L 376.1088 542.137478 
L 376.22784 542.137478 
L 376.34688 541.607674 
L 376.46592 541.607674 
L 376.58496 541.07051 
L 376.82304 541.07051 
L 377.06112 538.303752 
L 377.8944 527.244077 
L 379.20384 519.149837 
L 379.44192 519.149837 
L 379.91808 517.273445 
L 380.15616 517.133635 
L 382.77504 517.126277 
L 383.13216 515.801765 
L 383.2512 515.801765 
L 383.60832 515.183659 
L 400.27392 515.176301 
L 400.512 517.133635 
L 400.75008 519.260213 
L 400.98816 521.38679 
L 401.1072 521.38679 
L 401.34528 523.520726 
L 401.46432 524.050531 
L 401.58336 524.050531 
L 401.82144 524.955614 
L 401.94048 524.955614 
L 402.05952 525.110141 
L 402.41664 526.971816 
L 402.53568 526.971816 
L 402.65472 528.303686 
L 402.77376 528.303686 
L 403.24992 530.702525 
L 403.36896 531.762134 
L 403.488 531.762134 
L 403.60704 532.954195 
L 403.72608 532.954195 
L 404.0832 535.080773 
L 404.6784 540.540706 
L 404.79744 541.07051 
L 405.15456 544.793861 
L 405.2736 545.331024 
L 405.39264 546.670253 
L 405.51168 546.670253 
L 405.63072 546.817421 
L 405.74976 547.487035 
L 405.8688 547.487035 
L 406.10688 551.431138 
L 406.34496 551.975659 
L 406.464 552.512822 
L 406.82112 558.075773 
L 406.94016 559.400285 
L 407.77344 577.001578 
L 408.60672 592.329125 
L 409.91616 617.936357 
L 410.39232 624.50005 
L 411.10656 638.260258 
L 411.46368 643.08001 
L 411.58272 643.609814 
L 412.17792 653.021208 
L 412.416 658.378123 
L 412.77312 665.287661 
L 412.89216 666.07501 
L 413.48736 675.986774 
L 414.08256 681.454066 
L 414.32064 686.1708 
L 414.43968 686.1708 
L 414.67776 689.658682 
L 415.03488 691.630733 
L 415.15392 692.690342 
L 415.27296 692.690342 
L 415.51104 693.75731 
L 415.86816 696.413693 
L 416.34432 698.547629 
L 416.46336 698.547629 
L 416.70144 699.342336 
L 416.82048 699.342336 
L 417.05856 700.674206 
L 417.1776 701.498347 
L 417.29664 701.498347 
L 417.65376 702.68305 
L 417.7728 704.132654 
L 417.89184 704.132654 
L 418.01088 704.662459 
L 418.12992 706.126781 
L 418.24896 706.126781 
L 418.60608 710.247485 
L 418.72512 710.77729 
L 419.43936 717.973805 
L 419.91552 725.383714 
L 420.27264 730.527235 
L 420.51072 735.14831 
L 420.86784 746.539114 
L 421.10592 750.571517 
L 421.22496 750.571517 
L 421.70112 757.064569 
L 422.05824 761.04252 
L 422.89152 773.556215 
L 423.1296 777.280301 
L 423.24864 778.344326 
L 423.36768 778.344326 
L 423.48672 779.408351 
L 423.60576 779.408351 
L 424.08192 782.843988 
L 424.43904 783.664449 
L 424.67712 785.260486 
L 424.79616 785.260486 
L 425.15328 786.058137 
L 425.74848 790.579873 
L 426.46272 796.432009 
L 426.81984 798.028046 
L 426.93888 798.028046 
L 427.05792 798.29442 
L 427.296 800.407752 
L 427.53408 801.22012 
L 427.65312 801.22012 
L 427.8912 802.933155 
L 434.79552 802.933155 
L 435.15264 794.972838 
L 435.50976 784.728474 
L 435.6288 782.068412 
L 435.74784 782.068412 
L 436.70016 772.606981 
L 437.17632 765.842404 
L 437.29536 765.310392 
L 437.77152 758.394232 
L 437.89056 758.248536 
L 438.36672 750.681893 
L 438.6048 748.76135 
L 438.84288 744.235934 
L 438.96192 743.15425 
L 439.2 738.194688 
L 439.43808 736.333013 
L 440.03328 729.121781 
L 440.15232 728.187264 
L 440.3904 722.675822 
L 440.50944 721.49112 
L 440.86656 715.037803 
L 441.10464 713.176128 
L 441.81888 702.86701 
L 441.93792 701.961926 
L 442.53312 690.159053 
L 442.7712 686.840414 
L 443.00928 684.184032 
L 443.72352 666.884434 
L 444.43776 646.545816 
L 445.27104 629.179992 
L 446.58048 587.619749 
L 446.81856 582.167174 
L 447.41376 563.638723 
L 447.65184 551.821133 
L 448.00896 529.745933 
L 448.48512 508.855435 
L 448.84224 481.364453 
L 449.08032 474.042845 
L 450.03264 453.189139 
L 450.27072 447.39072 
L 450.5088 443.608502 
L 452.05632 389.009174 
L 452.2944 382.541141 
L 453.24672 360.664618 
L 453.36576 360.134813 
L 453.96096 354.512995 
L 454.08 354.512995 
L 455.38944 332.467229 
L 455.98464 323.489981 
L 456.10368 322.952818 
L 456.34176 320.546621 
L 456.57984 319.258901 
L 456.81792 316.742328 
L 462.05568 316.742328 
L 462.29376 317.632694 
L 462.88896 323.791675 
L 463.96032 334.785125 
L 464.07936 334.785125 
L 464.1984 335.189837 
L 464.31744 335.189837 
L 464.43648 335.719642 
L 464.55552 336.78661 
L 464.67456 336.78661 
L 465.15072 338.846962 
L 465.26976 338.846962 
L 465.3888 339.442992 
L 465.50784 339.442992 
L 465.74592 339.862421 
L 466.34112 346.359888 
L 466.46016 346.897051 
L 466.5792 347.956661 
L 466.81728 347.956661 
L 467.05536 350.362858 
L 468.12672 355.403362 
L 468.48384 358.067102 
L 468.72192 359.266522 
L 469.5552 367.309253 
L 469.67424 367.309253 
L 469.79328 369.104702 
L 469.91232 369.104702 
L 470.03136 370.039219 
L 470.26944 372.960504 
L 470.50752 375.697829 
L 470.7456 377.750822 
L 471.45984 384.98413 
L 471.81696 389.877466 
L 473.00736 400.25281 
L 473.48352 407.677435 
L 474.3168 419.671627 
L 475.38816 446.183942 
L 475.86432 467.920656 
L 477.41184 505.426421 
L 478.72128 526.515595 
L 479.6736 548.52457 
L 479.79264 549.054374 
L 480.38784 561.291394 
L 480.62592 563.417971 
L 481.4592 574.911792 
L 481.69728 578.69401 
L 481.81632 579.760978 
L 482.29248 587.089944 
L 482.53056 590.805936 
L 483.95904 618.745781 
L 484.31616 621.939326 
L 484.4352 624.595709 
L 484.55424 624.595709 
L 485.14944 635.971795 
L 485.38752 638.252899 
L 485.50656 638.790062 
L 485.98272 643.219819 
L 486.2208 643.315478 
L 487.53024 654.919675 
L 487.64928 654.919675 
L 487.88736 655.640798 
L 488.12544 657.450965 
L 488.24448 657.450965 
L 488.48256 659.687918 
L 489.55392 672.476818 
L 489.792 676.09715 
L 490.62528 691.542432 
L 491.5776 701.527781 
L 492.1728 705.729427 
L 492.41088 708.650712 
L 492.88704 713.853101 
L 493.12512 715.037803 
L 493.48224 719.290958 
L 493.72032 721.807531 
L 493.9584 723.794299 
L 494.91072 735.781133 
L 497.17248 751.211698 
L 497.5296 751.211698 
L 497.64864 751.741502 
L 497.76768 751.741502 
L 497.88672 752.278666 
L 498.95808 752.344891 
L 499.07712 752.80847 
L 499.19616 752.80847 
L 499.3152 753.338275 
L 499.43424 753.338275 
L 499.9104 755.379495 
L 500.02944 755.379495 
L 500.26752 756.000544 
L 500.86272 756.000544 
L 500.98176 756.532557 
L 501.33888 756.532557 
L 501.45792 757.064569 
L 501.696 757.064569 
L 502.17216 761.101387 
L 502.41024 761.203669 
L 502.64832 761.203669 
L 502.8864 761.320668 
L 503.36256 761.320668 
L 503.60064 762.915969 
L 503.83872 762.915969 
L 503.95776 763.447981 
L 504.0768 763.447981 
L 504.31488 764.98 
L 504.672 767.278764 
L 511.2192 767.376631 
L 511.69536 774.088227 
L 511.8144 774.088227 
L 511.93344 775.152252 
L 512.17152 775.152252 
L 512.4096 776.216277 
L 512.52864 776.216277 
L 512.64768 776.565065 
L 512.76672 776.565065 
L 512.88576 776.748289 
L 513.0048 777.280301 
L 513.24288 777.280301 
L 513.48096 777.888105 
L 515.74272 777.893992 
L 516.21888 781.004388 
L 516.45696 782.068412 
L 516.69504 783.40249 
L 523.95648 783.40249 
L 524.07552 782.849138 
L 524.43264 777.392149 
L 524.55168 777.392149 
L 525.38496 763.447981 
L 528.36096 692.035445 
L 528.83712 677.20091 
L 530.38464 639.224208 
L 530.8608 623.904019 
L 530.97984 623.138746 
L 531.33696 612.962078 
L 531.69408 599.062061 
L 531.81312 597.27397 
L 532.40832 578.900045 
L 532.76544 568.02433 
L 533.00352 562.078742 
L 533.95584 535.73567 
L 534.432 521.313206 
L 534.90816 510.746544 
L 535.14624 502.093066 
L 535.38432 492.041491 
L 535.86048 475.639618 
L 536.2176 467.552736 
L 536.8128 455.25685 
L 537.16992 450.370872 
L 538.12224 438.398755 
L 539.1936 430.701869 
L 539.43168 426.691541 
L 539.55072 426.183811 
L 539.7888 424.564963 
L 539.90784 424.322136 
L 540.14592 422.96819 
L 540.26496 421.886506 
L 540.74112 421.783488 
L 540.9792 421.709904 
L 541.69344 421.709904 
L 541.93152 421.548019 
L 542.05056 421.548019 
L 542.52672 417.383165 
L 542.64576 416.85336 
L 542.7648 416.85336 
L 543.00288 415.52149 
L 543.12192 415.52149 
L 543.83616 409.671562 
L 543.9552 409.134398 
L 544.31232 409.134398 
L 544.66944 408.332333 
L 545.02656 406.404432 
L 545.1456 406.404432 
L 545.38368 404.881243 
L 545.7408 404.881243 
L 546.09792 402.224861 
L 547.05024 398.148307 
L 547.88352 398.08944 
L 548.1216 397.434542 
L 548.83584 397.434542 
L 548.95488 396.904738 
L 549.07392 396.904738 
L 549.43104 395.83777 
L 549.66912 394.726651 
L 550.02624 394.726651 
L 550.26432 394.505899 
L 585.26208 394.417598 
L 585.38112 395.307965 
L 585.50016 395.307965 
L 585.6192 396.367574 
L 585.73824 396.367574 
L 585.97632 397.434542 
L 586.2144 399.031315 
L 586.33344 399.031315 
L 586.45248 399.56112 
L 586.69056 399.56112 
L 586.8096 400.090925 
L 588.11904 400.090925 
L 588.5952 400.996008 
L 591.92832 400.996008 
L 592.04736 401.157893 
L 592.28544 402.224861 
L 592.40448 402.224861 
L 592.52352 402.754666 
L 593.47584 402.754666 
L 593.59488 403.28447 
L 593.952 403.28447 
L 594.07104 403.821634 
L 594.66624 403.821634 
L 594.78528 404.351438 
L 595.26144 404.351438 
L 595.38048 404.881243 
L 595.61856 404.881243 
L 596.21376 406.478016 
L 596.3328 406.478016 
L 596.45184 407.007821 
L 596.928 407.007821 
L 597.04704 407.544984 
L 597.5232 407.544984 
L 597.64224 408.015922 
L 615.73632 408.126298 
L 617.87904 408.148373 
L 627.04512 408.185165 
L 627.16416 408.604594 
L 627.2832 408.604594 
L 627.52128 408.832704 
L 628.11648 408.832704 
L 628.35456 409.178549 
L 631.33056 409.178549 
L 631.4496 409.671562 
L 631.68768 409.671562 
L 631.92576 409.81873 
L 632.52096 409.81873 
L 632.75904 410.054198 
L 635.73504 410.054198 
L 635.85408 410.201366 
L 635.97312 410.613437 
L 636.44928 414.454522 
L 636.68736 415.52149 
L 637.04448 421.643678 
L 637.28256 424.734206 
L 637.52064 425.631931 
L 637.75872 427.493606 
L 637.87776 427.493606 
L 638.11584 428.825477 
L 638.23488 428.825477 
L 638.35392 429.355282 
L 638.47296 429.355282 
L 638.592 429.885086 
L 638.71104 429.885086 
L 638.83008 430.414891 
L 639.1872 430.414891 
L 639.30624 430.952054 
L 640.61568 430.952054 
L 641.44896 434.675405 
L 641.568 434.675405 
L 641.68704 435.072758 
L 642.04416 435.072758 
L 642.28224 435.20521 
L 642.40128 435.735014 
L 642.63936 435.735014 
L 642.7584 436.257461 
L 662.04288 436.257461 
L 662.16192 435.735014 
L 662.63808 435.735014 
L 662.75712 434.991816 
L 673.35168 435.102192 
L 676.44672 435.183134 
L 680.256 435.29351 
L 685.0176 435.47747 
L 687.75552 435.587846 
L 694.30272 435.882182 
L 697.15968 435.933691 
L 697.39776 436.12501 
L 701.32608 436.235386 
L 706.20672 436.426704 
L 710.84928 436.485571 
L 711.08736 436.618022 
L 717.87264 436.625381 
L 718.22976 437.140469 
L 726.80064 437.155186 
L 726.91968 437.331787 
L 727.03872 438.001402 
L 727.15776 438.001402 
L 727.75296 446.419411 
L 728.11008 459.053784 
L 728.70528 472.615315 
L 729.30048 489.031906 
L 729.53856 495.455789 
L 730.13376 514.197634 
L 730.60992 535.500202 
L 731.32416 576.228946 
L 731.68128 609.165144 
L 732.27648 646.486949 
L 733.2288 695.773512 
L 735.0144 752.698094 
L 735.37152 769.716602 
L 736.56192 795.473945 
L 737.03808 808.628557 
L 737.27616 815.034044 
L 737.51424 819.663949 
L 744.89472 819.663949 
L 745.37088 816.647741 
L 745.48992 816.647741 
L 745.84704 815.051704 
L 746.08512 813.596949 
L 746.20416 813.596949 
L 746.3232 812.392379 
L 746.68032 812.392379 
L 747.5136 805.476218 
L 747.63264 805.476218 
L 747.87072 802.816157 
L 747.98976 802.816157 
L 748.46592 798.560058 
L 748.58496 798.560058 
L 748.704 797.496034 
L 748.82304 797.496034 
L 749.65632 789.072137 
L 750.01344 784.196461 
L 751.0848 771.136037 
L 751.20384 770.604025 
L 751.68 764.904208 
L 751.79904 764.372196 
L 752.63232 753.308842 
L 752.8704 748.724558 
L 753.10848 744.831965 
L 753.70368 736.583198 
L 754.656 725.67805 
L 755.37024 713.44103 
L 755.48928 712.374062 
L 756.20352 698.562346 
L 756.32256 697.480661 
L 757.15584 682.911029 
L 757.632 668.091211 
L 757.98912 662.903539 
L 758.10816 662.101474 
L 758.8224 653.300827 
L 758.94144 653.058 
L 759.89376 639.496469 
L 760.25088 632.307312 
L 760.36992 630.717898 
L 760.608 625.853995 
L 760.84608 621.343296 
L 762.15552 605.978957 
L 762.51264 602.520509 
L 763.22688 595.868515 
L 763.34592 594.00684 
L 763.46496 594.00684 
L 763.584 592.145165 
L 763.70304 592.145165 
L 763.94112 589.584442 
L 764.06016 589.047278 
L 764.29824 587.774275 
L 764.41728 586.714666 
L 764.7744 580.34965 
L 765.13152 577.362139 
L 765.25056 577.089878 
L 765.84576 568.730736 
L 765.9648 565.485682 
L 766.32192 546.927797 
L 766.44096 546.390634 
L 766.91712 540.665798 
L 767.03616 540.135994 
L 767.27424 537.104333 
L 767.39328 536.574528 
L 767.86944 530.430264 
L 767.98848 530.430264 
L 768.3456 526.096166 
L 768.46464 525.566362 
L 768.9408 520.856986 
L 769.05984 520.856986 
L 769.17888 518.730408 
L 769.29792 518.730408 
L 769.89312 514.087258 
L 770.01216 513.550094 
L 770.25024 510.761261 
L 770.36928 510.231456 
L 770.60736 507.560357 
L 770.84544 504.896616 
L 770.96448 504.896616 
L 771.3216 501.70307 
L 771.44064 501.70307 
L 771.67872 500.106298 
L 771.79776 499.86347 
L 772.15488 495.323338 
L 773.1072 491.062824 
L 773.34528 488.406442 
L 773.58336 487.339474 
L 773.7024 487.339474 
L 773.94048 485.212896 
L 774.17856 484.153286 
L 774.77376 475.102454 
L 775.01184 472.710974 
L 775.36896 468.369518 
L 775.72608 464.999371 
L 775.96416 464.771261 
L 776.32128 464.712394 
L 776.44032 463.983912 
L 776.55936 462.387139 
L 776.6784 462.33563 
L 776.79744 461.011118 
L 776.91648 461.011118 
L 777.15456 460.738858 
L 777.39264 459.414346 
L 777.63072 458.61228 
L 777.74976 456.919848 
L 777.98784 456.860981 
L 778.10688 454.837421 
L 778.34496 454.837421 
L 779.53536 447.442229 
L 779.6544 447.442229 
L 779.77344 446.912424 
L 780.01152 446.912424 
L 780.36864 445.065466 
L 780.48768 444.248683 
L 780.8448 440.481182 
L 781.32096 438.92856 
L 781.44 438.92856 
L 781.91616 437.096318 
L 789.29664 437.096318 
L 789.65376 441.45985 
L 789.7728 441.45985 
L 789.89184 442.65191 
L 790.01088 442.65191 
L 791.91552 463.07147 
L 792.27264 484.153286 
L 792.51072 485.212896 
L 792.7488 487.604376 
L 792.86784 487.604376 
L 793.10592 489.466051 
L 793.22496 489.466051 
L 793.344 490.003214 
L 793.58208 491.806022 
L 793.70112 491.806022 
L 793.9392 493.726565 
L 794.05824 494.786174 
L 794.29632 497.714818 
L 794.41536 498.516883 
L 794.5344 498.516883 
L 794.89152 501.70307 
L 795.1296 504.896616 
L 795.48672 508.090162 
L 795.60576 508.619966 
L 796.32 515.007058 
L 796.55808 515.007058 
L 797.39136 518.21532 
L 797.5104 518.730408 
L 797.74848 518.730408 
L 797.98656 520.327181 
L 798.1056 520.856986 
L 798.34368 520.856986 
L 798.46272 521.38679 
L 798.58176 521.38679 
L 798.81984 522.836395 
L 799.17696 525.2058 
L 799.41504 527.133701 
L 800.01024 533.094005 
L 800.36736 537.884323 
L 801.0816 551.423779 
L 801.20064 551.953584 
L 801.55776 556.125797 
L 803.58144 601.931837 
L 803.70048 602.88107 
L 803.93856 609.172502 
L 804.29568 618.598613 
L 804.77184 632.609006 
L 805.00992 636.141038 
L 805.36704 643.617173 
L 805.60512 645.876202 
L 805.8432 649.849738 
L 807.6288 678.95221 
L 807.98592 685.707221 
L 808.8192 696.413693 
L 808.93824 696.950856 
L 809.29536 700.674206 
L 809.77152 707.583744 
L 810.0096 712.24897 
L 810.48576 718.496251 
L 810.6048 718.496251 
L 810.96192 723.720715 
L 811.2 727.304256 
L 811.91424 741.373517 
L 812.50944 746.958542 
L 812.62848 747.488347 
L 812.86656 750.269822 
L 812.9856 750.269822 
L 813.34272 752.278666 
L 813.69984 756.262503 
L 813.81888 757.064569 
L 814.05696 759.724631 
L 814.29504 760.522281 
L 815.9616 776.216277 
L 816.19968 778.332552 
L 816.43776 779.408351 
L 816.5568 779.408351 
L 817.50912 783.235454 
L 817.86624 783.672543 
L 818.22336 785.582784 
L 823.46112 785.582784 
L 823.58016 784.478288 
L 823.81824 780.194228 
L 824.05632 777.263377 
L 824.2944 773.822589 
L 824.41344 772.758564 
L 825.24672 757.596581 
L 825.4848 751.932821 
L 825.72288 744.464045 
L 825.84192 743.79443 
L 826.31808 737.113003 
L 826.43712 736.71565 
L 826.6752 734.073984 
L 827.03232 729.268949 
L 827.2704 725.140886 
L 827.8656 712.101802 
L 828.57984 700.188552 
L 829.17504 679.54824 
L 829.53216 671.851354 
L 830.8416 630.769406 
L 831.19872 624.860611 
L 831.31776 623.801002 
L 831.67488 617.943715 
L 831.79392 616.77373 
L 832.98432 590.548392 
L 833.34144 573.535771 
L 833.69856 564.654182 
L 835.72224 510.621451 
L 836.31744 492.586013 
L 836.7936 481.09955 
L 837.86496 462.961094 
L 837.984 461.746958 
L 838.81728 442.784362 
L 839.29344 432.151474 
L 840.12672 418.170514 
L 840.3648 413.806982 
L 840.60288 411.01079 
L 841.5552 394.770802 
L 841.91232 387.324101 
L 842.03136 385.602235 
L 842.26944 379.715515 
L 842.38848 378.81779 
L 842.62656 374.616144 
L 843.10272 358.979544 
L 843.69792 351.488693 
L 844.41216 338.795453 
L 844.65024 335.697566 
L 844.76928 334.630598 
L 845.24544 326.146363 
L 845.36448 325.616558 
L 845.60256 323.747525 
L 845.7216 322.916026 
L 851.43552 322.916026 
L 851.6736 323.129419 
L 851.79264 323.129419 
L 851.91168 323.489981 
L 852.03072 323.489981 
L 852.2688 324.54959 
L 852.38784 324.54959 
L 852.50688 325.079395 
L 852.62592 325.079395 
L 852.74496 325.491466 
L 854.29248 325.491466 
L 854.41152 325.866744 
L 854.6496 329.339909 
L 854.88768 330.399518 
L 855.00672 330.399518 
L 855.60192 335.042669 
L 855.84 337.441507 
L 856.07808 341.120707 
L 856.67328 347.956661 
L 856.79232 348.493824 
L 856.91136 349.553434 
L 857.0304 349.553434 
L 857.50656 354.343752 
L 859.88736 392.114419 
L 860.36352 396.772286 
L 860.48256 397.434542 
L 862.26816 422.69593 
L 862.50624 429.244906 
L 862.86336 441.893995 
L 863.22048 454.88893 
L 864.41088 484.153286 
L 865.83936 511.526534 
L 867.1488 540.231653 
L 867.38688 544.087454 
L 867.62496 549.554746 
L 867.744 550.481904 
L 868.10112 557.384083 
L 868.3392 559.510661 
L 868.57728 564.470222 
L 868.81536 568.738094 
L 869.05344 570.864672 
L 869.17248 571.394477 
L 869.88672 581.769821 
L 870.1248 587.671258 
L 870.60096 599.223946 
L 872.14848 624.595709 
L 872.74368 637.362533 
L 872.86272 637.899696 
L 873.33888 646.141104 
L 874.05312 653.322902 
L 874.17216 653.9778 
L 874.2912 655.604006 
L 874.41024 655.604006 
L 875.24352 663.433344 
L 875.36256 663.433344 
L 875.95776 667.686499 
L 876.31488 671.910221 
L 877.14816 680.961053 
L 877.2672 681.490858 
L 877.50528 684.184032 
L 878.10048 688.966992 
L 878.33856 689.886792 
L 878.57664 691.895635 
L 878.81472 695.883888 
L 878.93376 696.685954 
L 879.17184 699.607238 
L 879.29088 699.607238 
L 879.52896 701.733816 
L 879.648 701.733816 
L 879.88608 703.065686 
L 880.12416 704.647742 
L 880.36224 705.192264 
L 880.71936 707.856005 
L 880.8384 708.38581 
L 880.95744 708.38581 
L 881.19552 710.77729 
L 881.31456 711.844258 
L 881.4336 711.844258 
L 881.79072 715.413082 
L 881.90976 717.694186 
L 882.0288 717.694186 
L 882.624 722.911291 
L 882.98112 726.480115 
L 883.2192 727.539725 
L 883.69536 729.4014 
L 883.8144 730.998173 
L 883.93344 730.998173 
L 884.29056 733.522104 
L 884.4096 734.191718 
L 884.52864 734.191718 
L 884.76672 735.251328 
L 884.88576 735.251328 
L 885.12384 737.326397 
L 885.24288 737.377906 
L 885.36192 738.974678 
L 885.6 739.062979 
L 886.07616 739.062979 
L 886.1952 739.511842 
L 886.31424 739.511842 
L 886.55232 741.020314 
L 886.67136 741.410309 
L 887.26656 741.410309 
L 887.50464 741.638419 
L 887.62368 741.638419 
L 887.74272 742.168224 
L 888.21888 742.168224 
L 888.576 744.088766 
L 888.69504 745.560446 
L 896.67072 745.560446 
L 896.78976 746.149118 
L 896.9088 747.488347 
L 897.02784 747.488347 
L 897.504 752.558285 
L 897.74208 753.625253 
L 897.86112 755.326515 
L 897.98016 755.326515 
L 898.33728 759.724631 
L 898.45632 759.724631 
L 898.81344 762.65033 
L 899.05152 762.65033 
L 899.2896 763.130834 
L 912.86016 763.130834 
L 912.9792 762.631199 
L 913.09824 761.320668 
L 913.21728 761.320668 
L 913.5744 756.000544 
L 913.69344 756.000544 
L 913.81248 755.188177 
L 915.00288 730.431576 
L 916.43136 680.269363 
L 916.66944 674.35321 
L 919.05024 608.524963 
L 919.28832 598.068677 
L 919.76448 589.805194 
L 921.312 546.743837 
L 921.9072 518.252112 
L 922.85952 499.098197 
L 924.288 475.102454 
L 924.64512 464.234098 
L 925.12128 456.485702 
L 925.71648 450.805018 
L 925.95456 447.773357 
L 926.0736 447.773357 
L 926.31168 445.683571 
L 926.6688 443.718878 
L 926.78784 442.65191 
L 926.90688 442.65191 
L 927.14496 441.055138 
L 927.264 441.055138 
L 927.74016 436.132368 
L 928.69248 425.631931 
L 928.81152 425.094768 
L 928.93056 423.505354 
L 929.0496 423.505354 
L 929.16864 422.96819 
L 929.6448 418.854845 
L 929.76384 418.32504 
L 929.88288 418.32504 
L 930.12096 416.684117 
L 930.24 416.154312 
L 930.47808 414.454522 
L 930.59712 413.924717 
L 930.71616 413.924717 
L 930.8352 413.394912 
L 930.95424 413.394912 
L 931.19232 412.327944 
L 931.31136 412.327944 
L 931.4304 411.93059 
L 931.78752 407.478758 
L 931.90656 406.948954 
L 932.0256 406.948954 
L 933.09696 385.462426 
L 933.216 385.462426 
L 933.57312 380.340979 
L 933.93024 372.938429 
L 934.28736 358.560115 
L 934.52544 352.482077 
L 934.76352 350.370216 
L 935.12064 342.57767 
L 935.5968 323.489981 
L 935.71584 322.423013 
L 936.07296 317.632694 
L 936.43008 313.629725 
L 936.7872 307.227917 
L 937.02528 301.451573 
L 937.3824 296.977666 
L 937.73952 289.560398 
L 937.9776 281.569176 
L 941.5488 281.569176 
L 942.02496 293.857704 
L 942.50112 310.701082 
L 943.21536 345.29292 
L 943.57248 360.451224 
L 944.04864 375.145949 
L 944.64384 403.46843 
L 945.35808 451.739534 
L 946.66752 533.057213 
L 947.14368 555.066187 
L 947.5008 567.37679 
L 948.33408 595.33871 
L 948.57216 598.988477 
L 948.6912 601.91712 
L 948.92928 602.064288 
L 952.38144 602.064288 
L 953.21472 582.299626 
L 953.57184 573.609355 
L 954.40512 559.83443 
L 954.88128 558.097848 
L 955.47648 548.929282 
L 956.07168 532.807027 
L 956.30976 525.993149 
L 957.50016 498.85537 
L 957.73824 489.679445 
L 957.85728 488.767003 
L 958.33344 478.296 
L 958.8096 464.933146 
L 960.23808 436.868208 
L 960.83328 424.035158 
L 961.07136 421.503869 
L 961.1904 421.503869 
L 961.66656 417.007886 
L 962.976 402.224861 
L 963.09504 399.781872 
L 963.21408 399.781872 
L 963.92832 393.784776 
L 964.1664 389.185776 
L 964.64256 382.533782 
L 964.88064 381.474173 
L 964.99968 381.474173 
L 965.23776 378.81779 
L 965.3568 378.81779 
L 965.71392 376.15405 
L 965.83296 375.800846 
L 972.61824 375.800846 
L 972.85632 377.971574 
L 973.0944 381.452098 
L 973.80864 403.821634 
L 974.04672 410.804755 
L 974.40384 421.319909 
L 974.99904 435.072758 
L 975.11808 436.132368 
L 975.4752 441.158155 
L 975.71328 444.778488 
L 976.90368 471.246653 
L 977.37984 486.662501 
L 977.49888 488.575685 
L 978.80832 531.497232 
L 978.92736 532.188922 
L 979.28448 538.701106 
L 979.99872 553.182437 
L 980.35584 571.97579 
L 980.59392 585.662414 
L 980.95104 593.462318 
L 981.07008 594.801547 
L 982.6176 627.25945 
L 982.85568 628.856222 
L 983.09376 632.954851 
L 983.2128 632.954851 
L 983.56992 640.291176 
L 983.68896 640.820981 
L 984.04608 646.729776 
L 984.28416 648.002779 
L 984.52224 651.196325 
L 984.87936 656.78135 
L 986.54592 677.75279 
L 989.1648 677.75279 
L 989.40288 668.245738 
L 989.99808 632.579573 
L 990.71232 612.520574 
L 991.18848 586.920701 
L 992.25984 542.31408 
L 992.37888 540.069768 
L 992.85504 525.448627 
L 994.16448 489.201149 
L 994.64064 479.098066 
L 994.87872 474.830194 
L 994.99776 474.307747 
L 995.35488 470.481379 
L 995.95008 459.679248 
L 996.42624 455.860238 
L 1004.99712 455.860238 
L 1005.35424 452.762352 
L 1005.47328 452.762352 
L 1005.59232 451.695384 
L 1005.71136 451.695384 
L 1005.94944 450.635774 
L 1006.06848 450.635774 
L 1006.54464 447.972034 
L 1006.78272 447.71449 
L 1008.44928 447.71449 
L 1008.68736 447.442229 
L 1008.8064 447.442229 
L 1008.92544 446.912424 
L 1009.28256 446.912424 
L 1009.52064 445.315651 
L 1009.63968 444.778488 
L 1009.75872 444.778488 
L 1010.11584 443.189074 
L 1032.6144 443.189074 
L 1032.85248 444.248683 
L 1032.97152 444.248683 
L 1033.09056 444.778488 
L 1033.2096 444.778488 
L 1033.32864 445.315651 
L 1033.44768 445.315651 
L 1033.68576 446.375261 
L 1034.04288 446.375261 
L 1034.28096 446.640163 
L 1034.4 446.640163 
L 1034.51904 447.339211 
L 1034.9952 447.442229 
L 1035.23328 448.509197 
L 1035.47136 448.509197 
L 1035.94752 450.768226 
L 1036.54272 454.88893 
L 1036.66176 455.418734 
L 1037.49504 462.33563 
L 1037.61408 462.33563 
L 1037.73312 462.600533 
L 1037.9712 464.462208 
L 1038.09024 464.999371 
L 1038.32832 468.479894 
L 1038.44736 468.479894 
L 1038.80448 470.584397 
L 1038.92352 470.584397 
L 1039.28064 471.916267 
L 1039.39968 471.916267 
L 1039.63776 472.975877 
L 1039.87584 472.975877 
L 1039.99488 473.866243 
L 1040.23296 473.866243 
L 1040.59008 474.778685 
L 1041.18528 479.488061 
L 1041.5424 482.556514 
L 1041.78048 482.821416 
L 1042.01856 485.212896 
L 1042.1376 485.742701 
L 1042.37568 487.339474 
L 1042.49472 487.339474 
L 1042.61376 487.876637 
L 1042.7328 489.466051 
L 1042.97088 489.466051 
L 1043.08992 490.533019 
L 1043.20896 490.533019 
L 1043.44704 491.599987 
L 1043.56608 491.599987 
L 1043.68512 492.659597 
L 1044.04224 497.97972 
L 1045.94688 514.249142 
L 1046.06592 514.249142 
L 1046.66112 521.923954 
L 1046.78016 522.821678 
L 1047.13728 526.500878 
L 1047.37536 526.765781 
L 1047.61344 530.010835 
L 1047.73248 530.010835 
L 1047.97056 532.027037 
L 1048.0896 532.027037 
L 1048.32768 532.291939 
L 1048.44672 532.291939 
L 1048.6848 533.094005 
L 1048.92288 533.888712 
L 1049.04192 533.888712 
L 1049.16096 535.220582 
L 1049.28 535.220582 
L 1049.51808 536.28755 
L 1049.63712 536.28755 
L 1049.99424 538.723181 
L 1050.11328 538.723181 
L 1050.70848 541.607674 
L 1050.94656 543.41784 
L 1051.30368 548.24495 
L 1051.89888 551.953584 
L 1052.01792 551.953584 
L 1052.37504 552.777725 
L 1052.97024 552.777725 
L 1053.08928 553.30753 
L 1054.0416 553.39583 
L 1054.27968 554.470157 
L 1054.51776 555.956554 
L 1055.94624 556.06693 
L 1056.30336 558.097848 
L 1056.66048 561.291394 
L 1056.77952 561.291394 
L 1056.89856 561.821198 
L 1057.0176 561.821198 
L 1057.13664 563.682874 
L 1057.49376 572.218618 
L 1057.85088 578.120054 
L 1058.44608 585.802224 
L 1059.27936 598.532256 
L 1059.3984 599.062061 
L 1059.75552 602.255606 
L 1059.87456 604.661803 
L 1059.9936 604.661803 
L 1060.23168 608.635339 
L 1060.35072 609.172502 
L 1060.5888 611.961336 
L 1060.70784 611.961336 
L 1060.82688 612.469066 
L 1061.184 617.156366 
L 1061.42208 621.7848 
L 1061.7792 629.65093 
L 1062.01728 634.213138 
L 1062.25536 641.380219 
L 1062.9696 648.539942 
L 1063.08864 648.539942 
L 1063.44576 651.72613 
L 1063.68384 653.587805 
L 1064.04096 660.379608 
L 1064.7552 666.501797 
L 1064.87424 666.501797 
L 1065.46944 671.947013 
L 1065.58848 672.476818 
L 1065.82656 674.07359 
L 1065.9456 674.507736 
L 1066.30272 674.603395 
L 1066.65984 676.016208 
L 1067.49312 682.050096 
L 1067.61216 682.763861 
L 1067.85024 682.763861 
L 1068.08832 683.646869 
L 1068.44544 685.103832 
L 1068.56448 685.243642 
L 1068.68352 685.773446 
L 1068.9216 687.370219 
L 1069.27872 688.966992 
L 1069.39776 690.03396 
L 1069.5168 690.03396 
L 1069.75488 692.690342 
L 1069.99296 693.75731 
L 1070.112 693.75731 
L 1070.46912 696.708029 
L 1070.58816 696.708029 
L 1070.82624 698.547629 
L 1070.94528 699.342336 
L 1071.42144 705.457166 
L 1071.8976 711.314453 
L 1072.01664 711.844258 
L 1072.61184 717.863429 
L 1077.13536 717.863429 
L 1077.61152 712.374062 
L 1077.73056 711.012758 
L 1077.96864 703.838318 
L 1078.4448 680.688792 
L 1080.11136 604.713312 
L 1080.2304 600.062803 
L 1080.8256 559.275192 
L 1081.77792 525.06599 
L 1082.13504 512.534635 
L 1082.49216 502.188725 
L 1083.8016 449.671824 
L 1084.15872 440.797594 
L 1084.87296 420.068981 
L 1085.34912 407.250648 
L 1085.94432 368.986968 
L 1086.42048 341.84183 
L 1087.01568 320.936616 
L 1087.13472 317.912314 
L 1087.25376 317.912314 
L 1087.49184 314.174246 
L 1087.968 309.288269 
L 1088.32512 304.968888 
L 1088.68224 303.269098 
L 1088.80128 303.018912 
L 1089.51552 295.822397 
L 1089.63456 294.225624 
L 1089.7536 294.225624 
L 1089.99168 292.614134 
L 1090.22976 284.843664 
L 1090.3488 283.66632 
L 1090.46784 283.66632 
L 1090.70592 281.708986 
L 1091.18208 278.118086 
L 1091.42016 276.212261 
L 1092.96768 269.781019 
L 1093.3248 266.057669 
L 1093.44384 266.057669 
L 1093.56288 264.67429 
L 1093.80096 264.67429 
L 1094.03904 263.850149 
L 1094.27712 263.850149 
L 1094.39616 263.349778 
L 1110.70464 263.349778 
L 1110.94272 263.607322 
L 1111.06176 263.607322 
L 1111.29984 265.204094 
L 1112.13312 265.204094 
L 1112.25216 265.733899 
L 1113.44256 265.733899 
L 1113.5616 266.271062 
L 1113.68064 266.271062 
L 1113.91872 267.330672 
L 1114.03776 267.330672 
L 1114.27584 268.662542 
L 1115.10912 274.28436 
L 1115.58528 282.761237 
L 1116.29952 290.870194 
L 1116.41856 291.76056 
L 1117.1328 310.48033 
L 1119.98976 399.347726 
L 1120.58496 413.468496 
L 1122.25152 480.304843 
L 1122.60864 491.592629 
L 1123.56096 521.541317 
L 1123.68 523.41035 
L 1124.2752 540.10656 
L 1124.98944 558.340675 
L 1125.4656 572.454086 
L 1126.29888 592.145165 
L 1127.37024 616.619203 
L 1127.48928 616.619203 
L 1128.20352 626.192482 
L 1128.67968 630.224885 
L 1128.91776 633.756917 
L 1129.15584 636.442733 
L 1137.60768 636.442733 
L 1137.72672 636.302923 
L 1137.84576 635.76576 
L 1138.20288 633.109378 
L 1138.91712 633.109378 
L 1139.1552 632.425046 
L 1141.536 632.425046 
L 1141.77408 632.277878 
L 1144.03584 632.174861 
L 1144.512 626.369083 
L 1144.63104 626.170406 
L 1144.75008 625.633243 
L 1144.98816 621.64499 
L 1145.22624 618.215976 
L 1145.58336 615.552235 
L 1145.94048 615.552235 
L 1146.17856 614.492626 
L 1146.2976 614.492626 
L 1146.53568 613.425658 
L 1146.77376 613.425658 
L 1147.24992 610.761917 
L 1147.488 610.23947 
L 1148.20224 605.176891 
L 1148.55936 601.571275 
L 1148.6784 600.931094 
L 1148.91648 598.672066 
L 1149.03552 598.142261 
L 1149.8688 590.548392 
L 1150.10688 590.268773 
L 1150.34496 588.149554 
L 1150.58304 587.89201 
L 1150.70208 587.89201 
L 1150.94016 585.618264 
L 1151.17824 585.073742 
L 1151.29728 585.073742 
L 1151.6544 583.101691 
L 1151.77344 583.101691 
L 1151.89248 582.571886 
L 1152.2496 579.017779 
L 1152.36864 578.848536 
L 1152.60672 577.847794 
L 1154.0352 577.847794 
L 1155.10656 569.334125 
L 1158.43968 569.334125 
L 1158.43968 569.334125 
" style="fill:none;stroke:#000000;stroke-dasharray:3.000000,5.000000,1.000000,5.000000;stroke-dashoffset:0.0;"/>
   </g>
   <g id="line2d_2">
    <path clip-path="url(#pfdff49c95e)" d="M 216 527.818032 
L 222.19008 527.244077 
" style="fill:none;stroke:#008000;stroke-linecap:square;"/>
    <defs>
     <path d="M 0 3 
C 0.795609 3 1.55874 2.683901 2.12132 2.12132 
C 2.683901 1.55874 3 0.795609 3 0 
C 3 -0.795609 2.683901 -1.55874 2.12132 -2.12132 
C 1.55874 -2.683901 0.795609 -3 0 -3 
C -0.795609 -3 -1.55874 -2.683901 -2.12132 -2.12132 
C -2.683901 -1.55874 -3 -0.795609 -3 0 
C -3 0.795609 -2.683901 1.55874 -2.12132 2.12132 
C -1.55874 2.683901 -0.795609 3 0 3 
z
" id="m8531c7ac9c" style="stroke:#000000;stroke-width:0.5;"/>
    </defs>
    <g clip-path="url(#pfdff49c95e)">
     <use style="fill:#008000;stroke:#000000;stroke-width:0.5;" x="216.0" xlink:href="#m8531c7ac9c" y="527.818032"/>
     <use style="fill:#008000;stroke:#000000;stroke-width:0.5;" x="222.19008" xlink:href="#m8531c7ac9c" y="527.2440768"/>
    </g>
   </g>
   <g id="line2d_3">
    <path clip-path="url(#pfdff49c95e)" d="M 224.45184 518.745125 
L 249.45024 518.752483 
" style="fill:none;stroke:#008000;stroke-linecap:square;"/>
    <g clip-path="url(#pfdff49c95e)">
     <use style="fill:#008000;stroke:#000000;stroke-width:0.5;" x="224.45184" xlink:href="#m8531c7ac9c" y="518.7451248"/>
     <use style="fill:#008000;stroke:#000000;stroke-width:0.5;" x="249.45024" xlink:href="#m8531c7ac9c" y="518.7524832"/>
    </g>
   </g>
   <g id="line2d_4">
    <path clip-path="url(#pfdff49c95e)" d="M 288.97152 745.104226 
L 295.63776 745.604597 
" style="fill:none;stroke:#008000;stroke-linecap:square;"/>
    <g clip-path="url(#pfdff49c95e)">
     <use style="fill:#008000;stroke:#000000;stroke-width:0.5;" x="288.97152" xlink:href="#m8531c7ac9c" y="745.1042256"/>
     <use style="fill:#008000;stroke:#000000;stroke-width:0.5;" x="295.63776" xlink:href="#m8531c7ac9c" y="745.6045968"/>
    </g>
   </g>
   <g id="line2d_5">
    <path clip-path="url(#pfdff49c95e)" d="M 313.13664 303.798902 
L 316.11264 303.269098 
" style="fill:none;stroke:#008000;stroke-linecap:square;"/>
    <g clip-path="url(#pfdff49c95e)">
     <use style="fill:#008000;stroke:#000000;stroke-width:0.5;" x="313.13664" xlink:href="#m8531c7ac9c" y="303.7989024"/>
     <use style="fill:#008000;stroke:#000000;stroke-width:0.5;" x="316.11264" xlink:href="#m8531c7ac9c" y="303.2690976"/>
    </g>
   </g>
   <g id="line2d_6">
    <path clip-path="url(#pfdff49c95e)" d="M 316.5888 301.289688 
L 323.7312 299.398579 
" style="fill:none;stroke:#008000;stroke-linecap:square;"/>
    <g clip-path="url(#pfdff49c95e)">
     <use style="fill:#008000;stroke:#000000;stroke-width:0.5;" x="316.5888" xlink:href="#m8531c7ac9c" y="301.289688"/>
     <use style="fill:#008000;stroke:#000000;stroke-width:0.5;" x="323.7312" xlink:href="#m8531c7ac9c" y="299.3985792"/>
    </g>
   </g>
   <g id="line2d_7">
    <path clip-path="url(#pfdff49c95e)" d="M 323.96928 298.905566 
L 332.89728 299.781216 
" style="fill:none;stroke:#008000;stroke-linecap:square;"/>
    <g clip-path="url(#pfdff49c95e)">
     <use style="fill:#008000;stroke:#000000;stroke-width:0.5;" x="323.96928" xlink:href="#m8531c7ac9c" y="298.9055664"/>
     <use style="fill:#008000;stroke:#000000;stroke-width:0.5;" x="332.89728" xlink:href="#m8531c7ac9c" y="299.781216"/>
    </g>
   </g>
   <g id="line2d_8">
    <path clip-path="url(#pfdff49c95e)" d="M 345.87264 661.306766 
L 352.896 660.916771 
" style="fill:none;stroke:#008000;stroke-linecap:square;"/>
    <g clip-path="url(#pfdff49c95e)">
     <use style="fill:#008000;stroke:#000000;stroke-width:0.5;" x="345.87264" xlink:href="#m8531c7ac9c" y="661.3067664"/>
     <use style="fill:#008000;stroke:#000000;stroke-width:0.5;" x="352.896" xlink:href="#m8531c7ac9c" y="660.9167712"/>
    </g>
   </g>
   <g id="line2d_9">
    <path clip-path="url(#pfdff49c95e)" d="M 353.96736 651.314059 
L 362.89536 649.599552 
" style="fill:none;stroke:#008000;stroke-linecap:square;"/>
    <g clip-path="url(#pfdff49c95e)">
     <use style="fill:#008000;stroke:#000000;stroke-width:0.5;" x="353.96736" xlink:href="#m8531c7ac9c" y="651.3140592"/>
     <use style="fill:#008000;stroke:#000000;stroke-width:0.5;" x="362.89536" xlink:href="#m8531c7ac9c" y="649.599552"/>
    </g>
   </g>
   <g id="line2d_10">
    <path clip-path="url(#pfdff49c95e)" d="M 379.32288 519.149837 
L 382.77504 517.126277 
" style="fill:none;stroke:#008000;stroke-linecap:square;"/>
    <g clip-path="url(#pfdff49c95e)">
     <use style="fill:#008000;stroke:#000000;stroke-width:0.5;" x="379.32288" xlink:href="#m8531c7ac9c" y="519.1498368"/>
     <use style="fill:#008000;stroke:#000000;stroke-width:0.5;" x="382.77504" xlink:href="#m8531c7ac9c" y="517.1262768"/>
    </g>
   </g>
   <g id="line2d_11">
    <path clip-path="url(#pfdff49c95e)" d="M 383.01312 516.066667 
L 400.39296 516.066667 
" style="fill:none;stroke:#008000;stroke-linecap:square;"/>
    <g clip-path="url(#pfdff49c95e)">
     <use style="fill:#008000;stroke:#000000;stroke-width:0.5;" x="383.01312" xlink:href="#m8531c7ac9c" y="516.0666672"/>
     <use style="fill:#008000;stroke:#000000;stroke-width:0.5;" x="400.39296" xlink:href="#m8531c7ac9c" y="516.0666672"/>
    </g>
   </g>
   <g id="line2d_12">
    <path clip-path="url(#pfdff49c95e)" d="M 427.8912 802.933155 
L 434.79552 802.933155 
" style="fill:none;stroke:#008000;stroke-linecap:square;"/>
    <g clip-path="url(#pfdff49c95e)">
     <use style="fill:#008000;stroke:#000000;stroke-width:0.5;" x="427.8912" xlink:href="#m8531c7ac9c" y="802.93315536"/>
     <use style="fill:#008000;stroke:#000000;stroke-width:0.5;" x="434.79552" xlink:href="#m8531c7ac9c" y="802.93315536"/>
    </g>
   </g>
   <g id="line2d_13">
    <path clip-path="url(#pfdff49c95e)" d="M 456.81792 316.742328 
L 462.05568 316.742328 
" style="fill:none;stroke:#008000;stroke-linecap:square;"/>
    <g clip-path="url(#pfdff49c95e)">
     <use style="fill:#008000;stroke:#000000;stroke-width:0.5;" x="456.81792" xlink:href="#m8531c7ac9c" y="316.742328"/>
     <use style="fill:#008000;stroke:#000000;stroke-width:0.5;" x="462.05568" xlink:href="#m8531c7ac9c" y="316.742328"/>
    </g>
   </g>
   <g id="line2d_14">
    <path clip-path="url(#pfdff49c95e)" d="M 497.17248 751.211698 
L 499.43424 753.338275 
" style="fill:none;stroke:#008000;stroke-linecap:square;"/>
    <g clip-path="url(#pfdff49c95e)">
     <use style="fill:#008000;stroke:#000000;stroke-width:0.5;" x="497.17248" xlink:href="#m8531c7ac9c" y="751.2116976"/>
     <use style="fill:#008000;stroke:#000000;stroke-width:0.5;" x="499.43424" xlink:href="#m8531c7ac9c" y="753.3382752"/>
    </g>
   </g>
   <g id="line2d_15">
    <path clip-path="url(#pfdff49c95e)" d="M 504.55296 767.278764 
L 511.10016 767.278764 
" style="fill:none;stroke:#008000;stroke-linecap:square;"/>
    <g clip-path="url(#pfdff49c95e)">
     <use style="fill:#008000;stroke:#000000;stroke-width:0.5;" x="504.55296" xlink:href="#m8531c7ac9c" y="767.278764"/>
     <use style="fill:#008000;stroke:#000000;stroke-width:0.5;" x="511.10016" xlink:href="#m8531c7ac9c" y="767.278764"/>
    </g>
   </g>
   <g id="line2d_16">
    <path clip-path="url(#pfdff49c95e)" d="M 513.0048 777.280301 
L 515.74272 777.893992 
" style="fill:none;stroke:#008000;stroke-linecap:square;"/>
    <g clip-path="url(#pfdff49c95e)">
     <use style="fill:#008000;stroke:#000000;stroke-width:0.5;" x="513.0048" xlink:href="#m8531c7ac9c" y="777.28030128"/>
     <use style="fill:#008000;stroke:#000000;stroke-width:0.5;" x="515.74272" xlink:href="#m8531c7ac9c" y="777.89399184"/>
    </g>
   </g>
   <g id="line2d_17">
    <path clip-path="url(#pfdff49c95e)" d="M 516.69504 783.40249 
L 523.95648 783.40249 
" style="fill:none;stroke:#008000;stroke-linecap:square;"/>
    <g clip-path="url(#pfdff49c95e)">
     <use style="fill:#008000;stroke:#000000;stroke-width:0.5;" x="516.69504" xlink:href="#m8531c7ac9c" y="783.40249008"/>
     <use style="fill:#008000;stroke:#000000;stroke-width:0.5;" x="523.95648" xlink:href="#m8531c7ac9c" y="783.40249008"/>
    </g>
   </g>
   <g id="line2d_18">
    <path clip-path="url(#pfdff49c95e)" d="M 546.81216 399.031315 
L 548.83584 397.434542 
" style="fill:none;stroke:#008000;stroke-linecap:square;"/>
    <g clip-path="url(#pfdff49c95e)">
     <use style="fill:#008000;stroke:#000000;stroke-width:0.5;" x="546.81216" xlink:href="#m8531c7ac9c" y="399.0313152"/>
     <use style="fill:#008000;stroke:#000000;stroke-width:0.5;" x="548.83584" xlink:href="#m8531c7ac9c" y="397.4345424"/>
    </g>
   </g>
   <g id="line2d_19">
    <path clip-path="url(#pfdff49c95e)" d="M 550.26432 394.505899 
L 585.73824 396.367574 
" style="fill:none;stroke:#008000;stroke-linecap:square;"/>
    <g clip-path="url(#pfdff49c95e)">
     <use style="fill:#008000;stroke:#000000;stroke-width:0.5;" x="550.26432" xlink:href="#m8531c7ac9c" y="394.5058992"/>
     <use style="fill:#008000;stroke:#000000;stroke-width:0.5;" x="585.73824" xlink:href="#m8531c7ac9c" y="396.3675744"/>
    </g>
   </g>
   <g id="line2d_20">
    <path clip-path="url(#pfdff49c95e)" d="M 586.92864 400.090925 
L 592.40448 402.224861 
" style="fill:none;stroke:#008000;stroke-linecap:square;"/>
    <g clip-path="url(#pfdff49c95e)">
     <use style="fill:#008000;stroke:#000000;stroke-width:0.5;" x="586.92864" xlink:href="#m8531c7ac9c" y="400.0909248"/>
     <use style="fill:#008000;stroke:#000000;stroke-width:0.5;" x="592.40448" xlink:href="#m8531c7ac9c" y="402.2248608"/>
    </g>
   </g>
   <g id="line2d_21">
    <path clip-path="url(#pfdff49c95e)" d="M 592.64256 402.754666 
L 595.61856 404.881243 
" style="fill:none;stroke:#008000;stroke-linecap:square;"/>
    <g clip-path="url(#pfdff49c95e)">
     <use style="fill:#008000;stroke:#000000;stroke-width:0.5;" x="592.64256" xlink:href="#m8531c7ac9c" y="402.7546656"/>
     <use style="fill:#008000;stroke:#000000;stroke-width:0.5;" x="595.61856" xlink:href="#m8531c7ac9c" y="404.8812432"/>
    </g>
   </g>
   <g id="line2d_22">
    <path clip-path="url(#pfdff49c95e)" d="M 597.76128 408.015922 
L 635.73504 410.054198 
" style="fill:none;stroke:#008000;stroke-linecap:square;"/>
    <g clip-path="url(#pfdff49c95e)">
     <use style="fill:#008000;stroke:#000000;stroke-width:0.5;" x="597.76128" xlink:href="#m8531c7ac9c" y="408.0159216"/>
     <use style="fill:#008000;stroke:#000000;stroke-width:0.5;" x="635.73504" xlink:href="#m8531c7ac9c" y="410.0541984"/>
    </g>
   </g>
   <g id="line2d_23">
    <path clip-path="url(#pfdff49c95e)" d="M 638.83008 430.414891 
L 640.85376 432.011664 
" style="fill:none;stroke:#008000;stroke-linecap:square;"/>
    <g clip-path="url(#pfdff49c95e)">
     <use style="fill:#008000;stroke:#000000;stroke-width:0.5;" x="638.83008" xlink:href="#m8531c7ac9c" y="430.4148912"/>
     <use style="fill:#008000;stroke:#000000;stroke-width:0.5;" x="640.85376" xlink:href="#m8531c7ac9c" y="432.011664"/>
    </g>
   </g>
   <g id="line2d_24">
    <path clip-path="url(#pfdff49c95e)" d="M 642.52032 435.735014 
L 726.80064 437.155186 
" style="fill:none;stroke:#008000;stroke-linecap:square;"/>
    <g clip-path="url(#pfdff49c95e)">
     <use style="fill:#008000;stroke:#000000;stroke-width:0.5;" x="642.52032" xlink:href="#m8531c7ac9c" y="435.7350144"/>
     <use style="fill:#008000;stroke:#000000;stroke-width:0.5;" x="726.80064" xlink:href="#m8531c7ac9c" y="437.1551856"/>
    </g>
   </g>
   <g id="line2d_25">
    <path clip-path="url(#pfdff49c95e)" d="M 737.51424 819.663949 
L 744.89472 819.663949 
" style="fill:none;stroke:#008000;stroke-linecap:square;"/>
    <g clip-path="url(#pfdff49c95e)">
     <use style="fill:#008000;stroke:#000000;stroke-width:0.5;" x="737.51424" xlink:href="#m8531c7ac9c" y="819.66394944"/>
     <use style="fill:#008000;stroke:#000000;stroke-width:0.5;" x="744.89472" xlink:href="#m8531c7ac9c" y="819.66394944"/>
    </g>
   </g>
   <g id="line2d_26">
    <path clip-path="url(#pfdff49c95e)" d="M 782.0352 437.096318 
L 789.29664 437.096318 
" style="fill:none;stroke:#008000;stroke-linecap:square;"/>
    <g clip-path="url(#pfdff49c95e)">
     <use style="fill:#008000;stroke:#000000;stroke-width:0.5;" x="782.0352" xlink:href="#m8531c7ac9c" y="437.0963184"/>
     <use style="fill:#008000;stroke:#000000;stroke-width:0.5;" x="789.29664" xlink:href="#m8531c7ac9c" y="437.0963184"/>
    </g>
   </g>
   <g id="line2d_27">
    <path clip-path="url(#pfdff49c95e)" d="M 818.22336 785.582784 
L 823.46112 785.582784 
" style="fill:none;stroke:#008000;stroke-linecap:square;"/>
    <g clip-path="url(#pfdff49c95e)">
     <use style="fill:#008000;stroke:#000000;stroke-width:0.5;" x="818.22336" xlink:href="#m8531c7ac9c" y="785.582784"/>
     <use style="fill:#008000;stroke:#000000;stroke-width:0.5;" x="823.46112" xlink:href="#m8531c7ac9c" y="785.582784"/>
    </g>
   </g>
   <g id="line2d_28">
    <path clip-path="url(#pfdff49c95e)" d="M 845.7216 322.916026 
L 852.62592 325.079395 
" style="fill:none;stroke:#008000;stroke-linecap:square;"/>
    <g clip-path="url(#pfdff49c95e)">
     <use style="fill:#008000;stroke:#000000;stroke-width:0.5;" x="845.7216" xlink:href="#m8531c7ac9c" y="322.9160256"/>
     <use style="fill:#008000;stroke:#000000;stroke-width:0.5;" x="852.62592" xlink:href="#m8531c7ac9c" y="325.0793952"/>
    </g>
   </g>
   <g id="line2d_29">
    <path clip-path="url(#pfdff49c95e)" d="M 888.69504 745.560446 
L 896.67072 745.560446 
" style="fill:none;stroke:#008000;stroke-linecap:square;"/>
    <g clip-path="url(#pfdff49c95e)">
     <use style="fill:#008000;stroke:#000000;stroke-width:0.5;" x="888.69504" xlink:href="#m8531c7ac9c" y="745.5604464"/>
     <use style="fill:#008000;stroke:#000000;stroke-width:0.5;" x="896.67072" xlink:href="#m8531c7ac9c" y="745.5604464"/>
    </g>
   </g>
   <g id="line2d_30">
    <path clip-path="url(#pfdff49c95e)" d="M 898.93248 762.65033 
L 913.21728 761.320668 
" style="fill:none;stroke:#008000;stroke-linecap:square;"/>
    <g clip-path="url(#pfdff49c95e)">
     <use style="fill:#008000;stroke:#000000;stroke-width:0.5;" x="898.93248" xlink:href="#m8531c7ac9c" y="762.6503304"/>
     <use style="fill:#008000;stroke:#000000;stroke-width:0.5;" x="913.21728" xlink:href="#m8531c7ac9c" y="761.32066752"/>
    </g>
   </g>
   <g id="line2d_31">
    <path clip-path="url(#pfdff49c95e)" d="M 938.09664 281.569176 
L 941.5488 281.569176 
" style="fill:none;stroke:#008000;stroke-linecap:square;"/>
    <g clip-path="url(#pfdff49c95e)">
     <use style="fill:#008000;stroke:#000000;stroke-width:0.5;" x="938.09664" xlink:href="#m8531c7ac9c" y="281.569176"/>
     <use style="fill:#008000;stroke:#000000;stroke-width:0.5;" x="941.5488" xlink:href="#m8531c7ac9c" y="281.569176"/>
    </g>
   </g>
   <g id="line2d_32">
    <path clip-path="url(#pfdff49c95e)" d="M 948.81024 602.064288 
L 952.38144 602.064288 
" style="fill:none;stroke:#008000;stroke-linecap:square;"/>
    <g clip-path="url(#pfdff49c95e)">
     <use style="fill:#008000;stroke:#000000;stroke-width:0.5;" x="948.81024" xlink:href="#m8531c7ac9c" y="602.064288"/>
     <use style="fill:#008000;stroke:#000000;stroke-width:0.5;" x="952.38144" xlink:href="#m8531c7ac9c" y="602.064288"/>
    </g>
   </g>
   <g id="line2d_33">
    <path clip-path="url(#pfdff49c95e)" d="M 965.83296 375.800846 
L 972.61824 375.800846 
" style="fill:none;stroke:#008000;stroke-linecap:square;"/>
    <g clip-path="url(#pfdff49c95e)">
     <use style="fill:#008000;stroke:#000000;stroke-width:0.5;" x="965.83296" xlink:href="#m8531c7ac9c" y="375.8008464"/>
     <use style="fill:#008000;stroke:#000000;stroke-width:0.5;" x="972.61824" xlink:href="#m8531c7ac9c" y="375.8008464"/>
    </g>
   </g>
   <g id="line2d_34">
    <path clip-path="url(#pfdff49c95e)" d="M 986.42688 677.75279 
L 989.1648 677.75279 
" style="fill:none;stroke:#008000;stroke-linecap:square;"/>
    <g clip-path="url(#pfdff49c95e)">
     <use style="fill:#008000;stroke:#000000;stroke-width:0.5;" x="986.42688" xlink:href="#m8531c7ac9c" y="677.7527904"/>
     <use style="fill:#008000;stroke:#000000;stroke-width:0.5;" x="989.1648" xlink:href="#m8531c7ac9c" y="677.7527904"/>
    </g>
   </g>
   <g id="line2d_35">
    <path clip-path="url(#pfdff49c95e)" d="M 996.42624 455.860238 
L 1004.99712 455.860238 
" style="fill:none;stroke:#008000;stroke-linecap:square;"/>
    <g clip-path="url(#pfdff49c95e)">
     <use style="fill:#008000;stroke:#000000;stroke-width:0.5;" x="996.42624" xlink:href="#m8531c7ac9c" y="455.8602384"/>
     <use style="fill:#008000;stroke:#000000;stroke-width:0.5;" x="1004.99712" xlink:href="#m8531c7ac9c" y="455.8602384"/>
    </g>
   </g>
   <g id="line2d_36">
    <path clip-path="url(#pfdff49c95e)" d="M 1006.66368 447.71449 
L 1009.28256 446.912424 
" style="fill:none;stroke:#008000;stroke-linecap:square;"/>
    <g clip-path="url(#pfdff49c95e)">
     <use style="fill:#008000;stroke:#000000;stroke-width:0.5;" x="1006.66368" xlink:href="#m8531c7ac9c" y="447.7144896"/>
     <use style="fill:#008000;stroke:#000000;stroke-width:0.5;" x="1009.28256" xlink:href="#m8531c7ac9c" y="446.912424"/>
    </g>
   </g>
   <g id="line2d_37">
    <path clip-path="url(#pfdff49c95e)" d="M 1009.63968 444.778488 
L 1033.44768 445.315651 
" style="fill:none;stroke:#008000;stroke-linecap:square;"/>
    <g clip-path="url(#pfdff49c95e)">
     <use style="fill:#008000;stroke:#000000;stroke-width:0.5;" x="1009.63968" xlink:href="#m8531c7ac9c" y="444.778488"/>
     <use style="fill:#008000;stroke:#000000;stroke-width:0.5;" x="1033.44768" xlink:href="#m8531c7ac9c" y="445.3156512"/>
    </g>
   </g>
   <g id="line2d_38">
    <path clip-path="url(#pfdff49c95e)" d="M 1072.61184 717.863429 
L 1077.13536 717.863429 
" style="fill:none;stroke:#008000;stroke-linecap:square;"/>
    <g clip-path="url(#pfdff49c95e)">
     <use style="fill:#008000;stroke:#000000;stroke-width:0.5;" x="1072.61184" xlink:href="#m8531c7ac9c" y="717.8634288"/>
     <use style="fill:#008000;stroke:#000000;stroke-width:0.5;" x="1077.13536" xlink:href="#m8531c7ac9c" y="717.8634288"/>
    </g>
   </g>
   <g id="line2d_39">
    <path clip-path="url(#pfdff49c95e)" d="M 1094.15808 263.850149 
L 1112.13312 265.204094 
" style="fill:none;stroke:#008000;stroke-linecap:square;"/>
    <g clip-path="url(#pfdff49c95e)">
     <use style="fill:#008000;stroke:#000000;stroke-width:0.5;" x="1094.15808" xlink:href="#m8531c7ac9c" y="263.8501488"/>
     <use style="fill:#008000;stroke:#000000;stroke-width:0.5;" x="1112.13312" xlink:href="#m8531c7ac9c" y="265.2040944"/>
    </g>
   </g>
   <g id="line2d_40">
    <path clip-path="url(#pfdff49c95e)" d="M 1129.27488 636.442733 
L 1137.60768 636.442733 
" style="fill:none;stroke:#008000;stroke-linecap:square;"/>
    <g clip-path="url(#pfdff49c95e)">
     <use style="fill:#008000;stroke:#000000;stroke-width:0.5;" x="1129.27488" xlink:href="#m8531c7ac9c" y="636.4427328"/>
     <use style="fill:#008000;stroke:#000000;stroke-width:0.5;" x="1137.60768" xlink:href="#m8531c7ac9c" y="636.4427328"/>
    </g>
   </g>
   <g id="line2d_41">
    <path clip-path="url(#pfdff49c95e)" d="M 1138.20288 633.109378 
L 1143.9168 632.277878 
" style="fill:none;stroke:#008000;stroke-linecap:square;"/>
    <g clip-path="url(#pfdff49c95e)">
     <use style="fill:#008000;stroke:#000000;stroke-width:0.5;" x="1138.20288" xlink:href="#m8531c7ac9c" y="633.1093776"/>
     <use style="fill:#008000;stroke:#000000;stroke-width:0.5;" x="1143.9168" xlink:href="#m8531c7ac9c" y="632.2778784"/>
    </g>
   </g>
   <g id="patch_3">
    <path d="M 216 827.82 
L 1287.36 827.82 
" style="fill:none;stroke:#000000;stroke-linecap:square;stroke-linejoin:miter;"/>
   </g>
   <g id="patch_4">
    <path d="M 216 827.82 
L 216 91.98 
" style="fill:none;stroke:#000000;stroke-linecap:square;stroke-linejoin:miter;"/>
   </g>
   <g id="matplotlib.axis_1">
    <g id="xtick_1">
     <g id="line2d_42">
      <defs>
       <path d="M 0 0 
L 0 -4 
" id="m01ba5516e7" style="stroke:#000000;stroke-width:0.5;"/>
      </defs>
      <g>
       <use style="stroke:#000000;stroke-width:0.5;" x="216.0" xlink:href="#m01ba5516e7" y="827.82"/>
      </g>
     </g>
     <g id="text_1">
      <!-- 0 -->
      <defs>
       <path d="M 31.78125 66.40625 
Q 24.171875 66.40625 20.328125 58.90625 
Q 16.5 51.421875 16.5 36.375 
Q 16.5 21.390625 20.328125 13.890625 
Q 24.171875 6.390625 31.78125 6.390625 
Q 39.453125 6.390625 43.28125 13.890625 
Q 47.125 21.390625 47.125 36.375 
Q 47.125 51.421875 43.28125 58.90625 
Q 39.453125 66.40625 31.78125 66.40625 
M 31.78125 74.21875 
Q 44.046875 74.21875 50.515625 64.515625 
Q 56.984375 54.828125 56.984375 36.375 
Q 56.984375 17.96875 50.515625 8.265625 
Q 44.046875 -1.421875 31.78125 -1.421875 
Q 19.53125 -1.421875 13.0625 8.265625 
Q 6.59375 17.96875 6.59375 36.375 
Q 6.59375 54.828125 13.0625 64.515625 
Q 19.53125 74.21875 31.78125 74.21875 
" id="BitstreamVeraSans-Roman-30"/>
      </defs>
      <g transform="translate(209.6375 847.016875)scale(0.2 -0.2)">
       <use xlink:href="#BitstreamVeraSans-Roman-30"/>
      </g>
     </g>
    </g>
    <g id="xtick_2">
     <g id="line2d_43">
      <g>
       <use style="stroke:#000000;stroke-width:0.5;" x="394.56" xlink:href="#m01ba5516e7" y="827.82"/>
      </g>
     </g>
     <g id="text_2">
      <!-- 50 -->
      <defs>
       <path d="M 10.796875 72.90625 
L 49.515625 72.90625 
L 49.515625 64.59375 
L 19.828125 64.59375 
L 19.828125 46.734375 
Q 21.96875 47.46875 24.109375 47.828125 
Q 26.265625 48.1875 28.421875 48.1875 
Q 40.625 48.1875 47.75 41.5 
Q 54.890625 34.8125 54.890625 23.390625 
Q 54.890625 11.625 47.5625 5.09375 
Q 40.234375 -1.421875 26.90625 -1.421875 
Q 22.3125 -1.421875 17.546875 -0.640625 
Q 12.796875 0.140625 7.71875 1.703125 
L 7.71875 11.625 
Q 12.109375 9.234375 16.796875 8.0625 
Q 21.484375 6.890625 26.703125 6.890625 
Q 35.15625 6.890625 40.078125 11.328125 
Q 45.015625 15.765625 45.015625 23.390625 
Q 45.015625 31 40.078125 35.4375 
Q 35.15625 39.890625 26.703125 39.890625 
Q 22.75 39.890625 18.8125 39.015625 
Q 14.890625 38.140625 10.796875 36.28125 
z
" id="BitstreamVeraSans-Roman-35"/>
      </defs>
      <g transform="translate(381.835 847.016875)scale(0.2 -0.2)">
       <use xlink:href="#BitstreamVeraSans-Roman-35"/>
       <use x="63.623046875" xlink:href="#BitstreamVeraSans-Roman-30"/>
      </g>
     </g>
    </g>
    <g id="xtick_3">
     <g id="line2d_44">
      <g>
       <use style="stroke:#000000;stroke-width:0.5;" x="573.12" xlink:href="#m01ba5516e7" y="827.82"/>
      </g>
     </g>
     <g id="text_3">
      <!-- 100 -->
      <defs>
       <path d="M 12.40625 8.296875 
L 28.515625 8.296875 
L 28.515625 63.921875 
L 10.984375 60.40625 
L 10.984375 69.390625 
L 28.421875 72.90625 
L 38.28125 72.90625 
L 38.28125 8.296875 
L 54.390625 8.296875 
L 54.390625 0 
L 12.40625 0 
z
" id="BitstreamVeraSans-Roman-31"/>
      </defs>
      <g transform="translate(554.0325 847.016875)scale(0.2 -0.2)">
       <use xlink:href="#BitstreamVeraSans-Roman-31"/>
       <use x="63.623046875" xlink:href="#BitstreamVeraSans-Roman-30"/>
       <use x="127.24609375" xlink:href="#BitstreamVeraSans-Roman-30"/>
      </g>
     </g>
    </g>
    <g id="xtick_4">
     <g id="line2d_45">
      <g>
       <use style="stroke:#000000;stroke-width:0.5;" x="751.68" xlink:href="#m01ba5516e7" y="827.82"/>
      </g>
     </g>
     <g id="text_4">
      <!-- 150 -->
      <g transform="translate(732.5925 847.016875)scale(0.2 -0.2)">
       <use xlink:href="#BitstreamVeraSans-Roman-31"/>
       <use x="63.623046875" xlink:href="#BitstreamVeraSans-Roman-35"/>
       <use x="127.24609375" xlink:href="#BitstreamVeraSans-Roman-30"/>
      </g>
     </g>
    </g>
    <g id="xtick_5">
     <g id="line2d_46">
      <g>
       <use style="stroke:#000000;stroke-width:0.5;" x="930.24" xlink:href="#m01ba5516e7" y="827.82"/>
      </g>
     </g>
     <g id="text_5">
      <!-- 200 -->
      <defs>
       <path d="M 19.1875 8.296875 
L 53.609375 8.296875 
L 53.609375 0 
L 7.328125 0 
L 7.328125 8.296875 
Q 12.9375 14.109375 22.625 23.890625 
Q 32.328125 33.6875 34.8125 36.53125 
Q 39.546875 41.84375 41.421875 45.53125 
Q 43.3125 49.21875 43.3125 52.78125 
Q 43.3125 58.59375 39.234375 62.25 
Q 35.15625 65.921875 28.609375 65.921875 
Q 23.96875 65.921875 18.8125 64.3125 
Q 13.671875 62.703125 7.8125 59.421875 
L 7.8125 69.390625 
Q 13.765625 71.78125 18.9375 73 
Q 24.125 74.21875 28.421875 74.21875 
Q 39.75 74.21875 46.484375 68.546875 
Q 53.21875 62.890625 53.21875 53.421875 
Q 53.21875 48.921875 51.53125 44.890625 
Q 49.859375 40.875 45.40625 35.40625 
Q 44.1875 33.984375 37.640625 27.21875 
Q 31.109375 20.453125 19.1875 8.296875 
" id="BitstreamVeraSans-Roman-32"/>
      </defs>
      <g transform="translate(911.1525 847.016875)scale(0.2 -0.2)">
       <use xlink:href="#BitstreamVeraSans-Roman-32"/>
       <use x="63.623046875" xlink:href="#BitstreamVeraSans-Roman-30"/>
       <use x="127.24609375" xlink:href="#BitstreamVeraSans-Roman-30"/>
      </g>
     </g>
    </g>
    <g id="xtick_6">
     <g id="line2d_47">
      <g>
       <use style="stroke:#000000;stroke-width:0.5;" x="1108.8" xlink:href="#m01ba5516e7" y="827.82"/>
      </g>
     </g>
     <g id="text_6">
      <!-- 250 -->
      <g transform="translate(1089.7125 847.016875)scale(0.2 -0.2)">
       <use xlink:href="#BitstreamVeraSans-Roman-32"/>
       <use x="63.623046875" xlink:href="#BitstreamVeraSans-Roman-35"/>
       <use x="127.24609375" xlink:href="#BitstreamVeraSans-Roman-30"/>
      </g>
     </g>
    </g>
    <g id="xtick_7">
     <g id="line2d_48">
      <g>
       <use style="stroke:#000000;stroke-width:0.5;" x="1287.36" xlink:href="#m01ba5516e7" y="827.82"/>
      </g>
     </g>
     <g id="text_7">
      <!-- 300 -->
      <defs>
       <path d="M 40.578125 39.3125 
Q 47.65625 37.796875 51.625 33 
Q 55.609375 28.21875 55.609375 21.1875 
Q 55.609375 10.40625 48.1875 4.484375 
Q 40.765625 -1.421875 27.09375 -1.421875 
Q 22.515625 -1.421875 17.65625 -0.515625 
Q 12.796875 0.390625 7.625 2.203125 
L 7.625 11.71875 
Q 11.71875 9.328125 16.59375 8.109375 
Q 21.484375 6.890625 26.8125 6.890625 
Q 36.078125 6.890625 40.9375 10.546875 
Q 45.796875 14.203125 45.796875 21.1875 
Q 45.796875 27.640625 41.28125 31.265625 
Q 36.765625 34.90625 28.71875 34.90625 
L 20.21875 34.90625 
L 20.21875 43.015625 
L 29.109375 43.015625 
Q 36.375 43.015625 40.234375 45.921875 
Q 44.09375 48.828125 44.09375 54.296875 
Q 44.09375 59.90625 40.109375 62.90625 
Q 36.140625 65.921875 28.71875 65.921875 
Q 24.65625 65.921875 20.015625 65.03125 
Q 15.375 64.15625 9.8125 62.3125 
L 9.8125 71.09375 
Q 15.4375 72.65625 20.34375 73.4375 
Q 25.25 74.21875 29.59375 74.21875 
Q 40.828125 74.21875 47.359375 69.109375 
Q 53.90625 64.015625 53.90625 55.328125 
Q 53.90625 49.265625 50.4375 45.09375 
Q 46.96875 40.921875 40.578125 39.3125 
" id="BitstreamVeraSans-Roman-33"/>
      </defs>
      <g transform="translate(1268.2725 847.016875)scale(0.2 -0.2)">
       <use xlink:href="#BitstreamVeraSans-Roman-33"/>
       <use x="63.623046875" xlink:href="#BitstreamVeraSans-Roman-30"/>
       <use x="127.24609375" xlink:href="#BitstreamVeraSans-Roman-30"/>
      </g>
     </g>
    </g>
    <g id="text_8">
     <!-- Time(s) -->
     <defs>
      <path d="M 8.015625 75.875 
L 15.828125 75.875 
Q 23.140625 64.359375 26.78125 53.3125 
Q 30.421875 42.28125 30.421875 31.390625 
Q 30.421875 20.453125 26.78125 9.375 
Q 23.140625 -1.703125 15.828125 -13.1875 
L 8.015625 -13.1875 
Q 14.5 -2 17.703125 9.0625 
Q 20.90625 20.125 20.90625 31.390625 
Q 20.90625 42.671875 17.703125 53.65625 
Q 14.5 64.65625 8.015625 75.875 
" id="BitstreamVeraSans-Roman-29"/>
      <path d="M 31 75.875 
Q 24.46875 64.65625 21.28125 53.65625 
Q 18.109375 42.671875 18.109375 31.390625 
Q 18.109375 20.125 21.3125 9.0625 
Q 24.515625 -2 31 -13.1875 
L 23.1875 -13.1875 
Q 15.875 -1.703125 12.234375 9.375 
Q 8.59375 20.453125 8.59375 31.390625 
Q 8.59375 42.28125 12.203125 53.3125 
Q 15.828125 64.359375 23.1875 75.875 
z
" id="BitstreamVeraSans-Roman-28"/>
      <path d="M 9.421875 54.6875 
L 18.40625 54.6875 
L 18.40625 0 
L 9.421875 0 
z
M 9.421875 75.984375 
L 18.40625 75.984375 
L 18.40625 64.59375 
L 9.421875 64.59375 
z
" id="BitstreamVeraSans-Roman-69"/>
      <path d="M 52 44.1875 
Q 55.375 50.25 60.0625 53.125 
Q 64.75 56 71.09375 56 
Q 79.640625 56 84.28125 50.015625 
Q 88.921875 44.046875 88.921875 33.015625 
L 88.921875 0 
L 79.890625 0 
L 79.890625 32.71875 
Q 79.890625 40.578125 77.09375 44.375 
Q 74.3125 48.1875 68.609375 48.1875 
Q 61.625 48.1875 57.5625 43.546875 
Q 53.515625 38.921875 53.515625 30.90625 
L 53.515625 0 
L 44.484375 0 
L 44.484375 32.71875 
Q 44.484375 40.625 41.703125 44.40625 
Q 38.921875 48.1875 33.109375 48.1875 
Q 26.21875 48.1875 22.15625 43.53125 
Q 18.109375 38.875 18.109375 30.90625 
L 18.109375 0 
L 9.078125 0 
L 9.078125 54.6875 
L 18.109375 54.6875 
L 18.109375 46.1875 
Q 21.1875 51.21875 25.484375 53.609375 
Q 29.78125 56 35.6875 56 
Q 41.65625 56 45.828125 52.96875 
Q 50 49.953125 52 44.1875 
" id="BitstreamVeraSans-Roman-6d"/>
      <path d="M 56.203125 29.59375 
L 56.203125 25.203125 
L 14.890625 25.203125 
Q 15.484375 15.921875 20.484375 11.0625 
Q 25.484375 6.203125 34.421875 6.203125 
Q 39.59375 6.203125 44.453125 7.46875 
Q 49.3125 8.734375 54.109375 11.28125 
L 54.109375 2.78125 
Q 49.265625 0.734375 44.1875 -0.34375 
Q 39.109375 -1.421875 33.890625 -1.421875 
Q 20.796875 -1.421875 13.15625 6.1875 
Q 5.515625 13.8125 5.515625 26.8125 
Q 5.515625 40.234375 12.765625 48.109375 
Q 20.015625 56 32.328125 56 
Q 43.359375 56 49.78125 48.890625 
Q 56.203125 41.796875 56.203125 29.59375 
M 47.21875 32.234375 
Q 47.125 39.59375 43.09375 43.984375 
Q 39.0625 48.390625 32.421875 48.390625 
Q 24.90625 48.390625 20.390625 44.140625 
Q 15.875 39.890625 15.1875 32.171875 
z
" id="BitstreamVeraSans-Roman-65"/>
      <path d="M -0.296875 72.90625 
L 61.375 72.90625 
L 61.375 64.59375 
L 35.5 64.59375 
L 35.5 0 
L 25.59375 0 
L 25.59375 64.59375 
L -0.296875 64.59375 
z
" id="BitstreamVeraSans-Roman-54"/>
      <path d="M 44.28125 53.078125 
L 44.28125 44.578125 
Q 40.484375 46.53125 36.375 47.5 
Q 32.28125 48.484375 27.875 48.484375 
Q 21.1875 48.484375 17.84375 46.4375 
Q 14.5 44.390625 14.5 40.28125 
Q 14.5 37.15625 16.890625 35.375 
Q 19.28125 33.59375 26.515625 31.984375 
L 29.59375 31.296875 
Q 39.15625 29.25 43.1875 25.515625 
Q 47.21875 21.78125 47.21875 15.09375 
Q 47.21875 7.46875 41.1875 3.015625 
Q 35.15625 -1.421875 24.609375 -1.421875 
Q 20.21875 -1.421875 15.453125 -0.5625 
Q 10.6875 0.296875 5.421875 2 
L 5.421875 11.28125 
Q 10.40625 8.6875 15.234375 7.390625 
Q 20.0625 6.109375 24.8125 6.109375 
Q 31.15625 6.109375 34.5625 8.28125 
Q 37.984375 10.453125 37.984375 14.40625 
Q 37.984375 18.0625 35.515625 20.015625 
Q 33.0625 21.96875 24.703125 23.78125 
L 21.578125 24.515625 
Q 13.234375 26.265625 9.515625 29.90625 
Q 5.8125 33.546875 5.8125 39.890625 
Q 5.8125 47.609375 11.28125 51.796875 
Q 16.75 56 26.8125 56 
Q 31.78125 56 36.171875 55.265625 
Q 40.578125 54.546875 44.28125 53.078125 
" id="BitstreamVeraSans-Roman-73"/>
     </defs>
     <g transform="translate(706.335 874.4125)scale(0.24 -0.24)">
      <use xlink:href="#BitstreamVeraSans-Roman-54"/>
      <use x="61.037109375" xlink:href="#BitstreamVeraSans-Roman-69"/>
      <use x="88.8203125" xlink:href="#BitstreamVeraSans-Roman-6d"/>
      <use x="186.232421875" xlink:href="#BitstreamVeraSans-Roman-65"/>
      <use x="247.755859375" xlink:href="#BitstreamVeraSans-Roman-28"/>
      <use x="286.76953125" xlink:href="#BitstreamVeraSans-Roman-73"/>
      <use x="338.869140625" xlink:href="#BitstreamVeraSans-Roman-29"/>
     </g>
    </g>
   </g>
   <g id="matplotlib.axis_2">
    <g id="ytick_1">
     <g id="line2d_49">
      <defs>
       <path d="M 0 0 
L 4 0 
" id="m1d6680ec2e" style="stroke:#000000;stroke-width:0.5;"/>
      </defs>
      <g>
       <use style="stroke:#000000;stroke-width:0.5;" x="216.0" xlink:href="#m1d6680ec2e" y="827.82"/>
      </g>
     </g>
     <g id="text_9">
      <!-- 0.0 -->
      <defs>
       <path d="M 10.6875 12.40625 
L 21 12.40625 
L 21 0 
L 10.6875 0 
z
" id="BitstreamVeraSans-Roman-2e"/>
      </defs>
      <g transform="translate(180.19375 833.33875)scale(0.2 -0.2)">
       <use xlink:href="#BitstreamVeraSans-Roman-30"/>
       <use x="63.623046875" xlink:href="#BitstreamVeraSans-Roman-2e"/>
       <use x="95.41015625" xlink:href="#BitstreamVeraSans-Roman-30"/>
      </g>
     </g>
    </g>
    <g id="ytick_2">
     <g id="line2d_50">
      <g>
       <use style="stroke:#000000;stroke-width:0.5;" x="216.0" xlink:href="#m1d6680ec2e" y="680.652"/>
      </g>
     </g>
     <g id="text_10">
      <!-- 0.2 -->
      <g transform="translate(180.19375 686.17075)scale(0.2 -0.2)">
       <use xlink:href="#BitstreamVeraSans-Roman-30"/>
       <use x="63.623046875" xlink:href="#BitstreamVeraSans-Roman-2e"/>
       <use x="95.41015625" xlink:href="#BitstreamVeraSans-Roman-32"/>
      </g>
     </g>
    </g>
    <g id="ytick_3">
     <g id="line2d_51">
      <g>
       <use style="stroke:#000000;stroke-width:0.5;" x="216.0" xlink:href="#m1d6680ec2e" y="533.484"/>
      </g>
     </g>
     <g id="text_11">
      <!-- 0.4 -->
      <defs>
       <path d="M 37.796875 64.3125 
L 12.890625 25.390625 
L 37.796875 25.390625 
z
M 35.203125 72.90625 
L 47.609375 72.90625 
L 47.609375 25.390625 
L 58.015625 25.390625 
L 58.015625 17.1875 
L 47.609375 17.1875 
L 47.609375 0 
L 37.796875 0 
L 37.796875 17.1875 
L 4.890625 17.1875 
L 4.890625 26.703125 
z
" id="BitstreamVeraSans-Roman-34"/>
      </defs>
      <g transform="translate(180.19375 539.00275)scale(0.2 -0.2)">
       <use xlink:href="#BitstreamVeraSans-Roman-30"/>
       <use x="63.623046875" xlink:href="#BitstreamVeraSans-Roman-2e"/>
       <use x="95.41015625" xlink:href="#BitstreamVeraSans-Roman-34"/>
      </g>
     </g>
    </g>
    <g id="ytick_4">
     <g id="line2d_52">
      <g>
       <use style="stroke:#000000;stroke-width:0.5;" x="216.0" xlink:href="#m1d6680ec2e" y="386.316"/>
      </g>
     </g>
     <g id="text_12">
      <!-- 0.6 -->
      <defs>
       <path d="M 33.015625 40.375 
Q 26.375 40.375 22.484375 35.828125 
Q 18.609375 31.296875 18.609375 23.390625 
Q 18.609375 15.53125 22.484375 10.953125 
Q 26.375 6.390625 33.015625 6.390625 
Q 39.65625 6.390625 43.53125 10.953125 
Q 47.40625 15.53125 47.40625 23.390625 
Q 47.40625 31.296875 43.53125 35.828125 
Q 39.65625 40.375 33.015625 40.375 
M 52.59375 71.296875 
L 52.59375 62.3125 
Q 48.875 64.0625 45.09375 64.984375 
Q 41.3125 65.921875 37.59375 65.921875 
Q 27.828125 65.921875 22.671875 59.328125 
Q 17.53125 52.734375 16.796875 39.40625 
Q 19.671875 43.65625 24.015625 45.921875 
Q 28.375 48.1875 33.59375 48.1875 
Q 44.578125 48.1875 50.953125 41.515625 
Q 57.328125 34.859375 57.328125 23.390625 
Q 57.328125 12.15625 50.6875 5.359375 
Q 44.046875 -1.421875 33.015625 -1.421875 
Q 20.359375 -1.421875 13.671875 8.265625 
Q 6.984375 17.96875 6.984375 36.375 
Q 6.984375 53.65625 15.1875 63.9375 
Q 23.390625 74.21875 37.203125 74.21875 
Q 40.921875 74.21875 44.703125 73.484375 
Q 48.484375 72.75 52.59375 71.296875 
" id="BitstreamVeraSans-Roman-36"/>
      </defs>
      <g transform="translate(180.19375 391.83475)scale(0.2 -0.2)">
       <use xlink:href="#BitstreamVeraSans-Roman-30"/>
       <use x="63.623046875" xlink:href="#BitstreamVeraSans-Roman-2e"/>
       <use x="95.41015625" xlink:href="#BitstreamVeraSans-Roman-36"/>
      </g>
     </g>
    </g>
    <g id="ytick_5">
     <g id="line2d_53">
      <g>
       <use style="stroke:#000000;stroke-width:0.5;" x="216.0" xlink:href="#m1d6680ec2e" y="239.148"/>
      </g>
     </g>
     <g id="text_13">
      <!-- 0.8 -->
      <defs>
       <path d="M 31.78125 34.625 
Q 24.75 34.625 20.71875 30.859375 
Q 16.703125 27.09375 16.703125 20.515625 
Q 16.703125 13.921875 20.71875 10.15625 
Q 24.75 6.390625 31.78125 6.390625 
Q 38.8125 6.390625 42.859375 10.171875 
Q 46.921875 13.96875 46.921875 20.515625 
Q 46.921875 27.09375 42.890625 30.859375 
Q 38.875 34.625 31.78125 34.625 
M 21.921875 38.8125 
Q 15.578125 40.375 12.03125 44.71875 
Q 8.5 49.078125 8.5 55.328125 
Q 8.5 64.0625 14.71875 69.140625 
Q 20.953125 74.21875 31.78125 74.21875 
Q 42.671875 74.21875 48.875 69.140625 
Q 55.078125 64.0625 55.078125 55.328125 
Q 55.078125 49.078125 51.53125 44.71875 
Q 48 40.375 41.703125 38.8125 
Q 48.828125 37.15625 52.796875 32.3125 
Q 56.78125 27.484375 56.78125 20.515625 
Q 56.78125 9.90625 50.3125 4.234375 
Q 43.84375 -1.421875 31.78125 -1.421875 
Q 19.734375 -1.421875 13.25 4.234375 
Q 6.78125 9.90625 6.78125 20.515625 
Q 6.78125 27.484375 10.78125 32.3125 
Q 14.796875 37.15625 21.921875 38.8125 
M 18.3125 54.390625 
Q 18.3125 48.734375 21.84375 45.5625 
Q 25.390625 42.390625 31.78125 42.390625 
Q 38.140625 42.390625 41.71875 45.5625 
Q 45.3125 48.734375 45.3125 54.390625 
Q 45.3125 60.0625 41.71875 63.234375 
Q 38.140625 66.40625 31.78125 66.40625 
Q 25.390625 66.40625 21.84375 63.234375 
Q 18.3125 60.0625 18.3125 54.390625 
" id="BitstreamVeraSans-Roman-38"/>
      </defs>
      <g transform="translate(180.19375 244.66675)scale(0.2 -0.2)">
       <use xlink:href="#BitstreamVeraSans-Roman-30"/>
       <use x="63.623046875" xlink:href="#BitstreamVeraSans-Roman-2e"/>
       <use x="95.41015625" xlink:href="#BitstreamVeraSans-Roman-38"/>
      </g>
     </g>
    </g>
    <g id="ytick_6">
     <g id="line2d_54">
      <g>
       <use style="stroke:#000000;stroke-width:0.5;" x="216.0" xlink:href="#m1d6680ec2e" y="91.98"/>
      </g>
     </g>
     <g id="text_14">
      <!-- 1.0 -->
      <g transform="translate(180.19375 97.49875)scale(0.2 -0.2)">
       <use xlink:href="#BitstreamVeraSans-Roman-31"/>
       <use x="63.623046875" xlink:href="#BitstreamVeraSans-Roman-2e"/>
       <use x="95.41015625" xlink:href="#BitstreamVeraSans-Roman-30"/>
      </g>
     </g>
    </g>
    <g id="text_15">
     <!-- Green Value -->
     <defs>
      <path id="BitstreamVeraSans-Roman-20"/>
      <path d="M 54.890625 33.015625 
L 54.890625 0 
L 45.90625 0 
L 45.90625 32.71875 
Q 45.90625 40.484375 42.875 44.328125 
Q 39.84375 48.1875 33.796875 48.1875 
Q 26.515625 48.1875 22.3125 43.546875 
Q 18.109375 38.921875 18.109375 30.90625 
L 18.109375 0 
L 9.078125 0 
L 9.078125 54.6875 
L 18.109375 54.6875 
L 18.109375 46.1875 
Q 21.34375 51.125 25.703125 53.5625 
Q 30.078125 56 35.796875 56 
Q 45.21875 56 50.046875 50.171875 
Q 54.890625 44.34375 54.890625 33.015625 
" id="BitstreamVeraSans-Roman-6e"/>
      <path d="M 41.109375 46.296875 
Q 39.59375 47.171875 37.8125 47.578125 
Q 36.03125 48 33.890625 48 
Q 26.265625 48 22.1875 43.046875 
Q 18.109375 38.09375 18.109375 28.8125 
L 18.109375 0 
L 9.078125 0 
L 9.078125 54.6875 
L 18.109375 54.6875 
L 18.109375 46.1875 
Q 20.953125 51.171875 25.484375 53.578125 
Q 30.03125 56 36.53125 56 
Q 37.453125 56 38.578125 55.875 
Q 39.703125 55.765625 41.0625 55.515625 
z
" id="BitstreamVeraSans-Roman-72"/>
      <path d="M 9.421875 75.984375 
L 18.40625 75.984375 
L 18.40625 0 
L 9.421875 0 
z
" id="BitstreamVeraSans-Roman-6c"/>
      <path d="M 59.515625 10.40625 
L 59.515625 29.984375 
L 43.40625 29.984375 
L 43.40625 38.09375 
L 69.28125 38.09375 
L 69.28125 6.78125 
Q 63.578125 2.734375 56.6875 0.65625 
Q 49.8125 -1.421875 42 -1.421875 
Q 24.90625 -1.421875 15.25 8.5625 
Q 5.609375 18.5625 5.609375 36.375 
Q 5.609375 54.25 15.25 64.234375 
Q 24.90625 74.21875 42 74.21875 
Q 49.125 74.21875 55.546875 72.453125 
Q 61.96875 70.703125 67.390625 67.28125 
L 67.390625 56.78125 
Q 61.921875 61.421875 55.765625 63.765625 
Q 49.609375 66.109375 42.828125 66.109375 
Q 29.4375 66.109375 22.71875 58.640625 
Q 16.015625 51.171875 16.015625 36.375 
Q 16.015625 21.625 22.71875 14.15625 
Q 29.4375 6.6875 42.828125 6.6875 
Q 48.046875 6.6875 52.140625 7.59375 
Q 56.25 8.5 59.515625 10.40625 
" id="BitstreamVeraSans-Roman-47"/>
      <path d="M 28.609375 0 
L 0.78125 72.90625 
L 11.078125 72.90625 
L 34.1875 11.53125 
L 57.328125 72.90625 
L 67.578125 72.90625 
L 39.796875 0 
z
" id="BitstreamVeraSans-Roman-56"/>
      <path d="M 8.5 21.578125 
L 8.5 54.6875 
L 17.484375 54.6875 
L 17.484375 21.921875 
Q 17.484375 14.15625 20.5 10.265625 
Q 23.53125 6.390625 29.59375 6.390625 
Q 36.859375 6.390625 41.078125 11.03125 
Q 45.3125 15.671875 45.3125 23.6875 
L 45.3125 54.6875 
L 54.296875 54.6875 
L 54.296875 0 
L 45.3125 0 
L 45.3125 8.40625 
Q 42.046875 3.421875 37.71875 1 
Q 33.40625 -1.421875 27.6875 -1.421875 
Q 18.265625 -1.421875 13.375 4.4375 
Q 8.5 10.296875 8.5 21.578125 
" id="BitstreamVeraSans-Roman-75"/>
      <path d="M 34.28125 27.484375 
Q 23.390625 27.484375 19.1875 25 
Q 14.984375 22.515625 14.984375 16.5 
Q 14.984375 11.71875 18.140625 8.90625 
Q 21.296875 6.109375 26.703125 6.109375 
Q 34.1875 6.109375 38.703125 11.40625 
Q 43.21875 16.703125 43.21875 25.484375 
L 43.21875 27.484375 
z
M 52.203125 31.203125 
L 52.203125 0 
L 43.21875 0 
L 43.21875 8.296875 
Q 40.140625 3.328125 35.546875 0.953125 
Q 30.953125 -1.421875 24.3125 -1.421875 
Q 15.921875 -1.421875 10.953125 3.296875 
Q 6 8.015625 6 15.921875 
Q 6 25.140625 12.171875 29.828125 
Q 18.359375 34.515625 30.609375 34.515625 
L 43.21875 34.515625 
L 43.21875 35.40625 
Q 43.21875 41.609375 39.140625 45 
Q 35.0625 48.390625 27.6875 48.390625 
Q 23 48.390625 18.546875 47.265625 
Q 14.109375 46.140625 10.015625 43.890625 
L 10.015625 52.203125 
Q 14.9375 54.109375 19.578125 55.046875 
Q 24.21875 56 28.609375 56 
Q 40.484375 56 46.34375 49.84375 
Q 52.203125 43.703125 52.203125 31.203125 
" id="BitstreamVeraSans-Roman-61"/>
     </defs>
     <g transform="translate(170.2025 534.185625)rotate(-90.0)scale(0.24 -0.24)">
      <use xlink:href="#BitstreamVeraSans-Roman-47"/>
      <use x="77.490234375" xlink:href="#BitstreamVeraSans-Roman-72"/>
      <use x="118.572265625" xlink:href="#BitstreamVeraSans-Roman-65"/>
      <use x="180.095703125" xlink:href="#BitstreamVeraSans-Roman-65"/>
      <use x="241.619140625" xlink:href="#BitstreamVeraSans-Roman-6e"/>
      <use x="304.998046875" xlink:href="#BitstreamVeraSans-Roman-20"/>
      <use x="336.78515625" xlink:href="#BitstreamVeraSans-Roman-56"/>
      <use x="405.083984375" xlink:href="#BitstreamVeraSans-Roman-61"/>
      <use x="466.36328125" xlink:href="#BitstreamVeraSans-Roman-6c"/>
      <use x="494.146484375" xlink:href="#BitstreamVeraSans-Roman-75"/>
      <use x="557.525390625" xlink:href="#BitstreamVeraSans-Roman-65"/>
     </g>
    </g>
   </g>
   <g id="legend_1">
    <g id="line2d_55">
     <path d="M 1316.16 123.41625 
L 1349.76 123.41625 
" style="fill:none;stroke:#000000;stroke-dasharray:3.000000,5.000000,1.000000,5.000000;stroke-dashoffset:0.0;"/>
    </g>
    <g id="line2d_56"/>
    <g id="text_16">
     <!-- TV Denoised -->
     <defs>
      <path d="M 45.40625 46.390625 
L 45.40625 75.984375 
L 54.390625 75.984375 
L 54.390625 0 
L 45.40625 0 
L 45.40625 8.203125 
Q 42.578125 3.328125 38.25 0.953125 
Q 33.9375 -1.421875 27.875 -1.421875 
Q 17.96875 -1.421875 11.734375 6.484375 
Q 5.515625 14.40625 5.515625 27.296875 
Q 5.515625 40.1875 11.734375 48.09375 
Q 17.96875 56 27.875 56 
Q 33.9375 56 38.25 53.625 
Q 42.578125 51.265625 45.40625 46.390625 
M 14.796875 27.296875 
Q 14.796875 17.390625 18.875 11.75 
Q 22.953125 6.109375 30.078125 6.109375 
Q 37.203125 6.109375 41.296875 11.75 
Q 45.40625 17.390625 45.40625 27.296875 
Q 45.40625 37.203125 41.296875 42.84375 
Q 37.203125 48.484375 30.078125 48.484375 
Q 22.953125 48.484375 18.875 42.84375 
Q 14.796875 37.203125 14.796875 27.296875 
" id="BitstreamVeraSans-Roman-64"/>
      <path d="M 19.671875 64.796875 
L 19.671875 8.109375 
L 31.59375 8.109375 
Q 46.6875 8.109375 53.6875 14.9375 
Q 60.6875 21.78125 60.6875 36.53125 
Q 60.6875 51.171875 53.6875 57.984375 
Q 46.6875 64.796875 31.59375 64.796875 
z
M 9.8125 72.90625 
L 30.078125 72.90625 
Q 51.265625 72.90625 61.171875 64.09375 
Q 71.09375 55.28125 71.09375 36.53125 
Q 71.09375 17.671875 61.125 8.828125 
Q 51.171875 0 30.078125 0 
L 9.8125 0 
z
" id="BitstreamVeraSans-Roman-44"/>
      <path d="M 30.609375 48.390625 
Q 23.390625 48.390625 19.1875 42.75 
Q 14.984375 37.109375 14.984375 27.296875 
Q 14.984375 17.484375 19.15625 11.84375 
Q 23.34375 6.203125 30.609375 6.203125 
Q 37.796875 6.203125 41.984375 11.859375 
Q 46.1875 17.53125 46.1875 27.296875 
Q 46.1875 37.015625 41.984375 42.703125 
Q 37.796875 48.390625 30.609375 48.390625 
M 30.609375 56 
Q 42.328125 56 49.015625 48.375 
Q 55.71875 40.765625 55.71875 27.296875 
Q 55.71875 13.875 49.015625 6.21875 
Q 42.328125 -1.421875 30.609375 -1.421875 
Q 18.84375 -1.421875 12.171875 6.21875 
Q 5.515625 13.875 5.515625 27.296875 
Q 5.515625 40.765625 12.171875 48.375 
Q 18.84375 56 30.609375 56 
" id="BitstreamVeraSans-Roman-6f"/>
     </defs>
     <g transform="translate(1376.16 131.81625)scale(0.24 -0.24)">
      <use xlink:href="#BitstreamVeraSans-Roman-54"/>
      <use x="61.083984375" xlink:href="#BitstreamVeraSans-Roman-56"/>
      <use x="129.4921875" xlink:href="#BitstreamVeraSans-Roman-20"/>
      <use x="161.279296875" xlink:href="#BitstreamVeraSans-Roman-44"/>
      <use x="238.28125" xlink:href="#BitstreamVeraSans-Roman-65"/>
      <use x="299.8046875" xlink:href="#BitstreamVeraSans-Roman-6e"/>
      <use x="363.18359375" xlink:href="#BitstreamVeraSans-Roman-6f"/>
      <use x="424.365234375" xlink:href="#BitstreamVeraSans-Roman-69"/>
      <use x="452.1484375" xlink:href="#BitstreamVeraSans-Roman-73"/>
      <use x="504.248046875" xlink:href="#BitstreamVeraSans-Roman-65"/>
      <use x="565.771484375" xlink:href="#BitstreamVeraSans-Roman-64"/>
     </g>
    </g>
    <g id="line2d_57">
     <path d="M 1316.16 158.64375 
L 1349.76 158.64375 
" style="fill:none;stroke:#008000;stroke-linecap:square;"/>
    </g>
    <g id="line2d_58">
     <g>
      <use style="fill:#008000;stroke:#000000;stroke-width:0.5;" x="1316.16" xlink:href="#m8531c7ac9c" y="158.64375"/>
      <use style="fill:#008000;stroke:#000000;stroke-width:0.5;" x="1349.76" xlink:href="#m8531c7ac9c" y="158.64375"/>
     </g>
    </g>
    <g id="text_17">
     <!-- Constant Intervals -->
     <defs>
      <path d="M 2.984375 54.6875 
L 12.5 54.6875 
L 29.59375 8.796875 
L 46.6875 54.6875 
L 56.203125 54.6875 
L 35.6875 0 
L 23.484375 0 
z
" id="BitstreamVeraSans-Roman-76"/>
      <path d="M 18.3125 70.21875 
L 18.3125 54.6875 
L 36.8125 54.6875 
L 36.8125 47.703125 
L 18.3125 47.703125 
L 18.3125 18.015625 
Q 18.3125 11.328125 20.140625 9.421875 
Q 21.96875 7.515625 27.59375 7.515625 
L 36.8125 7.515625 
L 36.8125 0 
L 27.59375 0 
Q 17.1875 0 13.234375 3.875 
Q 9.28125 7.765625 9.28125 18.015625 
L 9.28125 47.703125 
L 2.6875 47.703125 
L 2.6875 54.6875 
L 9.28125 54.6875 
L 9.28125 70.21875 
z
" id="BitstreamVeraSans-Roman-74"/>
      <path d="M 64.40625 67.28125 
L 64.40625 56.890625 
Q 59.421875 61.53125 53.78125 63.8125 
Q 48.140625 66.109375 41.796875 66.109375 
Q 29.296875 66.109375 22.65625 58.46875 
Q 16.015625 50.828125 16.015625 36.375 
Q 16.015625 21.96875 22.65625 14.328125 
Q 29.296875 6.6875 41.796875 6.6875 
Q 48.140625 6.6875 53.78125 8.984375 
Q 59.421875 11.28125 64.40625 15.921875 
L 64.40625 5.609375 
Q 59.234375 2.09375 53.4375 0.328125 
Q 47.65625 -1.421875 41.21875 -1.421875 
Q 24.65625 -1.421875 15.125 8.703125 
Q 5.609375 18.84375 5.609375 36.375 
Q 5.609375 53.953125 15.125 64.078125 
Q 24.65625 74.21875 41.21875 74.21875 
Q 47.75 74.21875 53.53125 72.484375 
Q 59.328125 70.75 64.40625 67.28125 
" id="BitstreamVeraSans-Roman-43"/>
      <path d="M 9.8125 72.90625 
L 19.671875 72.90625 
L 19.671875 0 
L 9.8125 0 
z
" id="BitstreamVeraSans-Roman-49"/>
     </defs>
     <g transform="translate(1376.16 167.04375)scale(0.24 -0.24)">
      <use xlink:href="#BitstreamVeraSans-Roman-43"/>
      <use x="69.82421875" xlink:href="#BitstreamVeraSans-Roman-6f"/>
      <use x="131.005859375" xlink:href="#BitstreamVeraSans-Roman-6e"/>
      <use x="194.384765625" xlink:href="#BitstreamVeraSans-Roman-73"/>
      <use x="246.484375" xlink:href="#BitstreamVeraSans-Roman-74"/>
      <use x="285.693359375" xlink:href="#BitstreamVeraSans-Roman-61"/>
      <use x="346.97265625" xlink:href="#BitstreamVeraSans-Roman-6e"/>
      <use x="410.3515625" xlink:href="#BitstreamVeraSans-Roman-74"/>
      <use x="449.560546875" xlink:href="#BitstreamVeraSans-Roman-20"/>
      <use x="481.34765625" xlink:href="#BitstreamVeraSans-Roman-49"/>
      <use x="510.83984375" xlink:href="#BitstreamVeraSans-Roman-6e"/>
      <use x="574.21875" xlink:href="#BitstreamVeraSans-Roman-74"/>
      <use x="613.427734375" xlink:href="#BitstreamVeraSans-Roman-65"/>
      <use x="674.951171875" xlink:href="#BitstreamVeraSans-Roman-72"/>
      <use x="716.064453125" xlink:href="#BitstreamVeraSans-Roman-76"/>
      <use x="775.244140625" xlink:href="#BitstreamVeraSans-Roman-61"/>
      <use x="836.5234375" xlink:href="#BitstreamVeraSans-Roman-6c"/>
      <use x="864.306640625" xlink:href="#BitstreamVeraSans-Roman-73"/>
     </g>
    </g>
   </g>
  </g>
 </g>
 <defs>
  <clipPath id="pfdff49c95e">
   <rect height="735.84" width="1071.36" x="216.0" y="91.98"/>
  </clipPath>
 </defs>
</svg>
