<?xml version="1.0" encoding="utf-8" standalone="no"?>
<!DOCTYPE svg PUBLIC "-//W3C//DTD SVG 1.1//EN"
  "http://www.w3.org/Graphics/SVG/1.1/DTD/svg11.dtd">
<!-- Created with matplotlib (http://matplotlib.org/) -->
<svg height="705pt" version="1.1" viewBox="0 0 1326 705" width="1326pt" xmlns="http://www.w3.org/2000/svg" xmlns:xlink="http://www.w3.org/1999/xlink">
 <defs>
  <style type="text/css">
*{stroke-linecap:butt;stroke-linejoin:round;stroke-miterlimit:100000;}
  </style>
 </defs>
 <g id="figure_1">
  <g id="patch_1">
   <path d="M 0 705.6 
L 1326.6 705.6 
L 1326.6 0 
L 0 0 
z
" style="fill:#ffffff;"/>
  </g>
  <g id="axes_1">
   <g id="patch_2">
    <path d="M 165.825 635.04 
L 988.317 635.04 
L 988.317 70.56 
L 165.825 70.56 
z
" style="fill:#ffffff;"/>
   </g>
   <g id="line2d_1">
    <path clip-path="url(#p5f739fa705)" d="M 165.825 277.667712 
L 178.061698 277.667712 
L 179.145963 290.490816 
L 179.610647 297.876096 
L 179.920437 300.218688 
L 180.230227 302.740032 
L 180.385122 302.740032 
L 180.540017 304.91328 
L 180.849807 312.29856 
L 181.004702 312.966528 
L 181.314492 315.647808 
L 182.553651 325.714368 
L 182.708546 326.391744 
L 182.863441 328.405056 
L 183.018336 328.405056 
L 183.173231 329.073024 
L 183.947705 335.11296 
L 184.257495 336.448896 
L 184.72218 341.152896 
L 184.877075 342.996864 
L 185.031969 342.996864 
L 185.806444 358.25664 
L 185.961339 358.934016 
L 186.116234 358.934016 
L 186.271129 359.263296 
L 186.426024 359.940672 
L 186.735814 359.940672 
L 187.200498 363.28992 
L 187.510288 367.316544 
L 188.439658 376.03776 
L 189.059237 383.761728 
L 189.369027 388.117632 
L 189.523922 388.7856 
L 190.763081 398.85216 
L 190.917976 398.85216 
L 191.537556 406.23744 
L 191.692451 406.23744 
L 192.002241 407.573376 
L 192.157136 407.573376 
L 192.466925 408.467136 
L 193.2414 408.467136 
L 193.396295 408.692928 
L 193.706085 408.692928 
L 193.86098 408.91872 
L 194.015875 409.586688 
L 194.480559 409.586688 
L 194.635454 410.264064 
L 194.790349 410.264064 
L 194.945244 411.6 
L 195.100139 411.6 
L 195.409929 413.613312 
L 195.564824 413.613312 
L 195.874614 414.958656 
L 196.029508 414.958656 
L 197.578458 436.427712 
L 198.043142 443.812992 
L 199.437197 456.560832 
L 199.592092 458.574144 
L 200.056776 467.29536 
L 200.211671 468.969984 
L 200.521461 476.016576 
L 200.831251 476.016576 
L 203.309569 508.897536 
L 203.774254 521.645376 
L 203.929149 526.678656 
L 204.238939 544.456954 
L 204.703624 558.548256 
L 205.168308 564.587251 
L 205.323203 565.592966 
L 205.478098 565.592966 
L 205.632993 566.935488 
L 205.787888 567.270413 
L 206.252573 571.967827 
L 207.956417 592.767974 
L 208.111312 593.10384 
L 208.730892 600.045062 
L 217.559902 600.045062 
L 218.024586 596.793658 
L 218.179481 594.110496 
L 218.334376 593.438765 
L 218.644166 590.083872 
L 218.799061 589.413082 
L 219.883325 579.348403 
L 220.03822 576.664301 
L 220.193115 575.99351 
L 220.6578 570.625306 
L 220.812695 569.954515 
L 221.122485 565.928832 
L 221.27738 564.922176 
L 222.516539 542.444582 
L 222.671434 540.433152 
L 223.291014 524.326656 
L 224.065488 508.897536 
L 224.220383 506.884224 
L 225.304647 482.72448 
L 225.614437 479.036544 
L 226.698702 453.870144 
L 227.163386 443.135616 
L 227.628071 435.091776 
L 228.092756 422.673216 
L 228.557441 410.932032 
L 229.022125 402.878784 
L 229.17702 400.865472 
L 229.7966 386.772288 
L 229.951495 385.436352 
L 231.345549 362.621952 
L 231.500444 361.276608 
L 231.810234 356.582016 
L 232.894498 343.834176 
L 233.049393 342.159552 
L 233.204288 342.159552 
L 233.668973 334.435584 
L 233.823868 333.099648 
L 234.133658 328.405056 
L 234.598342 321.019776 
L 234.908132 317.66112 
L 235.063027 316.993152 
L 235.372817 312.29856 
L 235.527712 310.953216 
L 235.682607 310.953216 
L 235.992397 308.271936 
L 236.302186 304.245312 
L 236.611976 300.557376 
L 236.766871 299.88 
L 236.921766 298.544064 
L 237.076661 298.205376 
L 237.851136 289.48416 
L 238.006031 288.138816 
L 238.160925 288.138816 
L 238.470715 284.789568 
L 238.9354 276.73632 
L 239.709875 268.015104 
L 240.329454 262.313856 
L 241.258824 247.214016 
L 242.343088 237.815424 
L 242.497983 234.795456 
L 242.652878 234.127488 
L 243.117563 228.42624 
L 243.582247 221.718336 
L 243.737142 221.04096 
L 243.892037 218.020992 
L 244.046932 217.353024 
L 244.201827 216.00768 
L 244.666512 208.970496 
L 244.976302 206.618496 
L 245.286092 202.93056 
L 245.905671 196.890624 
L 246.215461 189.176064 
L 246.989936 178.102848 
L 247.609515 167.36832 
L 247.76441 166.022976 
L 248.229095 151.261824 
L 248.38399 149.91648 
L 248.538885 147.2352 
L 248.69378 146.567232 
L 248.848675 143.876544 
L 249.003569 143.208576 
L 249.158464 140.188608 
L 249.468254 138.513984 
L 249.778044 133.142016 
L 249.932939 131.467392 
L 250.552519 120.394176 
L 250.707414 119.726208 
L 251.017203 115.031616 
L 251.172098 114.203712 
L 252.566153 114.203712 
L 252.875942 111.334272 
L 253.030837 111.334272 
L 253.340627 107.429952 
L 261.395163 107.429952 
L 261.550058 107.646336 
L 262.169637 117.374208 
L 262.479427 119.05824 
L 262.789217 120.732864 
L 263.563692 139.859328 
L 263.873481 145.221888 
L 264.338166 151.261824 
L 264.957746 164.677632 
L 265.112641 165.355008 
L 265.577325 174.744192 
L 265.73222 176.089536 
L 266.04201 182.79744 
L 266.97138 200.917248 
L 267.281169 212.987712 
L 267.590959 219.027648 
L 267.900749 224.399616 
L 269.294803 263.98848 
L 269.914383 276.397632 
L 270.379068 288.477504 
L 270.688858 297.537408 
L 270.843753 298.873344 
L 272.237807 341.152896 
L 274.406336 400.197504 
L 274.87102 407.573376 
L 275.645495 428.045184 
L 275.955285 440.793024 
L 276.265075 448.846272 
L 276.419969 450.182208 
L 277.504234 471.989952 
L 277.814024 479.375232 
L 279.827658 512.585472 
L 281.686397 535.73856 
L 282.151081 537.751872 
L 282.305976 537.751872 
L 282.770661 544.456954 
L 283.080451 551.83847 
L 283.390241 554.522573 
L 283.700031 555.864154 
L 284.00982 555.864154 
L 284.164715 557.205734 
L 284.31961 557.205734 
L 284.6294 558.548256 
L 284.784295 558.548256 
L 285.094085 560.560627 
L 285.713664 563.24473 
L 285.868559 563.24473 
L 286.023454 563.91552 
L 286.333244 563.91552 
L 286.488139 564.587251 
L 286.643034 564.587251 
L 286.952824 565.928832 
L 287.107719 565.928832 
L 287.727298 568.612934 
L 288.346878 573.309408 
L 288.501773 573.980198 
L 288.656668 573.980198 
L 288.966458 577.335091 
L 289.121353 577.335091 
L 289.276247 579.348403 
L 289.431142 579.348403 
L 289.586037 580.019194 
L 289.895827 582.703296 
L 290.050722 583.039162 
L 290.205617 583.709952 
L 290.515407 586.728979 
L 290.670302 587.40071 
L 290.980092 589.413082 
L 291.134986 589.413082 
L 291.289881 590.419738 
L 291.599671 594.110496 
L 291.754566 594.49152 
L 295.007359 594.49152 
L 295.162254 595.466189 
L 302.752105 595.452077 
L 302.907 593.438765 
L 303.681475 576.664301 
L 304.455949 569.283725 
L 305.230424 559.889837 
L 305.695108 543.786163 
L 306.004898 533.725248 
L 306.159793 532.379904 
L 306.314688 529.359936 
L 306.624478 517.618752 
L 306.779373 514.260096 
L 307.398953 492.123072 
L 308.173427 481.388544 
L 309.102797 459.242112 
L 311.73601 389.124288 
L 312.66538 354.230016 
L 312.820275 351.210048 
L 313.130064 340.814208 
L 315.143698 278.749632 
L 315.298593 276.397632 
L 315.763278 265.324416 
L 317.622017 234.466176 
L 317.931807 229.432896 
L 318.551386 217.691712 
L 318.861176 213.994368 
L 319.016071 213.3264 
L 319.325861 208.970496 
L 319.480756 207.625152 
L 319.945441 200.917248 
L 320.410125 193.870656 
L 320.87481 184.472064 
L 321.339495 174.076224 
L 321.649285 168.704256 
L 322.423759 153.943104 
L 323.043339 146.840064 
L 323.817814 146.840064 
L 323.972708 144.8832 
L 324.127603 144.8832 
L 324.437393 143.208576 
L 324.592288 140.527296 
L 324.747183 139.859328 
L 325.056973 136.500672 
L 325.521658 125.427456 
L 325.676553 122.802624 
L 332.491929 122.802624 
L 332.646824 123.414144 
L 332.956614 128.447424 
L 334.040878 138.513984 
L 334.350668 141.195264 
L 334.505563 142.20192 
L 334.660458 142.20192 
L 334.815353 143.547264 
L 335.125142 147.903168 
L 335.744722 166.361664 
L 335.899617 167.029632 
L 336.209407 170.0496 
L 336.364302 170.717568 
L 337.758356 182.129472 
L 337.913251 182.79744 
L 338.068146 182.79744 
L 338.223041 185.47872 
L 338.377936 185.47872 
L 338.532831 187.492032 
L 338.687725 187.492032 
L 338.997515 190.18272 
L 339.307305 191.518656 
L 339.4622 191.518656 
L 339.77199 194.877312 
L 340.236675 203.598528 
L 340.391569 203.598528 
L 341.320939 213.994368 
L 341.475834 216.685056 
L 341.940519 230.439552 
L 342.095414 231.10752 
L 343.334573 245.868672 
L 343.489468 245.868672 
L 343.644363 247.214016 
L 343.799258 247.214016 
L 345.193312 259.293888 
L 345.503102 263.98848 
L 346.122681 271.035072 
L 346.277576 271.364352 
L 346.432471 272.041728 
L 347.826525 283.444224 
L 347.98142 283.444224 
L 348.136315 284.112192 
L 348.29121 284.112192 
L 348.446105 284.45088 
L 349.22058 293.510784 
L 349.375475 294.856128 
L 349.840159 300.886656 
L 350.149949 303.577344 
L 350.304844 303.906624 
L 350.769529 306.597312 
L 350.924424 308.939904 
L 351.079319 308.939904 
L 351.544003 313.643904 
L 351.698898 315.647808 
L 352.628268 337.126272 
L 352.938058 344.172864 
L 353.247847 351.887424 
L 353.557637 361.615296 
L 353.867427 373.695168 
L 354.022322 375.369792 
L 354.332112 381.409728 
L 355.881061 406.905408 
L 356.035956 407.573376 
L 356.500641 418.646592 
L 356.810431 428.713152 
L 357.12022 433.746432 
L 357.43001 439.44768 
L 358.514275 457.2288 
L 358.669169 458.574144 
L 358.978959 464.61408 
L 359.133854 466.627392 
L 359.598539 479.375232 
L 359.908329 482.72448 
L 360.063224 485.415168 
L 361.457278 532.041216 
L 362.076858 542.779507 
L 362.541542 556.200019 
L 362.851332 561.232358 
L 363.006227 562.909805 
L 363.625807 583.039162 
L 363.780702 588.332102 
L 370.286288 588.332102 
L 370.596078 585.387398 
L 371.060763 577.335091 
L 371.525447 572.638618 
L 371.990132 570.625306 
L 373.229292 555.528288 
L 373.539081 546.470266 
L 373.693976 546.1344 
L 374.003766 541.437926 
L 374.313556 538.081152 
L 374.778241 531.711936 
L 374.933136 531.373248 
L 375.242925 528.35328 
L 375.39782 527.007936 
L 376.0174 517.618752 
L 376.32719 514.260096 
L 377.101664 502.189632 
L 377.256559 500.844288 
L 377.411454 498.163008 
L 377.566349 497.485632 
L 377.721244 497.485632 
L 377.876139 493.459008 
L 378.031034 492.79104 
L 378.650614 477.36192 
L 379.115298 466.956672 
L 379.425088 457.896768 
L 379.889773 452.19552 
L 380.354458 440.454336 
L 380.819142 428.713152 
L 380.974037 426.361152 
L 381.283827 416.63328 
L 381.748512 408.580032 
L 385.1562 329.740992 
L 385.311095 328.405056 
L 385.77578 319.674432 
L 385.930675 319.006464 
L 386.240464 314.97984 
L 386.860044 301.564032 
L 387.169834 296.86944 
L 387.324729 295.862784 
L 387.634519 290.829504 
L 388.099203 286.464192 
L 388.408993 283.444224 
L 388.873678 279.4176 
L 389.028573 279.4176 
L 390.112837 270.696384 
L 390.267732 270.696384 
L 390.732417 268.683072 
L 390.887312 266.331072 
L 391.042207 266.331072 
L 391.661786 262.981824 
L 391.971576 258.616512 
L 392.746051 249.227328 
L 393.055841 245.868672 
L 393.210736 245.868672 
L 393.520525 243.85536 
L 393.67542 242.848704 
L 393.98521 238.154112 
L 394.449895 233.958144 
L 394.91458 233.958144 
L 395.069475 233.45952 
L 395.224369 231.944832 
L 395.379264 231.944832 
L 395.534159 231.775488 
L 395.689054 231.10752 
L 395.843949 231.10752 
L 396.153739 228.42624 
L 396.463529 225.067584 
L 396.618424 223.054272 
L 397.083108 212.319744 
L 397.702688 206.957184 
L 397.857583 206.957184 
L 398.632058 200.917248 
L 398.786953 200.239872 
L 399.251637 195.54528 
L 399.716322 188.498688 
L 399.871217 187.83072 
L 400.026112 184.810752 
L 400.335902 183.465408 
L 400.490797 181.452096 
L 400.800586 176.428224 
L 400.955481 175.421568 
L 401.110376 171.724224 
L 401.265271 171.056256 
L 401.575061 167.36832 
L 401.729956 166.690944 
L 402.349536 157.640448 
L 402.659325 154.62048 
L 402.81422 153.275136 
L 403.278905 145.889856 
L 403.588695 143.876544 
L 403.74359 143.547264 
L 403.898485 142.032576 
L 404.05338 142.032576 
L 404.208275 141.195264 
L 404.363169 138.513984 
L 404.518064 137.846016 
L 404.672959 135.832704 
L 405.137644 127.10208 
L 405.292539 126.434112 
L 405.602329 124.09152 
L 405.757224 120.394176 
L 405.912119 119.726208 
L 406.067014 117.712896 
L 406.376803 112.011648 
L 406.686593 107.317056 
L 407.770858 96.24384 
L 407.925753 95.566464 
L 408.390437 88.190592 
L 408.545332 86.845248 
L 408.855122 79.469376 
L 409.474702 79.431744 
L 415.050919 79.431744 
L 415.515603 88.190592 
L 415.825393 93.553152 
L 415.980288 99.593088 
L 416.135183 100.270464 
L 416.599868 107.646336 
L 416.754763 110.666304 
L 416.909658 111.334272 
L 417.839027 121.73952 
L 418.458607 132.474048 
L 418.768397 142.540608 
L 419.078186 145.221888 
L 419.387976 148.580544 
L 420.007556 160.651008 
L 420.936925 192.026688 
L 422.485875 249.227328 
L 423.105454 277.404288 
L 423.879929 302.232 
L 424.034824 304.91328 
L 424.964193 333.767616 
L 425.428878 357.92736 
L 425.893563 380.572416 
L 426.048458 389.462976 
L 426.358247 418.317312 
L 426.822932 436.7664 
L 427.907197 500.17632 
L 428.526776 510.233472 
L 428.991461 514.937472 
L 429.301251 524.326656 
L 430.23062 537.074496 
L 430.385515 540.433152 
L 430.54041 541.102061 
L 431.005095 546.470266 
L 431.15999 547.141056 
L 431.314885 547.141056 
L 432.089359 554.522573 
L 432.708939 561.903149 
L 432.863834 562.909805 
L 433.638308 562.909805 
L 433.948098 565.258042 
L 434.412783 569.283725 
L 434.567678 569.283725 
L 434.722573 569.954515 
L 435.497047 569.954515 
L 435.651942 570.625306 
L 435.961732 573.980198 
L 436.116627 573.980198 
L 436.271522 575.99351 
L 436.426417 575.99351 
L 437.045997 581.02585 
L 437.355786 581.02585 
L 437.510681 581.361715 
L 437.665576 582.313805 
L 441.383054 582.313805 
L 441.537949 582.703296 
L 441.692844 583.597997 
L 442.002634 583.597997 
L 442.157529 585.387398 
L 442.312424 585.387398 
L 442.467319 586.058189 
L 442.622214 588.071501 
L 442.932003 597.129523 
L 443.086898 597.129523 
L 443.241793 599.47776 
L 443.396688 599.849376 
L 456.407861 599.849376 
L 456.562756 598.80697 
L 456.872546 593.438765 
L 457.027441 592.097184 
L 457.801915 577.335091 
L 458.2666 571.631962 
L 458.57639 563.91552 
L 459.041075 557.205734 
L 459.505759 549.490234 
L 459.660654 547.811846 
L 460.125339 539.765184 
L 460.435129 537.074496 
L 460.590024 533.725248 
L 460.744919 533.047872 
L 461.364498 519.632064 
L 461.984078 508.558848 
L 462.603658 491.445696 
L 463.223237 474.671232 
L 463.842817 457.896768 
L 466.166241 401.20416 
L 467.250505 357.588672 
L 468.02498 328.066368 
L 469.573929 284.112192 
L 469.728824 281.430912 
L 469.883719 280.762944 
L 470.658193 262.643136 
L 471.122878 246.53664 
L 471.587563 235.802112 
L 472.207142 225.067584 
L 472.826722 210.306432 
L 473.291407 198.22656 
L 473.601197 193.673088 
L 476.389305 193.673088 
L 477.473569 181.452096 
L 477.938254 169.710912 
L 478.248044 154.94976 
L 478.402939 151.600512 
L 478.712729 143.09568 
L 479.022519 134.826048 
L 479.177414 132.812736 
L 479.487203 121.758336 
L 486.147685 121.758336 
L 486.30258 122.746176 
L 486.612369 127.440768 
L 487.077054 132.13536 
L 487.696634 136.161984 
L 488.006424 139.859328 
L 488.780898 145.889856 
L 488.935793 146.567232 
L 490.329847 158.647104 
L 490.484742 162.66432 
L 490.639637 163.670976 
L 490.794532 163.670976 
L 491.569007 174.744192 
L 491.723902 175.421568 
L 491.878797 178.770816 
L 492.033692 179.438784 
L 493.272851 194.209344 
L 493.427746 194.209344 
L 493.737536 197.558592 
L 493.892431 197.558592 
L 494.20222 200.917248 
L 494.357115 201.585216 
L 494.666905 204.943872 
L 494.8218 204.943872 
L 495.286485 208.970496 
L 495.44138 209.299776 
L 495.906064 212.987712 
L 496.060959 215.6784 
L 496.215854 216.346368 
L 496.370749 216.346368 
L 496.525644 217.014336 
L 496.680539 217.014336 
L 496.835434 218.35968 
L 497.300119 225.067584 
L 497.609908 226.751616 
L 497.764803 228.087552 
L 498.074593 231.775488 
L 498.229488 233.120832 
L 498.539278 236.808768 
L 498.694173 237.486144 
L 499.003963 240.506112 
L 499.468647 243.85536 
L 499.623542 243.85536 
L 499.778437 244.306944 
L 500.088227 244.306944 
L 500.707807 249.895296 
L 503.186125 281.092224 
L 504.115495 287.809536 
L 506.593814 319.006464 
L 506.748708 320.351808 
L 507.058498 324.378432 
L 507.678078 332.43168 
L 508.142763 341.820864 
L 508.452553 346.515456 
L 510.775976 397.516224 
L 511.085766 409.925376 
L 511.240661 411.27072 
L 511.395556 416.304 
L 511.550451 416.971968 
L 511.860241 423.679872 
L 512.324925 433.078464 
L 512.634715 446.494272 
L 512.944505 461.594112 
L 513.254295 467.963328 
L 514.183664 505.53888 
L 514.493454 515.60544 
L 514.648349 516.273408 
L 514.803244 517.844544 
L 514.958139 520.977408 
L 515.113034 521.645376 
L 515.577719 529.698624 
L 516.042403 534.393216 
L 516.352193 539.087808 
L 516.816878 543.115373 
L 516.971773 543.115373 
L 517.281563 544.456954 
L 517.901142 549.154368 
L 518.056037 549.825158 
L 518.210932 557.877466 
L 518.365827 557.877466 
L 518.675617 558.883181 
L 518.830512 558.883181 
L 518.985407 559.554912 
L 519.140302 561.399821 
L 519.295197 561.399821 
L 519.759881 563.24473 
L 520.069671 564.587251 
L 520.379461 569.398502 
L 526.420363 569.398502 
L 526.575258 568.277069 
L 527.504627 554.522573 
L 527.659522 554.522573 
L 528.279102 547.141056 
L 528.433997 546.470266 
L 528.588892 545.128685 
L 528.898681 540.433152 
L 529.053576 538.41984 
L 529.208471 538.081152 
L 529.518261 535.73856 
L 529.828051 534.393216 
L 529.982946 534.393216 
L 530.292736 531.373248 
L 531.222105 523.658688 
L 531.377 522.981312 
L 531.99658 514.260096 
L 532.151475 509.565504 
L 532.306369 508.897536 
L 532.616159 505.2096 
L 532.925949 503.525568 
L 533.080844 502.189632 
L 533.235739 499.498944 
L 533.390634 499.498944 
L 534.165108 490.777728 
L 534.320003 490.10976 
L 534.784688 483.401856 
L 535.714058 456.560832 
L 536.178742 447.16224 
L 536.333637 445.148928 
L 536.798322 435.091776 
L 536.953217 433.078464 
L 537.263007 426.69984 
L 537.727692 416.971968 
L 538.192376 410.264064 
L 538.657061 402.540096 
L 538.966851 398.184192 
L 539.276641 391.476288 
L 539.431536 390.798912 
L 540.051115 376.03776 
L 540.670695 360.60864 
L 540.82559 356.582016 
L 540.980485 355.914048 
L 541.754959 343.495488 
L 541.909854 342.159552 
L 542.219644 335.11296 
L 542.374539 333.099648 
L 543.149014 315.647808 
L 543.923488 308.939904 
L 544.078383 304.91328 
L 544.233278 304.91328 
L 545.007753 295.524096 
L 545.162647 295.524096 
L 546.401807 285.118848 
L 546.556702 285.118848 
L 546.711597 283.782912 
L 546.866492 283.444224 
L 547.021386 282.776256 
L 547.486071 278.749632 
L 547.640966 276.068352 
L 547.795861 275.390976 
L 548.105651 271.364352 
L 548.570336 263.98848 
L 549.03502 253.92192 
L 549.189915 252.576576 
L 549.6546 245.868672 
L 550.119285 241.512768 
L 550.583969 235.472832 
L 550.738864 234.127488 
L 551.203549 223.731648 
L 551.668234 213.994368 
L 551.978024 206.618496 
L 552.132919 205.61184 
L 552.752498 193.531968 
L 553.526973 178.102848 
L 553.681868 176.757504 
L 553.991658 170.388288 
L 554.611237 167.36832 
L 554.921027 164.348352 
L 555.850397 151.261824 
L 556.160186 148.580544 
L 556.315081 148.580544 
L 556.469976 147.2352 
L 556.934661 140.527296 
L 557.399346 133.142016 
L 558.17382 117.355392 
L 560.807034 117.355392 
L 560.961929 117.044928 
L 561.736403 107.646336 
L 561.891298 106.978368 
L 562.046193 105.633024 
L 562.355983 101.6064 
L 562.510878 100.938432 
L 562.665773 98.784 
L 569.171359 98.784 
L 569.326254 98.92512 
L 569.481149 103.9584 
L 569.636044 103.9584 
L 569.790939 107.147712 
L 569.945834 107.147712 
L 570.410519 112.340928 
L 570.720308 120.394176 
L 570.875203 125.427456 
L 571.030098 126.7728 
L 571.184993 129.115392 
L 571.339888 129.115392 
L 571.649678 132.474048 
L 572.424153 141.195264 
L 572.733942 147.903168 
L 573.198627 152.607168 
L 573.663312 159.813696 
L 573.818207 159.813696 
L 573.973102 160.989696 
L 574.127997 163.341696 
L 574.282892 163.341696 
L 575.212261 176.757504 
L 575.676946 184.472064 
L 576.45142 201.246528 
L 577.071 223.39296 
L 577.845475 266.001792 
L 578.310159 273.377664 
L 578.774844 284.789568 
L 579.859108 311.630592 
L 580.478688 321.019776 
L 581.253163 340.14624 
L 582.027637 366.987264 
L 582.647217 392.482944 
L 582.802112 398.184192 
L 583.111902 412.606656 
L 584.351061 463.936704 
L 584.660851 468.969984 
L 584.970641 476.016576 
L 586.054905 500.844288 
L 586.2098 507.213504 
L 586.364695 508.558848 
L 586.51959 513.592128 
L 586.674485 514.937472 
L 587.139169 521.984064 
L 587.294064 523.32 
L 587.758749 533.38656 
L 587.913644 534.054528 
L 588.378329 541.102061 
L 589.307698 552.509261 
L 589.462593 553.180051 
L 590.546858 566.599622 
L 590.701753 566.599622 
L 590.856647 567.942144 
L 592.250702 567.942144 
L 592.405597 568.612934 
L 592.715386 568.612934 
L 592.870281 569.283725 
L 593.180071 569.283725 
L 593.334966 570.290381 
L 593.489861 570.290381 
L 594.109441 572.638618 
L 594.419231 575.99351 
L 594.883915 578.006822 
L 595.03881 580.019194 
L 595.193705 580.019194 
L 596.123075 587.372486 
L 601.544397 587.372486 
L 602.009081 590.609779 
L 610.992986 590.609779 
L 611.302776 587.40071 
L 611.767461 582.703296 
L 612.232146 579.684269 
L 612.387041 579.684269 
L 612.541936 577.782912 
L 612.851725 577.782912 
L 613.161515 575.32272 
L 613.781095 568.612934 
L 614.24578 565.258042 
L 614.400675 564.587251 
L 614.710464 562.573939 
L 615.175149 558.883181 
L 615.639834 553.515917 
L 615.949624 545.46361 
L 616.878993 522.313344 
L 617.343678 513.25344 
L 617.653468 504.532224 
L 617.963258 491.445696 
L 618.118153 489.771072 
L 618.273047 489.771072 
L 618.582837 486.083136 
L 618.892627 480.0432 
L 619.512207 465.950016 
L 620.596471 438.441024 
L 620.751366 436.7664 
L 622.14542 384.758976 
L 622.45521 373.017792 
L 623.07479 360.269952 
L 623.849264 333.767616 
L 624.468844 302.570688 
L 625.088424 282.09888 
L 626.172688 236.808768 
L 626.637373 210.306432 
L 626.792268 207.625152 
L 627.102058 196.213248 
L 627.411847 181.790784 
L 627.721637 173.737536 
L 628.496112 155.956416 
L 629.115692 145.560576 
L 629.735271 138.768 
L 630.199956 138.768 
L 630.509746 137.846016 
L 630.664641 135.832704 
L 630.974431 135.832704 
L 631.28422 133.142016 
L 631.59401 127.779456 
L 631.748905 125.766144 
L 631.9038 125.766144 
L 632.21359 123.752832 
L 632.368485 123.752832 
L 632.678275 121.071552 
L 632.988064 119.38752 
L 633.297854 119.236992 
L 640.42302 119.236992 
L 640.577915 121.400832 
L 640.887705 131.128704 
L 641.35239 135.832704 
L 642.126864 144.55392 
L 642.436654 147.2352 
L 643.056234 156.633792 
L 643.520919 158.976384 
L 644.295393 168.036288 
L 644.760078 175.08288 
L 645.379658 189.844032 
L 645.689447 194.877312 
L 645.999237 197.558592 
L 646.154132 200.239872 
L 646.309027 200.917248 
L 646.618817 204.943872 
L 647.238397 210.983808 
L 647.393292 211.651776 
L 647.548186 211.651776 
L 647.857976 212.987712 
L 648.167766 215.6784 
L 648.477556 218.35968 
L 648.632451 218.35968 
L 648.787346 219.027648 
L 648.942241 219.027648 
L 649.097136 219.705024 
L 649.252031 219.705024 
L 649.406925 220.372992 
L 649.56182 220.372992 
L 650.1814 225.067584 
L 650.336295 225.067584 
L 650.49119 226.07424 
L 650.646085 226.07424 
L 650.955875 229.094208 
L 651.730349 235.802112 
L 652.040139 239.499456 
L 652.349929 239.499456 
L 652.659719 241.512768 
L 652.814614 241.842048 
L 653.124403 245.200704 
L 653.743983 245.200704 
L 654.053773 246.53664 
L 654.673353 252.576576 
L 654.983142 260.629824 
L 655.602722 260.629824 
L 655.757617 261.3072 
L 656.222302 264.656448 
L 656.377197 265.324416 
L 656.686986 267.337728 
L 656.996776 268.513728 
L 657.151671 268.513728 
L 658.081041 274.723008 
L 659.01041 278.410944 
L 660.094675 289.48416 
L 660.249569 290.152128 
L 660.714254 293.510784 
L 661.024044 294.856128 
L 661.953414 303.577344 
L 662.418098 310.953216 
L 662.572993 311.630592 
L 663.037678 315.986496 
L 663.347468 324.378432 
L 663.812153 337.455552 
L 664.276837 355.236672 
L 665.206207 379.396416 
L 665.515997 384.758976 
L 665.825786 392.482944 
L 665.980681 394.496256 
L 666.445366 406.905408 
L 666.755156 429.38112 
L 667.374736 437.773056 
L 667.529631 438.83616 
L 668.76879 438.83616 
L 668.923685 439.108992 
L 669.07858 440.115648 
L 669.853054 449.175552 
L 670.317739 452.534208 
L 670.472634 454.54752 
L 671.092214 468.640704 
L 671.247108 469.97664 
L 671.711793 478.697856 
L 672.176478 488.096448 
L 672.950953 528.014592 
L 673.570532 541.773792 
L 674.499902 555.864154 
L 674.654797 555.864154 
L 675.119481 561.903149 
L 675.274376 561.903149 
L 675.429271 562.573939 
L 675.893956 562.573939 
L 676.048851 563.24473 
L 676.358641 571.297037 
L 676.668431 590.318131 
L 682.089753 590.318131 
L 682.244647 588.742291 
L 682.399542 584.716608 
L 682.554437 584.045818 
L 682.864227 580.689984 
L 683.328912 574.65193 
L 683.483807 574.65193 
L 684.103386 564.922176 
L 684.258281 563.580595 
L 684.568071 560.560627 
L 685.032756 553.515917 
L 685.342546 548.483578 
L 685.497441 547.141056 
L 685.807231 541.773792 
L 685.962125 541.102061 
L 686.11702 539.765184 
L 687.201285 519.293376 
L 687.35618 518.625408 
L 688.130654 501.182976 
L 688.285549 499.169664 
L 689.834498 461.594112 
L 691.073658 441.460992 
L 691.228553 440.793024 
L 691.383447 438.779712 
L 692.467712 404.892096 
L 692.622607 404.224128 
L 692.777502 402.878784 
L 694.791136 361.615296 
L 695.100925 358.595328 
L 695.720505 347.192832 
L 696.030295 343.834176 
L 696.49498 337.126272 
L 696.649875 336.448896 
L 697.114559 328.405056 
L 697.269454 325.714368 
L 697.579244 324.378432 
L 697.889034 319.674432 
L 698.198824 314.97984 
L 698.353719 314.311872 
L 698.973298 307.603968 
L 699.128193 306.258624 
L 699.283088 302.899968 
L 699.437983 302.899968 
L 699.592878 300.218688 
L 699.747773 299.55072 
L 700.057563 296.86944 
L 700.212458 296.192064 
L 700.522247 293.172096 
L 700.832037 291.497472 
L 701.916302 273.377664 
L 702.226092 270.028416 
L 702.535881 265.324416 
L 702.845671 260.629824 
L 703.000566 260.629824 
L 704.549515 233.120832 
L 704.859305 224.738304 
L 705.169095 218.35968 
L 706.408254 203.598528 
L 706.563149 202.93056 
L 706.718044 200.917248 
L 706.872939 200.917248 
L 707.027834 200.239872 
L 707.182729 198.903936 
L 707.802308 188.837376 
L 707.957203 188.169408 
L 708.421888 184.810752 
L 709.041468 181.122816 
L 709.196363 181.122816 
L 709.815942 173.408256 
L 709.970837 172.73088 
L 710.745312 161.328384 
L 710.900207 158.308416 
L 711.055102 157.640448 
L 711.364892 152.607168 
L 711.519786 151.929792 
L 711.984471 145.560576 
L 712.139366 144.215232 
L 712.913841 131.128704 
L 713.068736 130.460736 
L 714.617685 110.976768 
L 722.827115 110.976768 
L 723.136905 117.204864 
L 723.2918 117.204864 
L 723.756485 120.394176 
L 724.685854 120.394176 
L 724.995644 121.400832 
L 725.150539 121.73952 
L 725.305434 124.09152 
L 725.615224 131.467392 
L 725.925014 132.022464 
L 726.234803 132.022464 
L 726.544593 135.155328 
L 726.854383 136.500672 
L 727.319068 144.55392 
L 727.628858 146.896512 
L 727.783753 147.573888 
L 728.558227 155.627136 
L 728.713122 159.98304 
L 728.868017 160.651008 
L 729.022912 162.66432 
L 730.107176 186.156096 
L 730.262071 187.492032 
L 730.571861 196.213248 
L 730.726756 196.890624 
L 731.036546 204.266496 
L 731.501231 223.731648 
L 732.275705 234.466176 
L 732.74039 248.549952 
L 733.824654 283.105536 
L 734.289339 285.457536 
L 734.599129 290.829504 
L 734.754024 292.16544 
L 736.457868 361.276608 
L 738.161712 409.925376 
L 738.626397 419.653248 
L 739.710661 442.467648 
L 740.020451 447.839616 
L 740.175346 449.51424 
L 741.25961 474.671232 
L 741.5694 478.029888 
L 742.034085 483.401856 
L 742.343875 490.43904 
L 744.822193 522.981312 
L 744.977088 527.007936 
L 745.131983 527.685312 
L 745.596668 536.06784 
L 745.751563 537.074496 
L 745.906458 539.765184 
L 746.061353 540.433152 
L 746.216247 540.433152 
L 746.526037 541.773792 
L 746.680932 543.786163 
L 746.835827 544.122029 
L 747.145617 545.128685 
L 747.300512 545.46361 
L 747.455407 545.46361 
L 747.610302 545.799475 
L 748.384776 553.180051 
L 748.539671 555.193363 
L 748.694566 555.193363 
L 748.849461 555.864154 
L 749.004356 557.877466 
L 749.159251 557.877466 
L 749.469041 560.560627 
L 749.623936 560.560627 
L 749.933725 562.573939 
L 750.243515 563.91552 
L 750.553305 563.91552 
L 750.7082 565.928832 
L 751.172885 565.928832 
L 751.792464 568.405018 
L 766.662376 568.405018 
L 766.817271 567.606278 
L 767.436851 555.081408 
L 767.746641 555.081408 
L 767.901536 553.850842 
L 768.056431 553.850842 
L 768.521115 549.490234 
L 769.760275 530.535936 
L 769.915169 530.535936 
L 770.070064 530.027904 
L 770.224959 529.021248 
L 770.844539 517.280064 
L 771.154329 508.897536 
L 771.464119 502.8576 
L 771.773908 497.485632 
L 771.928803 494.136384 
L 772.238593 492.79104 
L 772.703278 483.401856 
L 773.322858 461.923392 
L 773.477753 454.54752 
L 773.632647 452.534208 
L 773.942437 444.48096 
L 774.252227 437.434368 
L 774.562017 429.38112 
L 775.491386 404.224128 
L 775.646281 401.542848 
L 776.575651 373.695168 
L 776.885441 354.568704 
L 778.899075 300.218688 
L 779.828444 260.629824 
L 780.138234 253.583232 
L 780.602919 238.154112 
L 782.771447 197.558592 
L 783.081237 192.525312 
L 783.391027 181.122816 
L 783.545922 171.394944 
L 785.404661 171.394944 
L 785.559556 170.717568 
L 785.869346 165.355008 
L 786.64382 144.017664 
L 786.95361 130.460736 
L 787.108505 129.049536 
L 795.627725 129.049536 
L 795.78262 129.45408 
L 795.937515 129.45408 
L 796.09241 129.792768 
L 796.247305 129.792768 
L 796.71199 131.80608 
L 797.176675 136.500672 
L 797.331569 138.513984 
L 797.641359 148.580544 
L 798.106044 164.009664 
L 798.415834 167.36832 
L 798.880519 169.381632 
L 799.035414 171.056256 
L 799.190308 171.394944 
L 799.809888 171.394944 
L 799.964783 172.062912 
L 800.274573 174.744192 
L 800.739258 178.102848 
L 801.513732 181.790784 
L 802.133312 185.47872 
L 802.288207 185.817408 
L 803.217576 190.18272 
L 803.527366 193.531968 
L 803.992051 195.54528 
L 804.301841 195.54528 
L 804.456736 196.213248 
L 804.766525 198.903936 
L 804.92142 198.903936 
L 805.076315 199.571904 
L 805.386105 202.253184 
L 806.005685 204.943872 
L 806.470369 204.943872 
L 806.780159 207.96384 
L 807.089949 207.96384 
L 807.554634 210.306432 
L 807.709529 210.306432 
L 808.948688 220.71168 
L 810.032953 240.506112 
L 810.497637 245.200704 
L 811.117217 254.589888 
L 811.272112 255.267264 
L 811.427007 256.941888 
L 811.581902 256.941888 
L 811.891692 261.3072 
L 812.666166 268.015104 
L 812.821061 268.015104 
L 813.130851 270.028416 
L 813.285746 270.696384 
L 813.440641 272.041728 
L 813.750431 278.410944 
L 814.37001 297.19872 
L 814.524905 300.886656 
L 814.6798 301.564032 
L 814.98959 306.258624 
L 816.383644 317.66112 
L 816.538539 317.66112 
L 816.848329 320.351808 
L 817.003224 321.019776 
L 817.158119 324.039744 
L 817.313014 324.707712 
L 817.467908 326.053056 
L 817.777698 331.754304 
L 818.087488 335.11296 
L 818.707068 347.192832 
L 819.016858 356.582016 
L 819.791332 366.987264 
L 820.875597 390.798912 
L 821.185386 400.536192 
L 821.495176 406.56672 
L 821.804966 416.63328 
L 822.269651 430.387776 
L 823.19902 482.72448 
L 824.12839 495.47232 
L 824.43818 502.8576 
L 824.593075 503.525568 
L 824.902864 508.897536 
L 825.212654 512.585472 
L 825.367549 514.937472 
L 825.522444 515.097408 
L 825.677339 515.097408 
L 825.832234 516.950784 
L 825.987129 516.950784 
L 826.296919 519.970752 
L 827.381183 537.413184 
L 828.465447 562.909805 
L 828.620342 564.922176 
L 828.930132 571.967827 
L 829.085027 573.645274 
L 830.014397 591.148858 
L 836.210193 591.148858 
L 836.519983 587.40071 
L 836.829773 583.374086 
L 837.139563 580.689984 
L 837.449353 569.954515 
L 837.759142 557.205734 
L 838.378722 547.811846 
L 838.998302 543.115373 
L 839.153197 543.115373 
L 839.308092 540.433152 
L 839.462986 540.433152 
L 839.927671 535.061184 
L 840.082566 534.393216 
L 840.392356 529.698624 
L 840.547251 529.021248 
L 840.702146 526.339968 
L 841.321725 508.558848 
L 841.47662 506.545536 
L 841.78641 501.512256 
L 842.251095 495.47232 
L 842.560885 490.10976 
L 843.025569 482.056512 
L 845.813678 447.16224 
L 845.968573 446.494272 
L 846.433258 441.460992 
L 846.588153 440.793024 
L 847.052837 431.73312 
L 847.517522 425.693184 
L 847.672417 425.693184 
L 848.137102 418.98528 
L 849.221366 403.546752 
L 849.995841 391.476288 
L 850.305631 386.10432 
L 850.460525 385.436352 
L 850.61542 382.077696 
L 850.770315 382.077696 
L 852.474159 359.940672 
L 852.629054 359.940672 
L 852.783949 357.92736 
L 852.938844 357.92736 
L 853.248634 354.568704 
L 853.558424 349.874112 
L 853.868214 348.867456 
L 854.332898 343.495488 
L 854.797583 339.807552 
L 855.107373 336.448896 
L 855.572058 328.405056 
L 856.191637 321.358464 
L 856.346532 320.681088 
L 856.811217 313.643904 
L 857.121007 307.603968 
L 857.430797 293.172096 
L 858.205271 282.09888 
L 858.360166 281.430912 
L 858.515061 280.094976 
L 859.289536 269.35104 
L 859.444431 268.015104 
L 859.909115 261.3072 
L 860.06401 261.3072 
L 860.218905 260.629824 
L 861.458064 239.828736 
L 861.612959 238.4928 
L 861.922749 232.114176 
L 862.077644 230.100864 
L 862.697224 213.3264 
L 863.161908 207.625152 
L 863.471698 202.93056 
L 863.626593 202.253184 
L 864.091278 197.558592 
L 864.710858 194.877312 
L 864.865753 194.877312 
L 865.175542 192.864 
L 865.485332 192.751104 
L 866.569597 192.751104 
L 866.724492 191.518656 
L 866.879386 191.518656 
L 867.034281 190.850688 
L 867.498966 190.850688 
L 867.808756 188.837376 
L 867.963651 188.498688 
L 868.273441 184.142784 
L 868.428336 183.465408 
L 868.89302 178.770816 
L 869.047915 174.076224 
L 869.5126 149.5872 
L 869.977285 145.889856 
L 870.441969 138.852672 
L 870.596864 137.16864 
L 870.906654 125.427456 
L 871.371339 120.732864 
L 871.681129 114.692928 
L 871.836024 114.692928 
L 872.300708 109.659648 
L 872.765393 105.303744 
L 872.920288 105.303744 
L 873.230078 102.283776 
L 873.539868 100.938432 
L 873.694763 99.593088 
L 874.004553 99.517824 
L 881.594403 99.517824 
L 881.749298 100.270464 
L 882.059088 102.951744 
L 882.213983 106.3104 
L 882.678668 120.394176 
L 882.833563 123.414144 
L 884.227617 172.73088 
L 885.002092 182.79744 
L 885.311881 190.512 
L 886.551041 206.279808 
L 886.705936 206.957184 
L 887.015725 208.970496 
L 887.635305 222.724992 
L 889.184254 257.948544 
L 889.803834 284.45088 
L 890.733203 322.026432 
L 890.888098 329.411712 
L 891.507678 377.383104 
L 892.127258 416.304 
L 893.521312 462.26208 
L 893.831102 468.640704 
L 894.140892 474.671232 
L 894.450681 491.116416 
L 895.534946 522.981312 
L 895.689841 524.326656 
L 895.999631 529.698624 
L 896.154525 532.379904 
L 896.30942 533.047872 
L 896.929 540.094464 
L 897.23879 544.792819 
L 897.54858 548.483578 
L 898.787739 573.309408 
L 899.252424 579.180941 
L 899.407319 579.180941 
L 900.026898 584.716608 
L 900.181793 585.387398 
L 900.336688 586.917139 
L 922.021976 586.917139 
L 922.176871 586.728979 
L 922.486661 578.677613 
L 922.641556 577.335091 
L 923.880715 547.476922 
L 924.03561 546.470266 
L 924.96498 531.03456 
L 925.119875 529.698624 
L 925.584559 520.300032 
L 925.894349 507.213504 
L 926.513929 498.163008 
L 926.823719 494.804352 
L 926.978614 494.136384 
L 927.133508 492.79104 
L 927.288403 490.10976 
L 927.443298 489.432384 
L 927.598193 488.096448 
L 927.907983 482.72448 
L 928.062878 481.388544 
L 929.456932 455.554176 
L 930.850986 430.058496 
L 931.005881 428.045184 
L 931.470566 417.639936 
L 931.625461 416.304 
L 931.935251 410.264064 
L 932.399936 393.81888 
L 932.554831 390.798912 
L 934.10378 339.807552 
L 935.962519 298.544064 
L 936.427203 283.444224 
L 936.736993 275.729664 
L 938.131047 242.848704 
L 938.595732 222.386304 
L 939.215312 178.102848 
L 939.679997 167.36832 
L 939.989786 161.102592 
L 940.764261 131.166336 
L 944.326844 131.166336 
L 944.481739 130.460736 
L 944.791529 123.084864 
L 944.946424 123.084864 
L 945.256214 121.73952 
L 945.566003 121.73952 
L 945.720898 119.980224 
L 954.240119 119.980224 
L 954.395014 121.071552 
L 954.704803 124.4208 
L 954.859698 125.098176 
L 955.014593 126.434112 
L 955.169488 126.434112 
L 955.479278 127.779456 
L 956.098858 133.142016 
L 956.253753 133.142016 
L 956.408647 133.819392 
L 956.563542 135.494016 
L 956.718437 135.494016 
L 957.028227 138.513984 
L 957.183122 138.513984 
L 957.647807 140.527296 
L 957.802702 140.527296 
L 957.957597 141.195264 
L 958.112492 142.540608 
L 958.577176 148.909824 
L 959.196756 155.288448 
L 959.351651 155.956416 
L 959.816336 161.996352 
L 959.971231 161.996352 
L 960.126125 163.341696 
L 960.28102 163.341696 
L 960.435915 164.009664 
L 960.59081 164.009664 
L 960.745705 164.677632 
L 960.9006 166.361664 
L 961.055495 166.361664 
L 961.21039 167.36832 
L 961.52018 170.717568 
L 961.675075 171.394944 
L 961.984864 173.737536 
L 962.139759 174.414912 
L 962.449549 177.76416 
L 962.759339 188.498688 
L 962.914234 191.857344 
L 963.378919 210.475776 
L 963.533814 211.143744 
L 963.843603 213.665088 
L 963.998498 214.333056 
L 964.153393 214.333056 
L 964.927868 221.04096 
L 965.547447 229.094208 
L 965.702342 229.094208 
L 966.167027 232.452864 
L 966.321922 232.452864 
L 966.631712 235.134144 
L 967.406186 241.17408 
L 967.561081 241.842048 
L 967.870871 244.194048 
L 968.025766 244.862016 
L 968.955136 253.253952 
L 969.264925 255.935232 
L 969.574715 258.616512 
L 969.72961 258.616512 
L 970.0394 261.975168 
L 970.65898 268.683072 
L 970.813875 269.35104 
L 971.433454 276.73632 
L 971.743244 283.444224 
L 971.898139 285.457536 
L 972.362824 294.856128 
L 972.517719 296.86944 
L 973.292193 315.647808 
L 973.601983 320.351808 
L 974.066668 337.79424 
L 974.531353 369.329856 
L 974.996037 383.42304 
L 975.305827 390.469632 
L 975.770512 400.536192 
L 976.235197 408.580032 
L 977.164566 442.467648 
L 977.319461 444.48096 
L 978.093936 464.61408 
L 978.403725 468.969984 
L 978.713515 476.016576 
L 979.023305 482.72448 
L 979.79778 501.512256 
L 980.107569 507.552192 
L 981.346729 533.38656 
L 983.205468 576.664301 
L 983.360363 578.006822 
L 983.515258 578.006822 
L 983.670153 578.677613 
L 983.825047 578.677613 
L 984.134837 579.678624 
L 988.471895 579.678624 
L 988.471895 579.678624 
" style="fill:none;stroke:#000000;stroke-dasharray:3.000000,5.000000,1.000000,5.000000;stroke-dashoffset:0.0;"/>
   </g>
   <g id="line2d_2">
    <path clip-path="url(#p5f739fa705)" d="M 165.825 277.667712 
L 178.061698 277.667712 
" style="fill:none;stroke:#008000;stroke-linecap:square;"/>
    <defs>
     <path d="M 0 3 
C 0.795609 3 1.55874 2.683901 2.12132 2.12132 
C 2.683901 1.55874 3 0.795609 3 0 
C 3 -0.795609 2.683901 -1.55874 2.12132 -2.12132 
C 1.55874 -2.683901 0.795609 -3 0 -3 
C -0.795609 -3 -1.55874 -2.683901 -2.12132 -2.12132 
C -2.683901 -1.55874 -3 -0.795609 -3 0 
C -3 0.795609 -2.683901 1.55874 -2.12132 2.12132 
C -1.55874 2.683901 -0.795609 3 0 3 
z
" id="m5baf18b7c5" style="stroke:#000000;stroke-width:0.5;"/>
    </defs>
    <g clip-path="url(#p5f739fa705)">
     <use style="fill:#008000;stroke:#000000;stroke-width:0.5;" x="165.825" xlink:href="#m5baf18b7c5" y="277.667712"/>
     <use style="fill:#008000;stroke:#000000;stroke-width:0.5;" x="178.061698305" xlink:href="#m5baf18b7c5" y="277.667712"/>
    </g>
   </g>
   <g id="line2d_3">
    <path clip-path="url(#p5f739fa705)" d="M 192.157136 407.573376 
L 194.790349 410.264064 
" style="fill:none;stroke:#008000;stroke-linecap:square;"/>
    <g clip-path="url(#p5f739fa705)">
     <use style="fill:#008000;stroke:#000000;stroke-width:0.5;" x="192.157135593" xlink:href="#m5baf18b7c5" y="407.573376"/>
     <use style="fill:#008000;stroke:#000000;stroke-width:0.5;" x="194.790349153" xlink:href="#m5baf18b7c5" y="410.264064"/>
    </g>
   </g>
   <g id="line2d_4">
    <path clip-path="url(#p5f739fa705)" d="M 208.575997 598.136179 
L 217.869692 598.136179 
" style="fill:none;stroke:#008000;stroke-linecap:square;"/>
    <g clip-path="url(#p5f739fa705)">
     <use style="fill:#008000;stroke:#000000;stroke-width:0.5;" x="208.57599661" xlink:href="#m5baf18b7c5" y="598.1361792"/>
     <use style="fill:#008000;stroke:#000000;stroke-width:0.5;" x="217.869691525" xlink:href="#m5baf18b7c5" y="598.1361792"/>
    </g>
   </g>
   <g id="line2d_5">
    <path clip-path="url(#p5f739fa705)" d="M 253.495522 107.429952 
L 261.395163 107.429952 
" style="fill:none;stroke:#008000;stroke-linecap:square;"/>
    <g clip-path="url(#p5f739fa705)">
     <use style="fill:#008000;stroke:#000000;stroke-width:0.5;" x="253.495522034" xlink:href="#m5baf18b7c5" y="107.429952"/>
     <use style="fill:#008000;stroke:#000000;stroke-width:0.5;" x="261.395162712" xlink:href="#m5baf18b7c5" y="107.429952"/>
    </g>
   </g>
   <g id="line2d_6">
    <path clip-path="url(#p5f739fa705)" d="M 291.444776 592.767974 
L 302.907 593.438765 
" style="fill:none;stroke:#008000;stroke-linecap:square;"/>
    <g clip-path="url(#p5f739fa705)">
     <use style="fill:#008000;stroke:#000000;stroke-width:0.5;" x="291.444776271" xlink:href="#m5baf18b7c5" y="592.7679744"/>
     <use style="fill:#008000;stroke:#000000;stroke-width:0.5;" x="302.907" xlink:href="#m5baf18b7c5" y="593.4387648"/>
    </g>
   </g>
   <g id="line2d_7">
    <path clip-path="url(#p5f739fa705)" d="M 325.676553 122.802624 
L 332.491929 122.802624 
" style="fill:none;stroke:#008000;stroke-linecap:square;"/>
    <g clip-path="url(#p5f739fa705)">
     <use style="fill:#008000;stroke:#000000;stroke-width:0.5;" x="325.676552542" xlink:href="#m5baf18b7c5" y="122.802624"/>
     <use style="fill:#008000;stroke:#000000;stroke-width:0.5;" x="332.491928814" xlink:href="#m5baf18b7c5" y="122.802624"/>
    </g>
   </g>
   <g id="line2d_8">
    <path clip-path="url(#p5f739fa705)" d="M 363.780702 588.332102 
L 370.286288 588.332102 
" style="fill:none;stroke:#008000;stroke-linecap:square;"/>
    <g clip-path="url(#p5f739fa705)">
     <use style="fill:#008000;stroke:#000000;stroke-width:0.5;" x="363.780701695" xlink:href="#m5baf18b7c5" y="588.3321024"/>
     <use style="fill:#008000;stroke:#000000;stroke-width:0.5;" x="370.286288136" xlink:href="#m5baf18b7c5" y="588.3321024"/>
    </g>
   </g>
   <g id="line2d_9">
    <path clip-path="url(#p5f739fa705)" d="M 409.010017 79.431744 
L 415.050919 79.431744 
" style="fill:none;stroke:#008000;stroke-linecap:square;"/>
    <g clip-path="url(#p5f739fa705)">
     <use style="fill:#008000;stroke:#000000;stroke-width:0.5;" x="409.010016949" xlink:href="#m5baf18b7c5" y="79.431744"/>
     <use style="fill:#008000;stroke:#000000;stroke-width:0.5;" x="415.050918644" xlink:href="#m5baf18b7c5" y="79.431744"/>
    </g>
   </g>
   <g id="line2d_10">
    <path clip-path="url(#p5f739fa705)" d="M 437.820471 582.313805 
L 442.002634 583.597997 
" style="fill:none;stroke:#008000;stroke-linecap:square;"/>
    <g clip-path="url(#p5f739fa705)">
     <use style="fill:#008000;stroke:#000000;stroke-width:0.5;" x="437.820471186" xlink:href="#m5baf18b7c5" y="582.3138048"/>
     <use style="fill:#008000;stroke:#000000;stroke-width:0.5;" x="442.002633898" xlink:href="#m5baf18b7c5" y="583.5979968"/>
    </g>
   </g>
   <g id="line2d_11">
    <path clip-path="url(#p5f739fa705)" d="M 442.932003 597.129523 
L 456.562756 598.80697 
" style="fill:none;stroke:#008000;stroke-linecap:square;"/>
    <g clip-path="url(#p5f739fa705)">
     <use style="fill:#008000;stroke:#000000;stroke-width:0.5;" x="442.93200339" xlink:href="#m5baf18b7c5" y="597.1295232"/>
     <use style="fill:#008000;stroke:#000000;stroke-width:0.5;" x="456.562755932" xlink:href="#m5baf18b7c5" y="598.8069696"/>
    </g>
   </g>
   <g id="line2d_12">
    <path clip-path="url(#p5f739fa705)" d="M 473.601197 193.673088 
L 476.389305 193.673088 
" style="fill:none;stroke:#008000;stroke-linecap:square;"/>
    <g clip-path="url(#p5f739fa705)">
     <use style="fill:#008000;stroke:#000000;stroke-width:0.5;" x="473.60119661" xlink:href="#m5baf18b7c5" y="193.673088"/>
     <use style="fill:#008000;stroke:#000000;stroke-width:0.5;" x="476.389305085" xlink:href="#m5baf18b7c5" y="193.673088"/>
    </g>
   </g>
   <g id="line2d_13">
    <path clip-path="url(#p5f739fa705)" d="M 479.487203 121.758336 
L 486.147685 121.758336 
" style="fill:none;stroke:#008000;stroke-linecap:square;"/>
    <g clip-path="url(#p5f739fa705)">
     <use style="fill:#008000;stroke:#000000;stroke-width:0.5;" x="479.48720339" xlink:href="#m5baf18b7c5" y="121.758336"/>
     <use style="fill:#008000;stroke:#000000;stroke-width:0.5;" x="486.147684746" xlink:href="#m5baf18b7c5" y="121.758336"/>
    </g>
   </g>
   <g id="line2d_14">
    <path clip-path="url(#p5f739fa705)" d="M 520.379461 569.398502 
L 526.420363 569.398502 
" style="fill:none;stroke:#008000;stroke-linecap:square;"/>
    <g clip-path="url(#p5f739fa705)">
     <use style="fill:#008000;stroke:#000000;stroke-width:0.5;" x="520.379461017" xlink:href="#m5baf18b7c5" y="569.3985024"/>
     <use style="fill:#008000;stroke:#000000;stroke-width:0.5;" x="526.420362712" xlink:href="#m5baf18b7c5" y="569.3985024"/>
    </g>
   </g>
   <g id="line2d_15">
    <path clip-path="url(#p5f739fa705)" d="M 558.17382 117.355392 
L 560.807034 117.355392 
" style="fill:none;stroke:#008000;stroke-linecap:square;"/>
    <g clip-path="url(#p5f739fa705)">
     <use style="fill:#008000;stroke:#000000;stroke-width:0.5;" x="558.173820339" xlink:href="#m5baf18b7c5" y="117.355392"/>
     <use style="fill:#008000;stroke:#000000;stroke-width:0.5;" x="560.807033898" xlink:href="#m5baf18b7c5" y="117.355392"/>
    </g>
   </g>
   <g id="line2d_16">
    <path clip-path="url(#p5f739fa705)" d="M 562.665773 98.784 
L 569.171359 98.784 
" style="fill:none;stroke:#008000;stroke-linecap:square;"/>
    <g clip-path="url(#p5f739fa705)">
     <use style="fill:#008000;stroke:#000000;stroke-width:0.5;" x="562.665772881" xlink:href="#m5baf18b7c5" y="98.784"/>
     <use style="fill:#008000;stroke:#000000;stroke-width:0.5;" x="569.171359322" xlink:href="#m5baf18b7c5" y="98.784"/>
    </g>
   </g>
   <g id="line2d_17">
    <path clip-path="url(#p5f739fa705)" d="M 596.277969 587.372486 
L 601.544397 587.372486 
" style="fill:none;stroke:#008000;stroke-linecap:square;"/>
    <g clip-path="url(#p5f739fa705)">
     <use style="fill:#008000;stroke:#000000;stroke-width:0.5;" x="596.277969492" xlink:href="#m5baf18b7c5" y="587.3724864"/>
     <use style="fill:#008000;stroke:#000000;stroke-width:0.5;" x="601.54439661" xlink:href="#m5baf18b7c5" y="587.3724864"/>
    </g>
   </g>
   <g id="line2d_18">
    <path clip-path="url(#p5f739fa705)" d="M 602.009081 590.609779 
L 610.992986 590.609779 
" style="fill:none;stroke:#008000;stroke-linecap:square;"/>
    <g clip-path="url(#p5f739fa705)">
     <use style="fill:#008000;stroke:#000000;stroke-width:0.5;" x="602.009081356" xlink:href="#m5baf18b7c5" y="590.6097792"/>
     <use style="fill:#008000;stroke:#000000;stroke-width:0.5;" x="610.992986441" xlink:href="#m5baf18b7c5" y="590.6097792"/>
    </g>
   </g>
   <g id="line2d_19">
    <path clip-path="url(#p5f739fa705)" d="M 633.142959 119.236992 
L 640.42302 119.236992 
" style="fill:none;stroke:#008000;stroke-linecap:square;"/>
    <g clip-path="url(#p5f739fa705)">
     <use style="fill:#008000;stroke:#000000;stroke-width:0.5;" x="633.142959322" xlink:href="#m5baf18b7c5" y="119.236992"/>
     <use style="fill:#008000;stroke:#000000;stroke-width:0.5;" x="640.423020339" xlink:href="#m5baf18b7c5" y="119.236992"/>
    </g>
   </g>
   <g id="line2d_20">
    <path clip-path="url(#p5f739fa705)" d="M 676.668431 590.318131 
L 682.089753 590.318131 
" style="fill:none;stroke:#008000;stroke-linecap:square;"/>
    <g clip-path="url(#p5f739fa705)">
     <use style="fill:#008000;stroke:#000000;stroke-width:0.5;" x="676.668430508" xlink:href="#m5baf18b7c5" y="590.3181312"/>
     <use style="fill:#008000;stroke:#000000;stroke-width:0.5;" x="682.089752542" xlink:href="#m5baf18b7c5" y="590.3181312"/>
    </g>
   </g>
   <g id="line2d_21">
    <path clip-path="url(#p5f739fa705)" d="M 714.617685 110.976768 
L 722.827115 110.976768 
" style="fill:none;stroke:#008000;stroke-linecap:square;"/>
    <g clip-path="url(#p5f739fa705)">
     <use style="fill:#008000;stroke:#000000;stroke-width:0.5;" x="714.617684746" xlink:href="#m5baf18b7c5" y="110.976768"/>
     <use style="fill:#008000;stroke:#000000;stroke-width:0.5;" x="722.827115254" xlink:href="#m5baf18b7c5" y="110.976768"/>
    </g>
   </g>
   <g id="line2d_22">
    <path clip-path="url(#p5f739fa705)" d="M 750.863095 565.928832 
L 766.817271 567.606278 
" style="fill:none;stroke:#008000;stroke-linecap:square;"/>
    <g clip-path="url(#p5f739fa705)">
     <use style="fill:#008000;stroke:#000000;stroke-width:0.5;" x="750.863094915" xlink:href="#m5baf18b7c5" y="565.928832"/>
     <use style="fill:#008000;stroke:#000000;stroke-width:0.5;" x="766.817271186" xlink:href="#m5baf18b7c5" y="567.6062784"/>
    </g>
   </g>
   <g id="line2d_23">
    <path clip-path="url(#p5f739fa705)" d="M 786.95361 130.460736 
L 796.4022 130.460736 
" style="fill:none;stroke:#008000;stroke-linecap:square;"/>
    <g clip-path="url(#p5f739fa705)">
     <use style="fill:#008000;stroke:#000000;stroke-width:0.5;" x="786.953610169" xlink:href="#m5baf18b7c5" y="130.460736"/>
     <use style="fill:#008000;stroke:#000000;stroke-width:0.5;" x="796.4022" xlink:href="#m5baf18b7c5" y="130.460736"/>
    </g>
   </g>
   <g id="line2d_24">
    <path clip-path="url(#p5f739fa705)" d="M 830.014397 591.148858 
L 836.210193 591.148858 
" style="fill:none;stroke:#008000;stroke-linecap:square;"/>
    <g clip-path="url(#p5f739fa705)">
     <use style="fill:#008000;stroke:#000000;stroke-width:0.5;" x="830.01439661" xlink:href="#m5baf18b7c5" y="591.1488576"/>
     <use style="fill:#008000;stroke:#000000;stroke-width:0.5;" x="836.21019322" xlink:href="#m5baf18b7c5" y="591.1488576"/>
    </g>
   </g>
   <g id="line2d_25">
    <path clip-path="url(#p5f739fa705)" d="M 873.384973 101.6064 
L 881.904193 101.6064 
" style="fill:none;stroke:#008000;stroke-linecap:square;"/>
    <g clip-path="url(#p5f739fa705)">
     <use style="fill:#008000;stroke:#000000;stroke-width:0.5;" x="873.384972881" xlink:href="#m5baf18b7c5" y="101.6064"/>
     <use style="fill:#008000;stroke:#000000;stroke-width:0.5;" x="881.90419322" xlink:href="#m5baf18b7c5" y="101.6064"/>
    </g>
   </g>
   <g id="line2d_26">
    <path clip-path="url(#p5f739fa705)" d="M 900.491583 586.917139 
L 922.021976 586.917139 
" style="fill:none;stroke:#008000;stroke-linecap:square;"/>
    <g clip-path="url(#p5f739fa705)">
     <use style="fill:#008000;stroke:#000000;stroke-width:0.5;" x="900.491583051" xlink:href="#m5baf18b7c5" y="586.9171392"/>
     <use style="fill:#008000;stroke:#000000;stroke-width:0.5;" x="922.021976271" xlink:href="#m5baf18b7c5" y="586.9171392"/>
    </g>
   </g>
   <g id="line2d_27">
    <path clip-path="url(#p5f739fa705)" d="M 940.764261 131.166336 
L 944.326844 131.166336 
" style="fill:none;stroke:#008000;stroke-linecap:square;"/>
    <g clip-path="url(#p5f739fa705)">
     <use style="fill:#008000;stroke:#000000;stroke-width:0.5;" x="940.764261017" xlink:href="#m5baf18b7c5" y="131.166336"/>
     <use style="fill:#008000;stroke:#000000;stroke-width:0.5;" x="944.326844068" xlink:href="#m5baf18b7c5" y="131.166336"/>
    </g>
   </g>
   <g id="line2d_28">
    <path clip-path="url(#p5f739fa705)" d="M 945.875793 119.980224 
L 954.240119 119.980224 
" style="fill:none;stroke:#008000;stroke-linecap:square;"/>
    <g clip-path="url(#p5f739fa705)">
     <use style="fill:#008000;stroke:#000000;stroke-width:0.5;" x="945.87579322" xlink:href="#m5baf18b7c5" y="119.980224"/>
     <use style="fill:#008000;stroke:#000000;stroke-width:0.5;" x="954.240118644" xlink:href="#m5baf18b7c5" y="119.980224"/>
    </g>
   </g>
   <g id="patch_3">
    <path d="M 165.825 635.04 
L 988.317 635.04 
" style="fill:none;stroke:#000000;stroke-linecap:square;stroke-linejoin:miter;"/>
   </g>
   <g id="patch_4">
    <path d="M 165.825 635.04 
L 165.825 70.56 
" style="fill:none;stroke:#000000;stroke-linecap:square;stroke-linejoin:miter;"/>
   </g>
   <g id="matplotlib.axis_1">
    <g id="xtick_1">
     <g id="line2d_29">
      <defs>
       <path d="M 0 0 
L 0 -4 
" id="mf24ffab74c" style="stroke:#000000;stroke-width:0.5;"/>
      </defs>
      <g>
       <use style="stroke:#000000;stroke-width:0.5;" x="165.825" xlink:href="#mf24ffab74c" y="635.04"/>
      </g>
     </g>
     <g id="text_1">
      <!-- 0 -->
      <defs>
       <path d="M 31.78125 66.40625 
Q 24.171875 66.40625 20.328125 58.90625 
Q 16.5 51.421875 16.5 36.375 
Q 16.5 21.390625 20.328125 13.890625 
Q 24.171875 6.390625 31.78125 6.390625 
Q 39.453125 6.390625 43.28125 13.890625 
Q 47.125 21.390625 47.125 36.375 
Q 47.125 51.421875 43.28125 58.90625 
Q 39.453125 66.40625 31.78125 66.40625 
M 31.78125 74.21875 
Q 44.046875 74.21875 50.515625 64.515625 
Q 56.984375 54.828125 56.984375 36.375 
Q 56.984375 17.96875 50.515625 8.265625 
Q 44.046875 -1.421875 31.78125 -1.421875 
Q 19.53125 -1.421875 13.0625 8.265625 
Q 6.59375 17.96875 6.59375 36.375 
Q 6.59375 54.828125 13.0625 64.515625 
Q 19.53125 74.21875 31.78125 74.21875 
" id="BitstreamVeraSans-Roman-30"/>
      </defs>
      <g transform="translate(159.4625 654.236875)scale(0.2 -0.2)">
       <use xlink:href="#BitstreamVeraSans-Roman-30"/>
      </g>
     </g>
    </g>
    <g id="xtick_2">
     <g id="line2d_30">
      <g>
       <use style="stroke:#000000;stroke-width:0.5;" x="258.761949153" xlink:href="#mf24ffab74c" y="635.04"/>
      </g>
     </g>
     <g id="text_2">
      <!-- 20 -->
      <defs>
       <path d="M 19.1875 8.296875 
L 53.609375 8.296875 
L 53.609375 0 
L 7.328125 0 
L 7.328125 8.296875 
Q 12.9375 14.109375 22.625 23.890625 
Q 32.328125 33.6875 34.8125 36.53125 
Q 39.546875 41.84375 41.421875 45.53125 
Q 43.3125 49.21875 43.3125 52.78125 
Q 43.3125 58.59375 39.234375 62.25 
Q 35.15625 65.921875 28.609375 65.921875 
Q 23.96875 65.921875 18.8125 64.3125 
Q 13.671875 62.703125 7.8125 59.421875 
L 7.8125 69.390625 
Q 13.765625 71.78125 18.9375 73 
Q 24.125 74.21875 28.421875 74.21875 
Q 39.75 74.21875 46.484375 68.546875 
Q 53.21875 62.890625 53.21875 53.421875 
Q 53.21875 48.921875 51.53125 44.890625 
Q 49.859375 40.875 45.40625 35.40625 
Q 44.1875 33.984375 37.640625 27.21875 
Q 31.109375 20.453125 19.1875 8.296875 
" id="BitstreamVeraSans-Roman-32"/>
      </defs>
      <g transform="translate(246.036949153 654.236875)scale(0.2 -0.2)">
       <use xlink:href="#BitstreamVeraSans-Roman-32"/>
       <use x="63.623046875" xlink:href="#BitstreamVeraSans-Roman-30"/>
      </g>
     </g>
    </g>
    <g id="xtick_3">
     <g id="line2d_31">
      <g>
       <use style="stroke:#000000;stroke-width:0.5;" x="351.698898305" xlink:href="#mf24ffab74c" y="635.04"/>
      </g>
     </g>
     <g id="text_3">
      <!-- 40 -->
      <defs>
       <path d="M 37.796875 64.3125 
L 12.890625 25.390625 
L 37.796875 25.390625 
z
M 35.203125 72.90625 
L 47.609375 72.90625 
L 47.609375 25.390625 
L 58.015625 25.390625 
L 58.015625 17.1875 
L 47.609375 17.1875 
L 47.609375 0 
L 37.796875 0 
L 37.796875 17.1875 
L 4.890625 17.1875 
L 4.890625 26.703125 
z
" id="BitstreamVeraSans-Roman-34"/>
      </defs>
      <g transform="translate(338.973898305 654.236875)scale(0.2 -0.2)">
       <use xlink:href="#BitstreamVeraSans-Roman-34"/>
       <use x="63.623046875" xlink:href="#BitstreamVeraSans-Roman-30"/>
      </g>
     </g>
    </g>
    <g id="xtick_4">
     <g id="line2d_32">
      <g>
       <use style="stroke:#000000;stroke-width:0.5;" x="444.635847458" xlink:href="#mf24ffab74c" y="635.04"/>
      </g>
     </g>
     <g id="text_4">
      <!-- 60 -->
      <defs>
       <path d="M 33.015625 40.375 
Q 26.375 40.375 22.484375 35.828125 
Q 18.609375 31.296875 18.609375 23.390625 
Q 18.609375 15.53125 22.484375 10.953125 
Q 26.375 6.390625 33.015625 6.390625 
Q 39.65625 6.390625 43.53125 10.953125 
Q 47.40625 15.53125 47.40625 23.390625 
Q 47.40625 31.296875 43.53125 35.828125 
Q 39.65625 40.375 33.015625 40.375 
M 52.59375 71.296875 
L 52.59375 62.3125 
Q 48.875 64.0625 45.09375 64.984375 
Q 41.3125 65.921875 37.59375 65.921875 
Q 27.828125 65.921875 22.671875 59.328125 
Q 17.53125 52.734375 16.796875 39.40625 
Q 19.671875 43.65625 24.015625 45.921875 
Q 28.375 48.1875 33.59375 48.1875 
Q 44.578125 48.1875 50.953125 41.515625 
Q 57.328125 34.859375 57.328125 23.390625 
Q 57.328125 12.15625 50.6875 5.359375 
Q 44.046875 -1.421875 33.015625 -1.421875 
Q 20.359375 -1.421875 13.671875 8.265625 
Q 6.984375 17.96875 6.984375 36.375 
Q 6.984375 53.65625 15.1875 63.9375 
Q 23.390625 74.21875 37.203125 74.21875 
Q 40.921875 74.21875 44.703125 73.484375 
Q 48.484375 72.75 52.59375 71.296875 
" id="BitstreamVeraSans-Roman-36"/>
      </defs>
      <g transform="translate(431.910847458 654.236875)scale(0.2 -0.2)">
       <use xlink:href="#BitstreamVeraSans-Roman-36"/>
       <use x="63.623046875" xlink:href="#BitstreamVeraSans-Roman-30"/>
      </g>
     </g>
    </g>
    <g id="xtick_5">
     <g id="line2d_33">
      <g>
       <use style="stroke:#000000;stroke-width:0.5;" x="537.57279661" xlink:href="#mf24ffab74c" y="635.04"/>
      </g>
     </g>
     <g id="text_5">
      <!-- 80 -->
      <defs>
       <path d="M 31.78125 34.625 
Q 24.75 34.625 20.71875 30.859375 
Q 16.703125 27.09375 16.703125 20.515625 
Q 16.703125 13.921875 20.71875 10.15625 
Q 24.75 6.390625 31.78125 6.390625 
Q 38.8125 6.390625 42.859375 10.171875 
Q 46.921875 13.96875 46.921875 20.515625 
Q 46.921875 27.09375 42.890625 30.859375 
Q 38.875 34.625 31.78125 34.625 
M 21.921875 38.8125 
Q 15.578125 40.375 12.03125 44.71875 
Q 8.5 49.078125 8.5 55.328125 
Q 8.5 64.0625 14.71875 69.140625 
Q 20.953125 74.21875 31.78125 74.21875 
Q 42.671875 74.21875 48.875 69.140625 
Q 55.078125 64.0625 55.078125 55.328125 
Q 55.078125 49.078125 51.53125 44.71875 
Q 48 40.375 41.703125 38.8125 
Q 48.828125 37.15625 52.796875 32.3125 
Q 56.78125 27.484375 56.78125 20.515625 
Q 56.78125 9.90625 50.3125 4.234375 
Q 43.84375 -1.421875 31.78125 -1.421875 
Q 19.734375 -1.421875 13.25 4.234375 
Q 6.78125 9.90625 6.78125 20.515625 
Q 6.78125 27.484375 10.78125 32.3125 
Q 14.796875 37.15625 21.921875 38.8125 
M 18.3125 54.390625 
Q 18.3125 48.734375 21.84375 45.5625 
Q 25.390625 42.390625 31.78125 42.390625 
Q 38.140625 42.390625 41.71875 45.5625 
Q 45.3125 48.734375 45.3125 54.390625 
Q 45.3125 60.0625 41.71875 63.234375 
Q 38.140625 66.40625 31.78125 66.40625 
Q 25.390625 66.40625 21.84375 63.234375 
Q 18.3125 60.0625 18.3125 54.390625 
" id="BitstreamVeraSans-Roman-38"/>
      </defs>
      <g transform="translate(524.84779661 654.236875)scale(0.2 -0.2)">
       <use xlink:href="#BitstreamVeraSans-Roman-38"/>
       <use x="63.623046875" xlink:href="#BitstreamVeraSans-Roman-30"/>
      </g>
     </g>
    </g>
    <g id="xtick_6">
     <g id="line2d_34">
      <g>
       <use style="stroke:#000000;stroke-width:0.5;" x="630.509745763" xlink:href="#mf24ffab74c" y="635.04"/>
      </g>
     </g>
     <g id="text_6">
      <!-- 100 -->
      <defs>
       <path d="M 12.40625 8.296875 
L 28.515625 8.296875 
L 28.515625 63.921875 
L 10.984375 60.40625 
L 10.984375 69.390625 
L 28.421875 72.90625 
L 38.28125 72.90625 
L 38.28125 8.296875 
L 54.390625 8.296875 
L 54.390625 0 
L 12.40625 0 
z
" id="BitstreamVeraSans-Roman-31"/>
      </defs>
      <g transform="translate(611.422245763 654.236875)scale(0.2 -0.2)">
       <use xlink:href="#BitstreamVeraSans-Roman-31"/>
       <use x="63.623046875" xlink:href="#BitstreamVeraSans-Roman-30"/>
       <use x="127.24609375" xlink:href="#BitstreamVeraSans-Roman-30"/>
      </g>
     </g>
    </g>
    <g id="xtick_7">
     <g id="line2d_35">
      <g>
       <use style="stroke:#000000;stroke-width:0.5;" x="723.446694915" xlink:href="#mf24ffab74c" y="635.04"/>
      </g>
     </g>
     <g id="text_7">
      <!-- 120 -->
      <g transform="translate(704.359194915 654.236875)scale(0.2 -0.2)">
       <use xlink:href="#BitstreamVeraSans-Roman-31"/>
       <use x="63.623046875" xlink:href="#BitstreamVeraSans-Roman-32"/>
       <use x="127.24609375" xlink:href="#BitstreamVeraSans-Roman-30"/>
      </g>
     </g>
    </g>
    <g id="xtick_8">
     <g id="line2d_36">
      <g>
       <use style="stroke:#000000;stroke-width:0.5;" x="816.383644068" xlink:href="#mf24ffab74c" y="635.04"/>
      </g>
     </g>
     <g id="text_8">
      <!-- 140 -->
      <g transform="translate(797.296144068 654.236875)scale(0.2 -0.2)">
       <use xlink:href="#BitstreamVeraSans-Roman-31"/>
       <use x="63.623046875" xlink:href="#BitstreamVeraSans-Roman-34"/>
       <use x="127.24609375" xlink:href="#BitstreamVeraSans-Roman-30"/>
      </g>
     </g>
    </g>
    <g id="xtick_9">
     <g id="line2d_37">
      <g>
       <use style="stroke:#000000;stroke-width:0.5;" x="909.32059322" xlink:href="#mf24ffab74c" y="635.04"/>
      </g>
     </g>
     <g id="text_9">
      <!-- 160 -->
      <g transform="translate(890.23309322 654.236875)scale(0.2 -0.2)">
       <use xlink:href="#BitstreamVeraSans-Roman-31"/>
       <use x="63.623046875" xlink:href="#BitstreamVeraSans-Roman-36"/>
       <use x="127.24609375" xlink:href="#BitstreamVeraSans-Roman-30"/>
      </g>
     </g>
    </g>
    <g id="text_10">
     <!-- Time(s) -->
     <defs>
      <path d="M 8.015625 75.875 
L 15.828125 75.875 
Q 23.140625 64.359375 26.78125 53.3125 
Q 30.421875 42.28125 30.421875 31.390625 
Q 30.421875 20.453125 26.78125 9.375 
Q 23.140625 -1.703125 15.828125 -13.1875 
L 8.015625 -13.1875 
Q 14.5 -2 17.703125 9.0625 
Q 20.90625 20.125 20.90625 31.390625 
Q 20.90625 42.671875 17.703125 53.65625 
Q 14.5 64.65625 8.015625 75.875 
" id="BitstreamVeraSans-Roman-29"/>
      <path d="M 31 75.875 
Q 24.46875 64.65625 21.28125 53.65625 
Q 18.109375 42.671875 18.109375 31.390625 
Q 18.109375 20.125 21.3125 9.0625 
Q 24.515625 -2 31 -13.1875 
L 23.1875 -13.1875 
Q 15.875 -1.703125 12.234375 9.375 
Q 8.59375 20.453125 8.59375 31.390625 
Q 8.59375 42.28125 12.203125 53.3125 
Q 15.828125 64.359375 23.1875 75.875 
z
" id="BitstreamVeraSans-Roman-28"/>
      <path d="M 9.421875 54.6875 
L 18.40625 54.6875 
L 18.40625 0 
L 9.421875 0 
z
M 9.421875 75.984375 
L 18.40625 75.984375 
L 18.40625 64.59375 
L 9.421875 64.59375 
z
" id="BitstreamVeraSans-Roman-69"/>
      <path d="M 52 44.1875 
Q 55.375 50.25 60.0625 53.125 
Q 64.75 56 71.09375 56 
Q 79.640625 56 84.28125 50.015625 
Q 88.921875 44.046875 88.921875 33.015625 
L 88.921875 0 
L 79.890625 0 
L 79.890625 32.71875 
Q 79.890625 40.578125 77.09375 44.375 
Q 74.3125 48.1875 68.609375 48.1875 
Q 61.625 48.1875 57.5625 43.546875 
Q 53.515625 38.921875 53.515625 30.90625 
L 53.515625 0 
L 44.484375 0 
L 44.484375 32.71875 
Q 44.484375 40.625 41.703125 44.40625 
Q 38.921875 48.1875 33.109375 48.1875 
Q 26.21875 48.1875 22.15625 43.53125 
Q 18.109375 38.875 18.109375 30.90625 
L 18.109375 0 
L 9.078125 0 
L 9.078125 54.6875 
L 18.109375 54.6875 
L 18.109375 46.1875 
Q 21.1875 51.21875 25.484375 53.609375 
Q 29.78125 56 35.6875 56 
Q 41.65625 56 45.828125 52.96875 
Q 50 49.953125 52 44.1875 
" id="BitstreamVeraSans-Roman-6d"/>
      <path d="M 56.203125 29.59375 
L 56.203125 25.203125 
L 14.890625 25.203125 
Q 15.484375 15.921875 20.484375 11.0625 
Q 25.484375 6.203125 34.421875 6.203125 
Q 39.59375 6.203125 44.453125 7.46875 
Q 49.3125 8.734375 54.109375 11.28125 
L 54.109375 2.78125 
Q 49.265625 0.734375 44.1875 -0.34375 
Q 39.109375 -1.421875 33.890625 -1.421875 
Q 20.796875 -1.421875 13.15625 6.1875 
Q 5.515625 13.8125 5.515625 26.8125 
Q 5.515625 40.234375 12.765625 48.109375 
Q 20.015625 56 32.328125 56 
Q 43.359375 56 49.78125 48.890625 
Q 56.203125 41.796875 56.203125 29.59375 
M 47.21875 32.234375 
Q 47.125 39.59375 43.09375 43.984375 
Q 39.0625 48.390625 32.421875 48.390625 
Q 24.90625 48.390625 20.390625 44.140625 
Q 15.875 39.890625 15.1875 32.171875 
z
" id="BitstreamVeraSans-Roman-65"/>
      <path d="M -0.296875 72.90625 
L 61.375 72.90625 
L 61.375 64.59375 
L 35.5 64.59375 
L 35.5 0 
L 25.59375 0 
L 25.59375 64.59375 
L -0.296875 64.59375 
z
" id="BitstreamVeraSans-Roman-54"/>
      <path d="M 44.28125 53.078125 
L 44.28125 44.578125 
Q 40.484375 46.53125 36.375 47.5 
Q 32.28125 48.484375 27.875 48.484375 
Q 21.1875 48.484375 17.84375 46.4375 
Q 14.5 44.390625 14.5 40.28125 
Q 14.5 37.15625 16.890625 35.375 
Q 19.28125 33.59375 26.515625 31.984375 
L 29.59375 31.296875 
Q 39.15625 29.25 43.1875 25.515625 
Q 47.21875 21.78125 47.21875 15.09375 
Q 47.21875 7.46875 41.1875 3.015625 
Q 35.15625 -1.421875 24.609375 -1.421875 
Q 20.21875 -1.421875 15.453125 -0.5625 
Q 10.6875 0.296875 5.421875 2 
L 5.421875 11.28125 
Q 10.40625 8.6875 15.234375 7.390625 
Q 20.0625 6.109375 24.8125 6.109375 
Q 31.15625 6.109375 34.5625 8.28125 
Q 37.984375 10.453125 37.984375 14.40625 
Q 37.984375 18.0625 35.515625 20.015625 
Q 33.0625 21.96875 24.703125 23.78125 
L 21.578125 24.515625 
Q 13.234375 26.265625 9.515625 29.90625 
Q 5.8125 33.546875 5.8125 39.890625 
Q 5.8125 47.609375 11.28125 51.796875 
Q 16.75 56 26.8125 56 
Q 31.78125 56 36.171875 55.265625 
Q 40.578125 54.546875 44.28125 53.078125 
" id="BitstreamVeraSans-Roman-73"/>
     </defs>
     <g transform="translate(531.726 681.6325)scale(0.24 -0.24)">
      <use xlink:href="#BitstreamVeraSans-Roman-54"/>
      <use x="61.037109375" xlink:href="#BitstreamVeraSans-Roman-69"/>
      <use x="88.8203125" xlink:href="#BitstreamVeraSans-Roman-6d"/>
      <use x="186.232421875" xlink:href="#BitstreamVeraSans-Roman-65"/>
      <use x="247.755859375" xlink:href="#BitstreamVeraSans-Roman-28"/>
      <use x="286.76953125" xlink:href="#BitstreamVeraSans-Roman-73"/>
      <use x="338.869140625" xlink:href="#BitstreamVeraSans-Roman-29"/>
     </g>
    </g>
   </g>
   <g id="matplotlib.axis_2">
    <g id="ytick_1">
     <g id="line2d_38">
      <defs>
       <path d="M 0 0 
L 4 0 
" id="m59398bb289" style="stroke:#000000;stroke-width:0.5;"/>
      </defs>
      <g>
       <use style="stroke:#000000;stroke-width:0.5;" x="165.825" xlink:href="#m59398bb289" y="635.04"/>
      </g>
     </g>
     <g id="text_11">
      <!-- 0.0 -->
      <defs>
       <path d="M 10.6875 12.40625 
L 21 12.40625 
L 21 0 
L 10.6875 0 
z
" id="BitstreamVeraSans-Roman-2e"/>
      </defs>
      <g transform="translate(130.01875 640.55875)scale(0.2 -0.2)">
       <use xlink:href="#BitstreamVeraSans-Roman-30"/>
       <use x="63.623046875" xlink:href="#BitstreamVeraSans-Roman-2e"/>
       <use x="95.41015625" xlink:href="#BitstreamVeraSans-Roman-30"/>
      </g>
     </g>
    </g>
    <g id="ytick_2">
     <g id="line2d_39">
      <g>
       <use style="stroke:#000000;stroke-width:0.5;" x="165.825" xlink:href="#m59398bb289" y="540.96"/>
      </g>
     </g>
     <g id="text_12">
      <!-- 0.1 -->
      <g transform="translate(130.01875 546.47875)scale(0.2 -0.2)">
       <use xlink:href="#BitstreamVeraSans-Roman-30"/>
       <use x="63.623046875" xlink:href="#BitstreamVeraSans-Roman-2e"/>
       <use x="95.41015625" xlink:href="#BitstreamVeraSans-Roman-31"/>
      </g>
     </g>
    </g>
    <g id="ytick_3">
     <g id="line2d_40">
      <g>
       <use style="stroke:#000000;stroke-width:0.5;" x="165.825" xlink:href="#m59398bb289" y="446.88"/>
      </g>
     </g>
     <g id="text_13">
      <!-- 0.2 -->
      <g transform="translate(130.01875 452.39875)scale(0.2 -0.2)">
       <use xlink:href="#BitstreamVeraSans-Roman-30"/>
       <use x="63.623046875" xlink:href="#BitstreamVeraSans-Roman-2e"/>
       <use x="95.41015625" xlink:href="#BitstreamVeraSans-Roman-32"/>
      </g>
     </g>
    </g>
    <g id="ytick_4">
     <g id="line2d_41">
      <g>
       <use style="stroke:#000000;stroke-width:0.5;" x="165.825" xlink:href="#m59398bb289" y="352.8"/>
      </g>
     </g>
     <g id="text_14">
      <!-- 0.3 -->
      <defs>
       <path d="M 40.578125 39.3125 
Q 47.65625 37.796875 51.625 33 
Q 55.609375 28.21875 55.609375 21.1875 
Q 55.609375 10.40625 48.1875 4.484375 
Q 40.765625 -1.421875 27.09375 -1.421875 
Q 22.515625 -1.421875 17.65625 -0.515625 
Q 12.796875 0.390625 7.625 2.203125 
L 7.625 11.71875 
Q 11.71875 9.328125 16.59375 8.109375 
Q 21.484375 6.890625 26.8125 6.890625 
Q 36.078125 6.890625 40.9375 10.546875 
Q 45.796875 14.203125 45.796875 21.1875 
Q 45.796875 27.640625 41.28125 31.265625 
Q 36.765625 34.90625 28.71875 34.90625 
L 20.21875 34.90625 
L 20.21875 43.015625 
L 29.109375 43.015625 
Q 36.375 43.015625 40.234375 45.921875 
Q 44.09375 48.828125 44.09375 54.296875 
Q 44.09375 59.90625 40.109375 62.90625 
Q 36.140625 65.921875 28.71875 65.921875 
Q 24.65625 65.921875 20.015625 65.03125 
Q 15.375 64.15625 9.8125 62.3125 
L 9.8125 71.09375 
Q 15.4375 72.65625 20.34375 73.4375 
Q 25.25 74.21875 29.59375 74.21875 
Q 40.828125 74.21875 47.359375 69.109375 
Q 53.90625 64.015625 53.90625 55.328125 
Q 53.90625 49.265625 50.4375 45.09375 
Q 46.96875 40.921875 40.578125 39.3125 
" id="BitstreamVeraSans-Roman-33"/>
      </defs>
      <g transform="translate(130.01875 358.31875)scale(0.2 -0.2)">
       <use xlink:href="#BitstreamVeraSans-Roman-30"/>
       <use x="63.623046875" xlink:href="#BitstreamVeraSans-Roman-2e"/>
       <use x="95.41015625" xlink:href="#BitstreamVeraSans-Roman-33"/>
      </g>
     </g>
    </g>
    <g id="ytick_5">
     <g id="line2d_42">
      <g>
       <use style="stroke:#000000;stroke-width:0.5;" x="165.825" xlink:href="#m59398bb289" y="258.72"/>
      </g>
     </g>
     <g id="text_15">
      <!-- 0.4 -->
      <g transform="translate(130.01875 264.23875)scale(0.2 -0.2)">
       <use xlink:href="#BitstreamVeraSans-Roman-30"/>
       <use x="63.623046875" xlink:href="#BitstreamVeraSans-Roman-2e"/>
       <use x="95.41015625" xlink:href="#BitstreamVeraSans-Roman-34"/>
      </g>
     </g>
    </g>
    <g id="ytick_6">
     <g id="line2d_43">
      <g>
       <use style="stroke:#000000;stroke-width:0.5;" x="165.825" xlink:href="#m59398bb289" y="164.64"/>
      </g>
     </g>
     <g id="text_16">
      <!-- 0.5 -->
      <defs>
       <path d="M 10.796875 72.90625 
L 49.515625 72.90625 
L 49.515625 64.59375 
L 19.828125 64.59375 
L 19.828125 46.734375 
Q 21.96875 47.46875 24.109375 47.828125 
Q 26.265625 48.1875 28.421875 48.1875 
Q 40.625 48.1875 47.75 41.5 
Q 54.890625 34.8125 54.890625 23.390625 
Q 54.890625 11.625 47.5625 5.09375 
Q 40.234375 -1.421875 26.90625 -1.421875 
Q 22.3125 -1.421875 17.546875 -0.640625 
Q 12.796875 0.140625 7.71875 1.703125 
L 7.71875 11.625 
Q 12.109375 9.234375 16.796875 8.0625 
Q 21.484375 6.890625 26.703125 6.890625 
Q 35.15625 6.890625 40.078125 11.328125 
Q 45.015625 15.765625 45.015625 23.390625 
Q 45.015625 31 40.078125 35.4375 
Q 35.15625 39.890625 26.703125 39.890625 
Q 22.75 39.890625 18.8125 39.015625 
Q 14.890625 38.140625 10.796875 36.28125 
z
" id="BitstreamVeraSans-Roman-35"/>
      </defs>
      <g transform="translate(130.01875 170.15875)scale(0.2 -0.2)">
       <use xlink:href="#BitstreamVeraSans-Roman-30"/>
       <use x="63.623046875" xlink:href="#BitstreamVeraSans-Roman-2e"/>
       <use x="95.41015625" xlink:href="#BitstreamVeraSans-Roman-35"/>
      </g>
     </g>
    </g>
    <g id="ytick_7">
     <g id="line2d_44">
      <g>
       <use style="stroke:#000000;stroke-width:0.5;" x="165.825" xlink:href="#m59398bb289" y="70.56"/>
      </g>
     </g>
     <g id="text_17">
      <!-- 0.6 -->
      <g transform="translate(130.01875 76.07875)scale(0.2 -0.2)">
       <use xlink:href="#BitstreamVeraSans-Roman-30"/>
       <use x="63.623046875" xlink:href="#BitstreamVeraSans-Roman-2e"/>
       <use x="95.41015625" xlink:href="#BitstreamVeraSans-Roman-36"/>
      </g>
     </g>
    </g>
    <g id="text_18">
     <!-- Green Value -->
     <defs>
      <path id="BitstreamVeraSans-Roman-20"/>
      <path d="M 54.890625 33.015625 
L 54.890625 0 
L 45.90625 0 
L 45.90625 32.71875 
Q 45.90625 40.484375 42.875 44.328125 
Q 39.84375 48.1875 33.796875 48.1875 
Q 26.515625 48.1875 22.3125 43.546875 
Q 18.109375 38.921875 18.109375 30.90625 
L 18.109375 0 
L 9.078125 0 
L 9.078125 54.6875 
L 18.109375 54.6875 
L 18.109375 46.1875 
Q 21.34375 51.125 25.703125 53.5625 
Q 30.078125 56 35.796875 56 
Q 45.21875 56 50.046875 50.171875 
Q 54.890625 44.34375 54.890625 33.015625 
" id="BitstreamVeraSans-Roman-6e"/>
      <path d="M 41.109375 46.296875 
Q 39.59375 47.171875 37.8125 47.578125 
Q 36.03125 48 33.890625 48 
Q 26.265625 48 22.1875 43.046875 
Q 18.109375 38.09375 18.109375 28.8125 
L 18.109375 0 
L 9.078125 0 
L 9.078125 54.6875 
L 18.109375 54.6875 
L 18.109375 46.1875 
Q 20.953125 51.171875 25.484375 53.578125 
Q 30.03125 56 36.53125 56 
Q 37.453125 56 38.578125 55.875 
Q 39.703125 55.765625 41.0625 55.515625 
z
" id="BitstreamVeraSans-Roman-72"/>
      <path d="M 9.421875 75.984375 
L 18.40625 75.984375 
L 18.40625 0 
L 9.421875 0 
z
" id="BitstreamVeraSans-Roman-6c"/>
      <path d="M 59.515625 10.40625 
L 59.515625 29.984375 
L 43.40625 29.984375 
L 43.40625 38.09375 
L 69.28125 38.09375 
L 69.28125 6.78125 
Q 63.578125 2.734375 56.6875 0.65625 
Q 49.8125 -1.421875 42 -1.421875 
Q 24.90625 -1.421875 15.25 8.5625 
Q 5.609375 18.5625 5.609375 36.375 
Q 5.609375 54.25 15.25 64.234375 
Q 24.90625 74.21875 42 74.21875 
Q 49.125 74.21875 55.546875 72.453125 
Q 61.96875 70.703125 67.390625 67.28125 
L 67.390625 56.78125 
Q 61.921875 61.421875 55.765625 63.765625 
Q 49.609375 66.109375 42.828125 66.109375 
Q 29.4375 66.109375 22.71875 58.640625 
Q 16.015625 51.171875 16.015625 36.375 
Q 16.015625 21.625 22.71875 14.15625 
Q 29.4375 6.6875 42.828125 6.6875 
Q 48.046875 6.6875 52.140625 7.59375 
Q 56.25 8.5 59.515625 10.40625 
" id="BitstreamVeraSans-Roman-47"/>
      <path d="M 28.609375 0 
L 0.78125 72.90625 
L 11.078125 72.90625 
L 34.1875 11.53125 
L 57.328125 72.90625 
L 67.578125 72.90625 
L 39.796875 0 
z
" id="BitstreamVeraSans-Roman-56"/>
      <path d="M 8.5 21.578125 
L 8.5 54.6875 
L 17.484375 54.6875 
L 17.484375 21.921875 
Q 17.484375 14.15625 20.5 10.265625 
Q 23.53125 6.390625 29.59375 6.390625 
Q 36.859375 6.390625 41.078125 11.03125 
Q 45.3125 15.671875 45.3125 23.6875 
L 45.3125 54.6875 
L 54.296875 54.6875 
L 54.296875 0 
L 45.3125 0 
L 45.3125 8.40625 
Q 42.046875 3.421875 37.71875 1 
Q 33.40625 -1.421875 27.6875 -1.421875 
Q 18.265625 -1.421875 13.375 4.4375 
Q 8.5 10.296875 8.5 21.578125 
" id="BitstreamVeraSans-Roman-75"/>
      <path d="M 34.28125 27.484375 
Q 23.390625 27.484375 19.1875 25 
Q 14.984375 22.515625 14.984375 16.5 
Q 14.984375 11.71875 18.140625 8.90625 
Q 21.296875 6.109375 26.703125 6.109375 
Q 34.1875 6.109375 38.703125 11.40625 
Q 43.21875 16.703125 43.21875 25.484375 
L 43.21875 27.484375 
z
M 52.203125 31.203125 
L 52.203125 0 
L 43.21875 0 
L 43.21875 8.296875 
Q 40.140625 3.328125 35.546875 0.953125 
Q 30.953125 -1.421875 24.3125 -1.421875 
Q 15.921875 -1.421875 10.953125 3.296875 
Q 6 8.015625 6 15.921875 
Q 6 25.140625 12.171875 29.828125 
Q 18.359375 34.515625 30.609375 34.515625 
L 43.21875 34.515625 
L 43.21875 35.40625 
Q 43.21875 41.609375 39.140625 45 
Q 35.0625 48.390625 27.6875 48.390625 
Q 23 48.390625 18.546875 47.265625 
Q 14.109375 46.140625 10.015625 43.890625 
L 10.015625 52.203125 
Q 14.9375 54.109375 19.578125 55.046875 
Q 24.21875 56 28.609375 56 
Q 40.484375 56 46.34375 49.84375 
Q 52.203125 43.703125 52.203125 31.203125 
" id="BitstreamVeraSans-Roman-61"/>
     </defs>
     <g transform="translate(120.0275 427.085625)rotate(-90.0)scale(0.24 -0.24)">
      <use xlink:href="#BitstreamVeraSans-Roman-47"/>
      <use x="77.490234375" xlink:href="#BitstreamVeraSans-Roman-72"/>
      <use x="118.572265625" xlink:href="#BitstreamVeraSans-Roman-65"/>
      <use x="180.095703125" xlink:href="#BitstreamVeraSans-Roman-65"/>
      <use x="241.619140625" xlink:href="#BitstreamVeraSans-Roman-6e"/>
      <use x="304.998046875" xlink:href="#BitstreamVeraSans-Roman-20"/>
      <use x="336.78515625" xlink:href="#BitstreamVeraSans-Roman-56"/>
      <use x="405.083984375" xlink:href="#BitstreamVeraSans-Roman-61"/>
      <use x="466.36328125" xlink:href="#BitstreamVeraSans-Roman-6c"/>
      <use x="494.146484375" xlink:href="#BitstreamVeraSans-Roman-75"/>
      <use x="557.525390625" xlink:href="#BitstreamVeraSans-Roman-65"/>
     </g>
    </g>
   </g>
   <g id="legend_1">
    <g id="line2d_45">
     <path d="M 1017.117 101.99625 
L 1050.717 101.99625 
" style="fill:none;stroke:#000000;stroke-dasharray:3.000000,5.000000,1.000000,5.000000;stroke-dashoffset:0.0;"/>
    </g>
    <g id="line2d_46"/>
    <g id="text_19">
     <!-- TV Denoised -->
     <defs>
      <path d="M 45.40625 46.390625 
L 45.40625 75.984375 
L 54.390625 75.984375 
L 54.390625 0 
L 45.40625 0 
L 45.40625 8.203125 
Q 42.578125 3.328125 38.25 0.953125 
Q 33.9375 -1.421875 27.875 -1.421875 
Q 17.96875 -1.421875 11.734375 6.484375 
Q 5.515625 14.40625 5.515625 27.296875 
Q 5.515625 40.1875 11.734375 48.09375 
Q 17.96875 56 27.875 56 
Q 33.9375 56 38.25 53.625 
Q 42.578125 51.265625 45.40625 46.390625 
M 14.796875 27.296875 
Q 14.796875 17.390625 18.875 11.75 
Q 22.953125 6.109375 30.078125 6.109375 
Q 37.203125 6.109375 41.296875 11.75 
Q 45.40625 17.390625 45.40625 27.296875 
Q 45.40625 37.203125 41.296875 42.84375 
Q 37.203125 48.484375 30.078125 48.484375 
Q 22.953125 48.484375 18.875 42.84375 
Q 14.796875 37.203125 14.796875 27.296875 
" id="BitstreamVeraSans-Roman-64"/>
      <path d="M 19.671875 64.796875 
L 19.671875 8.109375 
L 31.59375 8.109375 
Q 46.6875 8.109375 53.6875 14.9375 
Q 60.6875 21.78125 60.6875 36.53125 
Q 60.6875 51.171875 53.6875 57.984375 
Q 46.6875 64.796875 31.59375 64.796875 
z
M 9.8125 72.90625 
L 30.078125 72.90625 
Q 51.265625 72.90625 61.171875 64.09375 
Q 71.09375 55.28125 71.09375 36.53125 
Q 71.09375 17.671875 61.125 8.828125 
Q 51.171875 0 30.078125 0 
L 9.8125 0 
z
" id="BitstreamVeraSans-Roman-44"/>
      <path d="M 30.609375 48.390625 
Q 23.390625 48.390625 19.1875 42.75 
Q 14.984375 37.109375 14.984375 27.296875 
Q 14.984375 17.484375 19.15625 11.84375 
Q 23.34375 6.203125 30.609375 6.203125 
Q 37.796875 6.203125 41.984375 11.859375 
Q 46.1875 17.53125 46.1875 27.296875 
Q 46.1875 37.015625 41.984375 42.703125 
Q 37.796875 48.390625 30.609375 48.390625 
M 30.609375 56 
Q 42.328125 56 49.015625 48.375 
Q 55.71875 40.765625 55.71875 27.296875 
Q 55.71875 13.875 49.015625 6.21875 
Q 42.328125 -1.421875 30.609375 -1.421875 
Q 18.84375 -1.421875 12.171875 6.21875 
Q 5.515625 13.875 5.515625 27.296875 
Q 5.515625 40.765625 12.171875 48.375 
Q 18.84375 56 30.609375 56 
" id="BitstreamVeraSans-Roman-6f"/>
     </defs>
     <g transform="translate(1077.117 110.39625)scale(0.24 -0.24)">
      <use xlink:href="#BitstreamVeraSans-Roman-54"/>
      <use x="61.083984375" xlink:href="#BitstreamVeraSans-Roman-56"/>
      <use x="129.4921875" xlink:href="#BitstreamVeraSans-Roman-20"/>
      <use x="161.279296875" xlink:href="#BitstreamVeraSans-Roman-44"/>
      <use x="238.28125" xlink:href="#BitstreamVeraSans-Roman-65"/>
      <use x="299.8046875" xlink:href="#BitstreamVeraSans-Roman-6e"/>
      <use x="363.18359375" xlink:href="#BitstreamVeraSans-Roman-6f"/>
      <use x="424.365234375" xlink:href="#BitstreamVeraSans-Roman-69"/>
      <use x="452.1484375" xlink:href="#BitstreamVeraSans-Roman-73"/>
      <use x="504.248046875" xlink:href="#BitstreamVeraSans-Roman-65"/>
      <use x="565.771484375" xlink:href="#BitstreamVeraSans-Roman-64"/>
     </g>
    </g>
    <g id="line2d_47">
     <path d="M 1017.117 137.22375 
L 1050.717 137.22375 
" style="fill:none;stroke:#008000;stroke-linecap:square;"/>
    </g>
    <g id="line2d_48">
     <g>
      <use style="fill:#008000;stroke:#000000;stroke-width:0.5;" x="1017.117" xlink:href="#m5baf18b7c5" y="137.22375"/>
      <use style="fill:#008000;stroke:#000000;stroke-width:0.5;" x="1050.717" xlink:href="#m5baf18b7c5" y="137.22375"/>
     </g>
    </g>
    <g id="text_20">
     <!-- Constant Intervals -->
     <defs>
      <path d="M 2.984375 54.6875 
L 12.5 54.6875 
L 29.59375 8.796875 
L 46.6875 54.6875 
L 56.203125 54.6875 
L 35.6875 0 
L 23.484375 0 
z
" id="BitstreamVeraSans-Roman-76"/>
      <path d="M 18.3125 70.21875 
L 18.3125 54.6875 
L 36.8125 54.6875 
L 36.8125 47.703125 
L 18.3125 47.703125 
L 18.3125 18.015625 
Q 18.3125 11.328125 20.140625 9.421875 
Q 21.96875 7.515625 27.59375 7.515625 
L 36.8125 7.515625 
L 36.8125 0 
L 27.59375 0 
Q 17.1875 0 13.234375 3.875 
Q 9.28125 7.765625 9.28125 18.015625 
L 9.28125 47.703125 
L 2.6875 47.703125 
L 2.6875 54.6875 
L 9.28125 54.6875 
L 9.28125 70.21875 
z
" id="BitstreamVeraSans-Roman-74"/>
      <path d="M 64.40625 67.28125 
L 64.40625 56.890625 
Q 59.421875 61.53125 53.78125 63.8125 
Q 48.140625 66.109375 41.796875 66.109375 
Q 29.296875 66.109375 22.65625 58.46875 
Q 16.015625 50.828125 16.015625 36.375 
Q 16.015625 21.96875 22.65625 14.328125 
Q 29.296875 6.6875 41.796875 6.6875 
Q 48.140625 6.6875 53.78125 8.984375 
Q 59.421875 11.28125 64.40625 15.921875 
L 64.40625 5.609375 
Q 59.234375 2.09375 53.4375 0.328125 
Q 47.65625 -1.421875 41.21875 -1.421875 
Q 24.65625 -1.421875 15.125 8.703125 
Q 5.609375 18.84375 5.609375 36.375 
Q 5.609375 53.953125 15.125 64.078125 
Q 24.65625 74.21875 41.21875 74.21875 
Q 47.75 74.21875 53.53125 72.484375 
Q 59.328125 70.75 64.40625 67.28125 
" id="BitstreamVeraSans-Roman-43"/>
      <path d="M 9.8125 72.90625 
L 19.671875 72.90625 
L 19.671875 0 
L 9.8125 0 
z
" id="BitstreamVeraSans-Roman-49"/>
     </defs>
     <g transform="translate(1077.117 145.62375)scale(0.24 -0.24)">
      <use xlink:href="#BitstreamVeraSans-Roman-43"/>
      <use x="69.82421875" xlink:href="#BitstreamVeraSans-Roman-6f"/>
      <use x="131.005859375" xlink:href="#BitstreamVeraSans-Roman-6e"/>
      <use x="194.384765625" xlink:href="#BitstreamVeraSans-Roman-73"/>
      <use x="246.484375" xlink:href="#BitstreamVeraSans-Roman-74"/>
      <use x="285.693359375" xlink:href="#BitstreamVeraSans-Roman-61"/>
      <use x="346.97265625" xlink:href="#BitstreamVeraSans-Roman-6e"/>
      <use x="410.3515625" xlink:href="#BitstreamVeraSans-Roman-74"/>
      <use x="449.560546875" xlink:href="#BitstreamVeraSans-Roman-20"/>
      <use x="481.34765625" xlink:href="#BitstreamVeraSans-Roman-49"/>
      <use x="510.83984375" xlink:href="#BitstreamVeraSans-Roman-6e"/>
      <use x="574.21875" xlink:href="#BitstreamVeraSans-Roman-74"/>
      <use x="613.427734375" xlink:href="#BitstreamVeraSans-Roman-65"/>
      <use x="674.951171875" xlink:href="#BitstreamVeraSans-Roman-72"/>
      <use x="716.064453125" xlink:href="#BitstreamVeraSans-Roman-76"/>
      <use x="775.244140625" xlink:href="#BitstreamVeraSans-Roman-61"/>
      <use x="836.5234375" xlink:href="#BitstreamVeraSans-Roman-6c"/>
      <use x="864.306640625" xlink:href="#BitstreamVeraSans-Roman-73"/>
     </g>
    </g>
   </g>
  </g>
 </g>
 <defs>
  <clipPath id="p5f739fa705">
   <rect height="564.48" width="822.492" x="165.825" y="70.56"/>
  </clipPath>
 </defs>
</svg>
